<svg id="Layer_1" version="1.1" viewBox="0 0 64 64" xml:space="preserve" xmlns="http://www.w3.org/2000/svg"><path d="M32.12 1.143a5.417 5.417 0 0 0-5.424 5.424c0 3.001 2.423 5.424 5.424 5.424s5.424-2.423 5.424-5.424a5.416 5.416 0 0 0-5.424-5.424zM32.12 52.009a5.417 5.417 0 0 0-5.424 5.424c0 3.001 2.423 5.424 5.424 5.424s5.424-2.423 5.424-5.424a5.416 5.416 0 0 0-5.424-5.424zM53.601 21.673a5.429 5.429 0 0 1 0-7.67c2.115-2.115 5.555-2.115 7.67 0s2.115 5.555 0 7.67a5.427 5.427 0 0 1-7.67 0zM2.729 50.238a5.429 5.429 0 0 1 0-7.67 5.429 5.429 0 0 1 7.67 0 5.429 5.429 0 0 1 0 7.67 5.429 5.429 0 0 1-7.67 0zM53.601 50.238a5.429 5.429 0 0 1 0-7.67 5.429 5.429 0 0 1 7.67 0 5.429 5.429 0 0 1 0 7.67 5.429 5.429 0 0 1-7.67 0zM6.564 23.259a5.403 5.403 0 0 1-3.835-1.586c-2.115-2.115-2.115-5.555 0-7.67s5.555-2.115 7.67 0 2.115 5.555 0 7.67a5.401 5.401 0 0 1-3.835 1.586z" fill="#ffffff" class="fill-2d7abe"></path><path d="m14.477 17.698 11.237-6.485a7.871 7.871 0 0 1-1.509-4.46l-11.212 6.47a7.886 7.886 0 0 1 1.484 4.475zM8.754 38.793V25.449a7.938 7.938 0 0 1-4.616-.072v13.491a7.977 7.977 0 0 1 4.616-.075zM24.196 57.433c0-1.437.391-2.783 1.063-3.946l-10.841-6.115a7.873 7.873 0 0 1-1.889 4.235l11.707 6.603a8.004 8.004 0 0 1-.04-.777zM51.487 51.623a7.863 7.863 0 0 1-1.902-4.23l-10.618 6.068a7.863 7.863 0 0 1 1.04 4.723l11.48-6.561zM57.436 25.758a7.942 7.942 0 0 1-2.19-.31v13.344a7.969 7.969 0 0 1 4.616.075V25.374a7.977 7.977 0 0 1-2.426.384zM51.021 13.202 40.034 6.777a7.872 7.872 0 0 1-1.523 4.457l11.013 6.44a7.894 7.894 0 0 1 1.497-4.472z" fill="#ebf0f5" class="fill-3c4652"></path><path d="m44.901 23.289-11.808-6.817a2.185 2.185 0 0 0-2.187 0l-11.809 6.817a2.193 2.193 0 0 0-1.093 1.893v13.636c0 .778.419 1.503 1.093 1.893l11.809 6.818a2.192 2.192 0 0 0 2.186 0L44.9 40.711a2.191 2.191 0 0 0 1.094-1.893V25.182a2.188 2.188 0 0 0-1.093-1.893zm-15.087 9.973v8.587l-7.437-4.294v-8.587l7.437 4.294zm9.623-8.08L32 29.476l-7.437-4.294L32 20.888l7.437 4.294zm2.186 3.786v8.587l-7.437 4.294v-8.587l7.437-4.294z" fill="#ffffff" class="fill-2d7abe"></path></svg>