<svg viewBox="0 0 48 48" xml:space="preserve" xmlns="http://www.w3.org/2000/svg"><path d="M24 19c1.57 0 3-1.43 3-3s-1.43-3-3-3-3 1.43-3 3 1.43 3 3 3zm1 2h-2c-1.046 0-3 .725-3 2.471V24h8v-.529C28 21.725 26.046 21 25 21zm17 8h-4V9H14a1 1 0 1 1 0-2h24a3 3 0 0 0-3-3H13a3 3 0 0 0-3 3v22H6a1 1 0 1 0 0 2h12c0 1.103-.897 2-2 2h-2c-2.206 0-4 1.794-4 4-1.103 0-2 .897-2 2v2c0 1.103.897 2 2 2h2c1.103 0 2-.897 2-2v-2c0-1.103-.897-2-2-2 0-1.103.897-2 2-2h2c2.206 0 4-1.794 4-4h3v6c-1.103 0-2 .897-2 2v2c0 1.103.897 2 2 2h2c1.103 0 2-.897 2-2v-2c0-1.103-.897-2-2-2v-6h3c0 2.206 1.794 4 4 4h2c1.103 0 2 .897 2 2-1.103 0-2 .897-2 2v2c0 1.103.897 2 2 2h2c1.103 0 2-.897 2-2v-2c0-1.103-.897-2-2-2 0-2.206-1.794-4-4-4h-2c-1.103 0-2-.897-2-2h12a1 1 0 1 0 0-2zM12.002 41H10v-2h2l.002 2zM38 39l.002 2H36v-2h2zm-12.998 2H23v-2h2l.002 2zM30 25a1 1 0 0 1-1 1H19a1 1 0 0 1-1-1v-1.529c0-1.822 1.131-3.181 2.59-3.898C19.626 18.649 19 17.371 19 16c0-2.663 2.337-5 5-5s5 2.337 5 5c0 1.371-.626 2.649-1.59 3.573 1.459.717 2.59 2.076 2.59 3.898V25z" fill="#ffffff" class="fill-333333"></path></svg>