<?xml version="1.0"?>
<svg xmlns="http://www.w3.org/2000/svg" xmlns:xlink="http://www.w3.org/1999/xlink" xmlns:svgjs="http://svgjs.com/svgjs" version="1.1" width="512" height="512" x="0" y="0" viewBox="0 0 512 512" style="enable-background:new 0 0 512 512" xml:space="preserve" class=""><g><g xmlns="http://www.w3.org/2000/svg"><path d="m497 450h-482c-8.284 0-15 6.716-15 15v32c0 8.284 6.716 15 15 15h482c8.284 0 15-6.716 15-15v-32c0-8.284-6.716-15-15-15z" fill="#ffffff" data-original="#000000" style="" class=""/><path d="m86 420h120c22.091 0 40-17.909 40-40v-5c0-8.284-6.716-15-15-15h-170c-8.284 0-15 6.716-15 15v5c0 22.092 17.909 40 40 40z" fill="#ffffff" data-original="#000000" style="" class=""/><circle cx="306" cy="215" r="50" fill="#ffffff" data-original="#000000" style="" class=""/><path d="m106.358 286.946 38.302 32.139c6.346 5.325 15.807 4.497 21.132-1.849l9.642-11.491-61.284-51.423-9.642 11.49c-5.324 6.347-4.496 15.809 1.85 21.134z" fill="#ffffff" data-original="#000000" style="" class=""/><path d="m384.341 56.781c5.325-6.346 4.497-15.807-1.849-21.132l-38.302-32.139c-6.346-5.325-15.808-4.497-21.133 1.849l-9.642 11.491 61.284 51.423z" fill="#ffffff" data-original="#000000" style="" class=""/><path d="m133.435 231.341 61.284 51.423c12.692 10.65 31.615 8.994 42.265-3.698l9.226-10.995c-12.56-14.132-20.21-32.721-20.21-53.071 0-44.112 35.888-80 80-80 15.353 0 29.703 4.356 41.897 11.884l11.216-13.366c10.65-12.692 8.995-31.615-3.698-42.265l-61.283-51.423c-12.692-10.65-31.615-8.995-42.265 3.698l-122.13 145.548c-10.65 12.693-8.994 31.615 3.698 42.265z" fill="#ffffff" data-original="#000000" style="" class=""/><path d="m386 215c0 12.224-2.765 23.81-7.688 34.182 27.764 9.936 47.688 36.497 47.688 67.635 0 29.214-17.451 55.283-44.473 66.406l-89.317 36.777h144.021c31.007-24.559 49.769-62.168 49.769-103.183 0-63.417-45.015-116.511-104.77-129.021 3.083 8.496 4.77 17.656 4.77 27.204z" fill="#ffffff" data-original="#000000" style="" class=""/></g></g></svg>
