<svg viewBox="0 0 32 32" xml:space="preserve" xmlns="http://www.w3.org/2000/svg"><g fill="#ffffff" class="fill-263238"><path d="M14.5 5c-.28 0-.5.22-.5.5 0 .27.22.5.5.5.27 0 .5-.23.5-.5 0-.28-.23-.5-.5-.5zM13.5 26c-.28 0-.5.22-.5.5 0 .27.22.5.5.5s.5-.23.5-.5c0-.28-.22-.5-.5-.5zM12.5 5c-.28 0-.5.22-.5.5 0 .27.22.5.5.5.27 0 .5-.23.5-.5 0-.28-.23-.5-.5-.5zM11.5 26c-.28 0-.5.22-.5.5 0 .27.22.5.5.5.27 0 .5-.23.5-.5 0-.28-.23-.5-.5-.5zM4.5 13c.28 0 .5-.23.5-.5 0-.28-.22-.5-.5-.5s-.5.22-.5.5c0 .27.22.5.5.5zM4.5 17c.28 0 .5-.23.5-.5 0-.28-.22-.5-.5-.5s-.5.22-.5.5c0 .27.22.5.5.5zM4.5 19c.28 0 .5-.22.5-.5s-.22-.5-.5-.5-.5.22-.5.5.22.5.5.5zM4.5 15c.28 0 .5-.22.5-.5s-.22-.5-.5-.5-.5.22-.5.5.22.5.5.5zM27.5 19c-.28 0-.5.22-.5.5 0 .27.22.5.5.5s.5-.23.5-.5c0-.28-.22-.5-.5-.5zM27.5 17c-.28 0-.5.22-.5.5 0 .27.22.5.5.5s.5-.23.5-.5c0-.28-.22-.5-.5-.5zM27.5 13c-.28 0-.5.22-.5.5 0 .27.22.5.5.5s.5-.23.5-.5c0-.28-.22-.5-.5-.5zM27.5 15c-.28 0-.5.22-.5.5 0 .27.22.5.5.5s.5-.23.5-.5c0-.28-.22-.5-.5-.5zM15.5 26c-.28 0-.5.22-.5.5 0 .27.22.5.5.5.27 0 .5-.23.5-.5 0-.28-.23-.5-.5-.5zM20.5 5c-.28 0-.5.22-.5.5 0 .27.22.5.5.5.27 0 .5-.23.5-.5 0-.28-.23-.5-.5-.5zM18.5 5c-.28 0-.5.22-.5.5 0 .27.22.5.5.5.27 0 .5-.23.5-.5 0-.28-.23-.5-.5-.5zM19.5 26c-.28 0-.5.22-.5.5 0 .27.22.5.5.5s.5-.23.5-.5c0-.28-.22-.5-.5-.5zM17.5 26c-.28 0-.5.22-.5.5 0 .27.22.5.5.5.27 0 .5-.23.5-.5 0-.28-.23-.5-.5-.5zM16.5 5c-.28 0-.5.22-.5.5 0 .27.22.5.5.5.27 0 .5-.23.5-.5 0-.28-.23-.5-.5-.5z"></path></g><path d="M6 25.5a.5.5 0 0 1-.243-.063l-4.5-2.5a.5.5 0 0 1 0-.874l4.5-2.5a.5.5 0 0 1 .486 0l4.5 2.5a.5.5 0 0 1 0 .874l-4.5 2.5A.5.5 0 0 1 6 25.5zm-3.471-3L6 24.428 9.471 22.5 6 20.572 2.529 22.5z" fill="#ffffff" class="fill-263238"></path><path d="M6 31a.5.5 0 0 1-.5-.5V25a.5.5 0 0 1 .257-.437l4.5-2.5A.5.5 0 0 1 11 22.5V28a.5.5 0 0 1-.257.437l-4.5 2.5A.5.5 0 0 1 6 31zm.5-5.706v4.356l3.5-1.945V23.35l-3.5 1.944z" fill="#ffffff" class="fill-263238"></path><path d="M6 31a.5.5 0 0 1-.243-.063l-4.5-2.5A.5.5 0 0 1 1 28v-5.5a.502.502 0 0 1 .743-.437l4.5 2.5A.5.5 0 0 1 6.5 25v5.5a.502.502 0 0 1-.5.5zm-4-3.294 3.5 1.945v-4.356L2 23.35v4.356zM26 25.5a.5.5 0 0 1-.243-.063l-4.5-2.5a.5.5 0 0 1 0-.874l4.5-2.5a.5.5 0 0 1 .486 0l4.5 2.5a.5.5 0 0 1 0 .874l-4.5 2.5A.5.5 0 0 1 26 25.5zm-3.471-3L26 24.428l3.471-1.928L26 20.572 22.529 22.5z" fill="#ffffff" class="fill-263238"></path><path d="M26 31a.5.5 0 0 1-.5-.5V25a.5.5 0 0 1 .257-.437l4.5-2.5A.5.5 0 0 1 31 22.5V28a.5.5 0 0 1-.257.437l-4.5 2.5A.5.5 0 0 1 26 31zm.5-5.706v4.356l3.5-1.945V23.35l-3.5 1.944z" fill="#ffffff" class="fill-263238"></path><path d="M26 31a.5.5 0 0 1-.243-.063l-4.5-2.5A.5.5 0 0 1 21 28v-5.5a.502.502 0 0 1 .743-.437l4.5 2.5A.5.5 0 0 1 26.5 25v5.5a.502.502 0 0 1-.5.5zm-4-3.294 3.5 1.945v-4.356L22 23.35v4.356z" fill="#ffffff" class="fill-263238"></path><g><path d="M26 7a.5.5 0 0 1-.243-.063l-4.5-2.5a.5.5 0 0 1 0-.874l4.5-2.5a.5.5 0 0 1 .486 0l4.5 2.5a.5.5 0 0 1 0 .874l-4.5 2.5A.5.5 0 0 1 26 7zm-3.471-3L26 5.928 29.471 4 26 2.072 22.529 4z" fill="#ffffff" class="fill-263238"></path><path d="M26 12.5a.5.5 0 0 1-.5-.5V6.5a.5.5 0 0 1 .257-.437l4.5-2.5A.5.5 0 0 1 31 4v5.5a.5.5 0 0 1-.257.437l-4.5 2.5A.5.5 0 0 1 26 12.5zm.5-5.706v4.356L30 9.206V4.85l-3.5 1.944z" fill="#ffffff" class="fill-263238"></path><path d="M26 12.5a.5.5 0 0 1-.243-.063l-4.5-2.5A.5.5 0 0 1 21 9.5V4a.502.502 0 0 1 .743-.437l4.5 2.5a.5.5 0 0 1 .257.437V12a.502.502 0 0 1-.5.5zm-4-3.294 3.5 1.945V6.794L22 4.85v4.356z" fill="#ffffff" class="fill-263238"></path></g><g><path d="M6 7a.5.5 0 0 1-.243-.063l-4.5-2.5a.5.5 0 0 1 0-.874l4.5-2.5a.5.5 0 0 1 .486 0l4.5 2.5a.5.5 0 0 1 0 .874l-4.5 2.5A.5.5 0 0 1 6 7zM2.529 4 6 5.928 9.471 4 6 2.072 2.529 4z" fill="#ffffff" class="fill-263238"></path><path d="M6 12.5a.5.5 0 0 1-.5-.5V6.5a.5.5 0 0 1 .257-.437l4.5-2.5A.5.5 0 0 1 11 4v5.5a.5.5 0 0 1-.257.437l-4.5 2.5A.5.5 0 0 1 6 12.5zm.5-5.706v4.356L10 9.206V4.85L6.5 6.794z" fill="#ffffff" class="fill-263238"></path><path d="M6 12.5a.5.5 0 0 1-.243-.063l-4.5-2.5A.5.5 0 0 1 1 9.5V4a.502.502 0 0 1 .743-.437l4.5 2.5A.5.5 0 0 1 6.5 6.5V12a.502.502 0 0 1-.5.5zM2 9.206l3.5 1.945V6.794L2 4.85v4.356z" fill="#ffffff" class="fill-263238"></path></g><g><g fill="#ffffff" class="fill-263238"><path d="m21.24 19.18-.74-.444V19l-.78.433 1.007.604a.499.499 0 1 0 .513-.857zM11.5 18.712l-.779.468a.5.5 0 1 0 .514.858l1.025-.615L11.5 19v-.288z"></path></g></g><g fill="#ffffff" class="fill-263238"><path d="M11.5 14a.515.515 0 0 1-.229-.055l-.522-.269a.499.499 0 1 1 .457-.889l.285.146 4.266-2.37a.5.5 0 0 1 .486 0l4.254 2.363.255-.146a.5.5 0 1 1 .496.869l-.5.285a.502.502 0 0 1-.491.002L16 11.572l-4.257 2.365A.5.5 0 0 1 11.5 14z"></path><path d="M16 22a.5.5 0 0 1-.5-.5V16a.5.5 0 0 1 .257-.437l4.5-2.5A.5.5 0 0 1 21 13.5V19a.5.5 0 0 1-.257.437l-4.5 2.5A.5.5 0 0 1 16 22zm.5-5.706v4.356l3.5-1.945V14.35l-3.5 1.944z"></path><path d="M16 22a.5.5 0 0 1-.243-.063l-4.5-2.5A.5.5 0 0 1 11 19v-5.5a.502.502 0 0 1 .743-.437l4.5 2.5A.5.5 0 0 1 16.5 16v5.5a.502.502 0 0 1-.5.5zm-4-3.294 3.5 1.945v-4.356L12 14.35v4.356z"></path></g><circle cx="9.5" cy="12.5" fill="#ffffff" r=".5" class="fill-263238"></circle><circle cx="22.5" cy="12.5" fill="#ffffff" r=".5" class="fill-263238"></circle><circle cx="22.5" cy="20.5" fill="#ffffff" r=".5" class="fill-263238"></circle><circle cx="9.5" cy="20.5" fill="#ffffff" r=".5" class="fill-263238"></circle></svg>