<svg id="Layer_1" data-name="Layer 1" xmlns="http://www.w3.org/2000/svg" xmlns:xlink="http://www.w3.org/1999/xlink" viewBox="0 0 368.25 127.74"><defs><style>.cls-1{fill:none;clip-rule:evenodd;}.cls-10,.cls-100,.cls-101,.cls-102,.cls-103,.cls-104,.cls-105,.cls-106,.cls-107,.cls-108,.cls-109,.cls-11,.cls-110,.cls-111,.cls-112,.cls-113,.cls-114,.cls-115,.cls-116,.cls-117,.cls-12,.cls-13,.cls-14,.cls-15,.cls-16,.cls-17,.cls-18,.cls-19,.cls-2,.cls-20,.cls-21,.cls-22,.cls-23,.cls-24,.cls-25,.cls-26,.cls-27,.cls-28,.cls-29,.cls-3,.cls-30,.cls-31,.cls-32,.cls-33,.cls-34,.cls-35,.cls-36,.cls-37,.cls-38,.cls-39,.cls-4,.cls-40,.cls-41,.cls-42,.cls-43,.cls-44,.cls-45,.cls-46,.cls-47,.cls-48,.cls-49,.cls-5,.cls-50,.cls-51,.cls-52,.cls-53,.cls-54,.cls-55,.cls-56,.cls-57,.cls-58,.cls-59,.cls-6,.cls-60,.cls-61,.cls-62,.cls-63,.cls-64,.cls-65,.cls-66,.cls-67,.cls-68,.cls-69,.cls-70,.cls-71,.cls-72,.cls-73,.cls-74,.cls-75,.cls-76,.cls-77,.cls-78,.cls-79,.cls-8,.cls-80,.cls-81,.cls-82,.cls-83,.cls-84,.cls-85,.cls-86,.cls-87,.cls-88,.cls-89,.cls-9,.cls-90,.cls-91,.cls-92,.cls-93,.cls-94,.cls-95,.cls-96,.cls-97,.cls-98,.cls-99{fill-rule:evenodd;}.cls-2{fill:url(#GradientFill_1);}.cls-3{fill:url(#GradientFill_2);}.cls-4{fill:url(#GradientFill_3);}.cls-5{fill:url(#GradientFill_4);}.cls-6{fill:url(#GradientFill_5);}.cls-7{clip-path:url(#clip-path);}.cls-8{fill:#fac4c4;}.cls-9{fill:#fac2c5;}.cls-10{fill:#f6c0c4;}.cls-11{fill:#f2bec5;}.cls-12{fill:#f0bbc4;}.cls-13{fill:#edbac5;}.cls-14{fill:#ebb8c4;}.cls-15{fill:#e6b4c3;}.cls-16{fill:#e4b4c4;}.cls-17{fill:#e2b1c3;}.cls-18{fill:#ddb0c4;}.cls-19{fill:#ddaec3;}.cls-20{fill:#d8adc4;}.cls-21{fill:#d4aac3;}.cls-22{fill:#d1a9c5;}.cls-23{fill:#cfa7c5;}.cls-24{fill:#cda6c5;}.cls-25{fill:#cba4c4;}.cls-26{fill:#c8a2c4;}.cls-27{fill:#c49fc3;}.cls-28{fill:#c09ec2;}.cls-29{fill:#bd9bc1;}.cls-30{fill:#b999c1;}.cls-31{fill:#b798c3;}.cls-32{fill:#b494c1;}.cls-33{fill:#b093c1;}.cls-34{fill:#ae93c2;}.cls-35{fill:#ab91c4;}.cls-36{fill:#a990c4;}.cls-37{fill:#a790c4;}.cls-38{fill:#a58fc4;}.cls-39{fill:#a28fc3;}.cls-40{fill:#a08ec3;}.cls-41{fill:#9e8ec3;}.cls-42{fill:#9c8dc3;}.cls-43{fill:#9a8dc3;}.cls-44{fill:#988cc3;}.cls-45{fill:#958cc3;}.cls-46{fill:#938bc3;}.cls-47{fill:#918bc3;}.cls-48{fill:#8d8ac3;}.cls-49{fill:#8a8ac3;}.cls-50{fill:#8889c3;}.cls-51{fill:#8488c2;}.cls-52{fill:#8487c1;}.cls-53{fill:#8188c2;}.cls-54{fill:#8086c1;}.cls-55{fill:#7d86c1;}.cls-56{fill:#7b87c2;}.cls-57{fill:#7985c1;}.cls-58{fill:#7686c2;}.cls-59{fill:#7684c1;}.cls-60{fill:#7484c1;}.cls-61{fill:#7082c0;}.cls-62{fill:#6f83c1;}.cls-63{fill:#6d81c0;}.cls-64{fill:#6b81c0;}.cls-65{fill:#6981c0;}.cls-66{fill:#6680c0;}.cls-67{fill:#6480c0;}.cls-68{fill:#617fc0;}.cls-69{fill:#5e7fc0;}.cls-70{fill:#5c7fc0;}.cls-71{fill:#597ebf;}.cls-72{fill:#547cbe;}.cls-73{fill:#527bbd;}.cls-74{fill:#4e7abd;}.cls-75{fill:#567ebf;}.cls-76{fill:#5b80c1;}.cls-77{fill:#5d82c2;}.cls-78{fill:#6283c2;}.cls-79{fill:#6584c0;}.cls-80{fill:#6a87c0;}.cls-81{fill:#6e89c3;}.cls-82{fill:#738ac1;}.cls-83{fill:#788ac1;}.cls-84{fill:#7a8ec3;}.cls-85{fill:#7e8fc3;}.cls-86{fill:#8391c3;}.cls-87{fill:#8592c3;}.cls-88{fill:#8a94c3;}.cls-89{fill:#8c95c3;}.cls-90{fill:#9196c1;}.cls-91{fill:#9598c3;}.cls-92{fill:#979ac4;}.cls-93{fill:#9c9bc3;}.cls-94{fill:#a19cc1;}.cls-95{fill:#a59ec2;}.cls-96{fill:#a7a0c3;}.cls-97{fill:#aca1c3;}.cls-98{fill:#b0a4c4;}.cls-99{fill:#b5a5c4;}.cls-100{fill:#b9a8c5;}.cls-101{fill:#bca8c4;}.cls-102{fill:#c0aac3;}.cls-103{fill:#c3acc4;}.cls-104{fill:#c5adc4;}.cls-105{fill:#c9b0c5;}.cls-106{fill:#ceb1c4;}.cls-107{fill:#d2b2c4;}.cls-108{fill:#d5b3c4;}.cls-109{fill:#d9b4c3;}.cls-110{fill:#dbb5c3;}.cls-111{fill:#e0b8c4;}.cls-112{fill:#e5b7c3;}.cls-113{fill:#e7bcc5;}.cls-114{fill:#ebbdc6;}.cls-115{fill:#eebec4;}.cls-116{fill:#f3c0c4;}.cls-117,.cls-118{fill:#fff;}</style><linearGradient id="GradientFill_1" x1="71.19" y1="15.62" x2="48.69" y2="79.29" gradientUnits="userSpaceOnUse"><stop offset="0" stop-color="#4e7abd"/><stop offset="0.2" stop-color="#527bbd"/><stop offset="0.41" stop-color="#5f7ebe"/><stop offset="0.63" stop-color="#7383c0"/><stop offset="0.84" stop-color="#908ac2"/><stop offset="1" stop-color="#ab91c4"/></linearGradient><linearGradient id="GradientFill_2" x1="61" y1="50.63" x2="25.1" y2="62.31" gradientUnits="userSpaceOnUse"><stop offset="0" stop-color="#fac4c4"/><stop offset="0.54" stop-color="#ab91c4"/><stop offset="1" stop-color="#4e7abd"/></linearGradient><linearGradient id="GradientFill_3" x1="58.62" y1="47.34" x2="27.75" y2="63.99" gradientUnits="userSpaceOnUse"><stop offset="0" stop-color="#fac4c4"/><stop offset="1" stop-color="#7fa9d2"/></linearGradient><linearGradient id="GradientFill_4" x1="51.49" y1="32.81" x2="43.6" y2="65.12" gradientUnits="userSpaceOnUse"><stop offset="0" stop-color="#ab91c4"/><stop offset="0.52" stop-color="#7c85c0"/><stop offset="1" stop-color="#4e7abd"/></linearGradient><linearGradient id="GradientFill_5" x1="23.9" y1="80.62" x2="75.54" y2="67.31" gradientUnits="userSpaceOnUse"><stop offset="0" stop-color="#ab91c4"/><stop offset="1" stop-color="#fac4c4"/></linearGradient><clipPath id="clip-path" transform="translate(27.2 24.57)"><path class="cls-1" d="M5.06,55A45.77,45.77,0,0,1,3.41,42.2,43.22,43.22,0,0,1,6.63,26.45a40.36,40.36,0,0,1,8.11-12.51A40.82,40.82,0,0,0,1.88,42.18c-.35,14.94,3.66,27.48,14.81,36A45.87,45.87,0,0,0,77.16,67.68,46.26,46.26,0,0,0,67.82,7.89c.33.33.66.66,1,1l.08.09c.32.34.64.68,1,1v0c.31.34.6.7.9,1.05l.07.09c.3.36.58.72.87,1.08l0,0c.28.36.55.72.82,1.09l.06.09c.27.37.53.75.79,1.13l0,.06c.25.37.49.75.73,1.13l0,.08c.25.39.48.78.72,1.18l0,.06q.34.59.66,1.17l0,.08c.22.4.43.81.64,1.21l0,.08c.2.4.4.81.59,1.21l0,.07c.19.41.37.82.55,1.24l.05.1.51,1.24,0,0c.17.42.33.85.48,1.28l0,.1c.15.42.3.85.44,1.28v0c.14.44.28.87.41,1.31l0,.11c.13.43.25.87.37,1.32h0c.12.44.23.88.33,1.33l0,.1c.1.44.2.89.29,1.33v0c.09.44.17.89.25,1.33l0,.1c.07.45.15.89.21,1.34v0c.06.44.12.87.17,1.31V36c0,.44.1.89.14,1.33v.07c0,.44.07.87.1,1.31v.09l.06,1.33v.08a45.67,45.67,0,0,1-1.12,11.55,35.6,35.6,0,0,1-5.44,11.6l0,0A36.61,36.61,0,0,1,62,75.15a31.4,31.4,0,0,1-23.21,2.59h0a33,33,0,0,1-8.13-2.89l0,0L30,74.5h0l-.63-.34,0,0-.62-.35,0,0L28,73.39h0L27.41,73h0l-.6-.4h0l-.6-.42h0l-.58-.42,0,0L25,71.26h0l-.58-.46h0l-.57-.47h0l-.56-.48,0,0-.54-.49h0l-.54-.51,0,0-.54-.52h0L21,67.71l0,0-.51-.54,0,0-.5-.55,0,0L19.44,66l0,0c-.16-.18-.31-.37-.47-.57l0,0-.48-.6h0L18,64.12h0l-.45-.63,0,0L17,62.83v0l-.44-.66h0l-.42-.67,0,0-.41-.67v0l-.4-.69h0l-.38-.7v0c-.13-.23-.26-.47-.38-.71v0l-.36-.74h0c-.11-.24-.23-.49-.34-.74l0,0-.33-.74v0c-.11-.25-.22-.51-.32-.77l0-.06v0l0-.06v-.06h0v-.08l0-.06,0,0v0h0V55l0-.06v-.06h0v-.14l0-.06h0V54.6l0-.12v0h0v-.2h0v0l0-.06v-.09h0v-.19h0v0l0-.11,0,0h0v0l0-.05v0l0-.08h0l-.05-.18h0l0-.08,0,0V53h0l0,0v-.05l0,0v0h0v0l0-.05v0l0,0v-.09l0,0v-.09h0v-.13l0,0v0h0v-.09l0,0V52l0,0v-.09l0-.09h0v-.09l0-.09,0,0v-.22l0-.05V51l0-.09v-.13h0a34.87,34.87,0,0,1-.7-3.64v-.36h0l0-.18h0v-.44l0-.15v-.22h0l0-.19v0h0v-.23h0v-.6h0v-.22h0V43.42h0V42.3A37.82,37.82,0,0,1,11,36.87c-1.63-5.93,2.09-12.73,5.68-17.2C10.11,25,4.28,34.17,4.35,48.47a46.74,46.74,0,0,1-.15-6.26A42.16,42.16,0,0,1,7.81,27a38.57,38.57,0,0,1,9.07-12.59A38.58,38.58,0,0,0,7.68,26.9,41.79,41.79,0,0,0,3.91,42.2,44.8,44.8,0,0,0,5.06,55Z"/></clipPath></defs><path class="cls-2" d="M78.87,28a45.62,45.62,0,0,0-6-11.56A42,42,0,0,0,54.55,2.25a43.64,43.64,0,0,1,5.88,3.13,42.12,42.12,0,0,1,11.9,11.53c6.9,10.25,10,23.2,6.38,35a38.09,38.09,0,0,1-2.83,6.29,37.92,37.92,0,0,1-2.61,4.53v0h0A41.23,41.23,0,0,1,70,66.58,38.86,38.86,0,0,1,51.14,77.86l-.66.15a29.48,29.48,0,0,0,11.15-3.46A35.92,35.92,0,0,0,74.35,63l0,0A34.34,34.34,0,0,0,79.71,51.6a45.32,45.32,0,0,0,1.1-11.38v-.08l-.06-1.31v-.09c0-.43-.06-.86-.09-1.29v-.07c0-.44-.08-.88-.13-1.31V36c-.06-.43-.11-.87-.18-1.3v-.05c-.06-.44-.14-.87-.21-1.31l0-.1c-.08-.44-.16-.88-.25-1.32v0c-.08-.43-.18-.87-.28-1.31l0-.1c-.1-.44-.21-.87-.33-1.32h0C79.09,28.76,79,28.38,78.87,28Z" transform="translate(27.2 24.57)"/><path class="cls-3" d="M14.16,56.34C21.06,68.85,36.59,75,50.4,69.14c8-3.67,13.16-11.18,14-20.58v-.08l0-.43V48c0-.16,0-.32,0-.49h0c0-.34,0-.67,0-1V45.8a2.62,2.62,0,0,0,0-.28v-.46l0-.26v-.17c0-.2,0-.39,0-.59v-.15c0-.12,0-.24,0-.35v-.1c0-.12,0-.25,0-.37v0h0A25.35,25.35,0,0,0,63,37.54q-.39-.74-.87-1.5c.3.46.57.91.81,1.36-.11-.31-.23-.62-.37-.93v-.06h0v0l0,0v-.06h0v-.08h0V36.1l0,0V36l0,0v0h0v0l0,0v0l0,0h0v0l0,0v0h0l0,0v-.06l0,0h0v0h0v0l0,0v0h0v0l0,0v0l0,0h0l0,0,0,0,0,0,0,0h0v0l0,0a21.35,21.35,0,0,1,1.68,7c.25,4.68-.32,6.31-1.33,9a19.08,19.08,0,0,1-2,3.46,19.43,19.43,0,0,1-1.46,2.65,20.59,20.59,0,0,1-6.13,6.06c-13.78,8.42-31.25,5.92-38.72-7.81C13.91,55.82,14,56.08,14.16,56.34Z" transform="translate(27.2 24.57)"/><path class="cls-4" d="M62.59,30.81a23,23,0,0,0-4.38-3.53,18.62,18.62,0,0,0-4.06-1.87,21.44,21.44,0,0,1,9.16,8.78c.37.68.69,1.33,1,2a23.79,23.79,0,0,1,1.78,6.34c3.15,14.12-6.86,27.38-20.6,30.37C55.11,70.57,63,63.41,65.09,53.5,61.54,66.73,50.28,72.51,38.92,72a28.6,28.6,0,0,1-22-10.65c.09.14.18.27.26.41h0l.43.65,0,0,.43.62,0,0c.15.21.29.42.45.62h0l.47.61c.15.2.31.39.47.59l0,0c.15.19.3.38.46.56l0,0c.15.19.31.37.47.56l0,0,.49.54,0,0,.5.53,0,0,.51.52h0l.53.51,0,0c.17.17.35.33.53.49v0l.54.48,0,0,.55.47h0l.56.47h0l.57.44h0l.57.43,0,0,.57.42h0l.59.41h0l.6.4h0l.59.38h0l.61.36,0,0c.2.12.4.24.61.35h0l.61.34h0l.6.32,0,0a32.62,32.62,0,0,0,7,2.61h0l.66.1c12.15,1.79,23-5.48,27.49-16.66C69.79,50.88,69.07,38.87,62.59,30.81Z" transform="translate(27.2 24.57)"/><path class="cls-5" d="M72.7,62.3C85.57,43.07,78.52,16.14,57.43,6.13A36.79,36.79,0,0,0,43.17,2.78,35.9,35.9,0,0,0,28.81,5.26c-.53.21-1,.42-1.55.65l1.57-.59A35.49,35.49,0,0,1,43.18,3.4,36.11,36.11,0,0,1,57,7.21,38.28,38.28,0,0,1,64.27,12a37.27,37.27,0,0,0-7.48-4.15A34.76,34.76,0,0,0,43.45,5.23c-.2,4,17.7,3.91,15.86,12-.47,0-4.61-1.56-5.38-1.81a29.27,29.27,0,0,0-10.61-1.38,26.32,26.32,0,0,0-10,2.57c-.35.17-.7.34-1,.53.36-.15.72-.28,1.09-.41a24.7,24.7,0,0,1,10-1.34,25.2,25.2,0,0,1,8.27,2,23.17,23.17,0,0,0-13.46.93,21.49,21.49,0,0,1,3.3.36c.64-.18,1.27-.32,1.93-.44a22.62,22.62,0,0,1,9.37.29,24.8,24.8,0,0,1,7.64,3.27,34.61,34.61,0,0,0-12.71.34,20.73,20.73,0,0,1,3.5.55c16.17,4.09,21.34,23.13,15.5,37.78-4,10-13.05,17-23.66,17.35.55.08,1.1.13,1.65.18C55.73,77.69,66.07,71.27,72.7,62.3Z" transform="translate(27.2 24.57)"/><path class="cls-6" d="M48.31,85.34A46.55,46.55,0,0,1,17.6,79.55a45,45,0,0,0,6.14,3.71c-.37.48-.75,1-1.13,1.43A45,45,0,0,0,27.8,86.5c15.91,4.28,34.24-.22,46-11.83.76-.78,1.48-1.56,2.18-2.39a43.52,43.52,0,0,0,9.51-20.81A45.84,45.84,0,0,1,79,65.85c-.4.74-.83,1.47-1.28,2.19l0,0,0,0A46.55,46.55,0,0,1,48.31,85.34Z" transform="translate(27.2 24.57)"/><g class="cls-7"><polygon class="cls-8" points="67.93 63.87 0.15 68.81 0.03 66.46 67.93 63.87"/><polygon class="cls-8" points="67.93 63.87 0.05 66.85 0 64.89 67.93 63.87"/><polygon class="cls-8" points="67.93 63.87 0.01 65.29 0.01 63.33 67.93 63.87"/><polygon class="cls-8" points="67.93 63.87 0.01 63.72 0.06 61.76 67.93 63.87"/><polygon class="cls-8" points="67.93 63.87 0.05 62.15 0.15 60.19 67.93 63.87"/><polygon class="cls-8" points="67.93 63.87 0.13 60.59 0.28 58.63 67.93 63.87"/><polygon class="cls-8" points="67.93 63.87 0.25 59.02 0.46 57.07 67.93 63.87"/><polygon class="cls-8" points="67.93 63.87 0.42 57.46 0.67 55.51 67.93 63.87"/><polygon class="cls-8" points="67.93 63.87 0.62 55.9 0.93 53.96 67.93 63.87"/><polygon class="cls-8" points="67.93 63.87 0.87 54.35 1.22 52.42 67.93 63.87"/><polygon class="cls-8" points="67.93 63.87 1.15 52.8 1.56 50.88 67.93 63.87"/><polygon class="cls-8" points="67.93 63.87 1.48 51.26 1.93 49.35 67.93 63.87"/><polygon class="cls-8" points="67.93 63.87 1.84 49.73 2.35 47.83 67.93 63.87"/><polygon class="cls-8" points="67.93 63.87 2.25 48.21 2.8 46.31 67.93 63.87"/><polygon class="cls-8" points="67.93 63.87 2.69 46.69 3.29 44.81 67.93 63.87"/><polygon class="cls-8" points="67.93 63.87 3.17 45.19 3.83 43.32 67.93 63.87"/><polygon class="cls-8" points="67.93 63.87 3.7 43.69 4.4 41.84 67.93 63.87"/><polygon class="cls-8" points="67.93 63.87 4.26 42.21 5.01 40.38 67.93 63.87"/><polygon class="cls-8" points="67.93 63.87 4.86 40.74 5.65 38.93 67.93 63.87"/><polygon class="cls-8" points="67.93 63.87 5.5 39.29 6.34 37.49 67.93 63.87"/><polygon class="cls-8" points="67.93 63.87 6.17 37.85 7.06 36.07 67.93 63.87"/><polygon class="cls-8" points="67.93 63.87 6.88 36.43 7.82 34.67 67.93 63.87"/><polygon class="cls-8" points="67.93 63.87 7.63 35.02 8.61 33.28 67.93 63.87"/><polygon class="cls-8" points="67.93 63.87 8.42 33.63 9.45 31.92 67.93 63.87"/><polygon class="cls-8" points="67.93 63.87 9.24 32.26 10.31 30.57 67.93 63.87"/><polygon class="cls-8" points="67.93 63.87 10.1 30.91 11.21 29.24 67.93 63.87"/><polygon class="cls-8" points="67.93 63.87 10.99 29.57 12.15 27.93 67.93 63.87"/><polygon class="cls-8" points="67.93 63.87 11.91 28.26 13.11 26.65 67.93 63.87"/><polygon class="cls-8" points="67.93 63.87 12.87 26.97 14.12 25.39 67.93 63.87"/><polygon class="cls-8" points="67.93 63.87 13.87 25.7 15.15 24.15 67.93 63.87"/><polygon class="cls-8" points="67.93 63.87 14.89 24.46 16.21 22.93 67.93 63.87"/><polygon class="cls-8" points="67.93 63.87 15.95 23.24 17.31 21.74 67.93 63.87"/><polygon class="cls-8" points="67.93 63.87 17.04 22.04 18.44 20.58 67.93 63.87"/><polygon class="cls-8" points="67.93 63.87 18.16 20.87 19.59 19.44 67.93 63.87"/><polygon class="cls-8" points="67.93 63.87 19.31 19.72 20.78 18.32 67.93 63.87"/><polygon class="cls-8" points="67.93 63.87 20.49 18.6 22 17.24 67.93 63.87"/><polygon class="cls-8" points="67.93 63.87 21.69 17.51 23.24 16.18 67.93 63.87"/><polygon class="cls-8" points="67.93 63.87 22.93 16.45 24.51 15.15 67.93 63.87"/><polygon class="cls-8" points="67.93 63.87 24.19 15.41 25.8 14.15 67.93 63.87"/><polygon class="cls-8" points="67.93 63.87 25.48 14.4 27.12 13.19 67.93 63.87"/><polygon class="cls-8" points="67.93 63.87 26.79 13.43 28.47 12.25 67.93 63.87"/><polygon class="cls-8" points="67.93 63.87 28.13 12.48 29.84 11.34 67.93 63.87"/><polygon class="cls-8" points="67.93 63.87 29.5 11.57 31.23 10.46 67.93 63.87"/><polygon class="cls-8" points="67.93 63.87 30.88 10.68 32.64 9.62 67.93 63.87"/><polygon class="cls-8" points="67.93 63.87 32.29 9.83 34.08 8.81 67.93 63.87"/><polygon class="cls-8" points="67.93 63.87 33.72 9.01 35.53 8.03 67.93 63.87"/><polygon class="cls-8" points="67.93 63.87 35.17 8.23 37.01 7.29 67.93 63.87"/><polygon class="cls-8" points="67.93 63.87 36.64 7.47 38.5 6.58 67.93 63.87"/><polygon class="cls-8" points="67.93 63.87 38.13 6.76 40.01 5.9 67.93 63.87"/><polygon class="cls-8" points="67.93 63.87 39.64 6.07 41.54 5.26 67.93 63.87"/><polygon class="cls-8" points="67.93 63.87 41.16 5.42 43.09 4.65 67.93 63.87"/><polygon class="cls-8" points="67.93 63.87 42.7 4.81 44.64 4.08 67.93 63.87"/><polygon class="cls-8" points="67.93 63.87 44.26 4.23 46.22 3.55 67.93 63.87"/><polygon class="cls-8" points="67.93 63.87 45.83 3.69 47.8 3.05 67.93 63.87"/><polygon class="cls-8" points="67.93 63.87 47.41 3.18 49.4 2.59 67.93 63.87"/><polygon class="cls-8" points="67.93 63.87 49 2.71 51.01 2.17 67.93 63.87"/><polygon class="cls-8" points="67.93 63.87 50.61 2.28 52.63 1.78 67.93 63.87"/><polygon class="cls-8" points="67.93 63.87 52.23 1.88 54.26 1.43 67.93 63.87"/><polygon class="cls-8" points="67.93 63.87 53.85 1.52 55.9 1.12 67.93 63.87"/><polygon class="cls-8" points="67.93 63.87 55.49 1.2 57.54 0.85 67.93 63.87"/><polygon class="cls-8" points="67.93 63.87 57.13 0.92 59.19 0.61 67.93 63.87"/><polygon class="cls-8" points="67.93 63.87 58.78 0.67 60.85 0.41 67.93 63.87"/><polygon class="cls-8" points="67.93 63.87 60.44 0.47 62.51 0.25 67.93 63.87"/><polygon class="cls-8" points="67.93 63.87 62.09 0.3 64.17 0.13 67.93 63.87"/><polygon class="cls-8" points="67.93 63.87 63.76 0.17 65.84 0.05 67.93 63.87"/><polygon class="cls-8" points="67.93 63.87 65.42 0.07 67.5 0.01 67.93 63.87"/><polygon class="cls-8" points="67.93 63.87 67.09 0.02 69.17 0 67.93 63.87"/><polygon class="cls-8" points="67.93 63.87 68.76 0 70.84 0.03 67.93 63.87"/><polygon class="cls-8" points="67.93 63.87 70.42 0.03 72.5 0.1 67.93 63.87"/><polygon class="cls-8" points="67.93 63.87 72.09 0.09 74.17 0.21 67.93 63.87"/><polygon class="cls-8" points="67.93 63.87 73.75 0.19 75.82 0.36 67.93 63.87"/><polygon class="cls-8" points="67.93 63.87 75.41 0.33 77.48 0.55 67.93 63.87"/><polygon class="cls-8" points="67.93 63.87 77.06 0.5 79.13 0.77 67.93 63.87"/><polygon class="cls-8" points="67.93 63.87 78.71 0.72 80.77 1.03 67.93 63.87"/><polygon class="cls-8" points="67.93 63.87 80.36 0.97 82.4 1.33 67.93 63.87"/><polygon class="cls-8" points="67.93 63.87 81.99 1.26 84.03 1.67 67.93 63.87"/><polygon class="cls-8" points="67.93 63.87 83.62 1.59 85.64 2.05 67.93 63.87"/><polygon class="cls-8" points="67.93 63.87 85.23 1.95 87.24 2.46 67.93 63.87"/><polygon class="cls-8" points="67.93 63.87 86.84 2.36 88.84 2.91 67.93 63.87"/><polygon class="cls-8" points="67.93 63.87 88.44 2.8 90.42 3.39 67.93 63.87"/><polygon class="cls-8" points="67.93 63.87 90.02 3.27 91.98 3.92 67.93 63.87"/><polygon class="cls-8" points="67.93 63.87 91.59 3.79 93.53 4.47 67.93 63.87"/><polygon class="cls-8" points="67.93 63.87 93.15 4.34 95.07 5.07 67.93 63.87"/><polygon class="cls-8" points="67.93 63.87 94.69 4.92 96.59 5.7 67.93 63.87"/><polygon class="cls-8" points="67.93 63.87 96.21 5.54 98.09 6.36 67.93 63.87"/><polygon class="cls-8" points="67.93 63.87 97.72 6.2 99.58 7.06 67.93 63.87"/><polygon class="cls-8" points="67.93 63.87 99.21 6.89 101.05 7.8 67.93 63.87"/><polygon class="cls-8" points="67.93 63.87 100.68 7.62 102.49 8.56 67.93 63.87"/><polygon class="cls-8" points="67.93 63.87 102.13 8.38 103.92 9.37 67.93 63.87"/><polygon class="cls-8" points="67.93 63.87 103.56 9.17 105.32 10.2 67.93 63.87"/><polygon class="cls-8" points="67.93 63.87 104.97 9.99 106.7 11.06 67.93 63.87"/><polygon class="cls-8" points="67.93 63.87 106.35 10.85 108.06 11.96 67.93 63.87"/><polygon class="cls-8" points="67.93 63.87 107.72 11.74 109.39 12.89 67.93 63.87"/><polygon class="cls-8" points="67.93 63.87 109.06 12.66 110.7 13.85 67.93 63.87"/><polygon class="cls-8" points="67.93 63.87 110.37 13.61 111.98 14.84 67.93 63.87"/><polygon class="cls-8" points="67.93 63.87 111.66 14.6 113.24 15.86 67.93 63.87"/><polygon class="cls-8" points="67.93 63.87 112.92 15.61 114.47 16.91 67.93 63.87"/><polygon class="cls-8" points="67.93 63.87 114.16 16.65 115.67 17.99 67.93 63.87"/><polygon class="cls-8" points="67.93 63.87 115.36 17.72 116.84 19.09 67.93 63.87"/><polygon class="cls-8" points="67.93 63.87 116.54 18.82 117.98 20.22 67.93 63.87"/><polygon class="cls-8" points="67.93 63.87 117.69 19.94 119.09 21.38 67.93 63.87"/><polygon class="cls-8" points="67.93 63.87 118.81 21.09 120.17 22.56 67.93 63.87"/><polygon class="cls-8" points="67.93 63.87 119.9 22.27 121.22 23.77 67.93 63.87"/><polygon class="cls-8" points="67.93 63.87 120.96 23.47 122.24 25 67.93 63.87"/><polygon class="cls-8" points="67.93 63.87 121.99 24.7 123.23 26.26 67.93 63.87"/><polygon class="cls-8" points="67.93 63.87 122.98 25.95 124.18 27.54 67.93 63.87"/><polygon class="cls-8" points="67.93 63.87 123.94 27.22 125.1 28.84 67.93 63.87"/><polygon class="cls-8" points="67.93 63.87 124.87 28.51 125.98 30.16 67.93 63.87"/><polygon class="cls-8" points="67.93 63.87 125.76 29.83 126.83 31.5 67.93 63.87"/><polygon class="cls-8" points="67.93 63.87 126.62 31.16 127.64 32.86 67.93 63.87"/><polygon class="cls-8" points="67.93 63.87 127.44 32.52 128.42 34.24 67.93 63.87"/><polygon class="cls-8" points="67.93 63.87 128.22 33.9 129.16 35.64 67.93 63.87"/><polygon class="cls-8" points="67.93 63.87 128.97 35.29 129.87 37.05 67.93 63.87"/><polygon class="cls-8" points="67.93 63.87 129.69 36.7 130.53 38.48 67.93 63.87"/><polygon class="cls-8" points="67.93 63.87 130.36 38.13 131.16 39.93 67.93 63.87"/><polygon class="cls-8" points="67.93 63.87 131 39.57 131.75 41.39 67.93 63.87"/><polygon class="cls-8" points="67.93 63.87 131.6 41.02 132.3 42.86 67.93 63.87"/><polygon class="cls-8" points="67.93 63.87 132.16 42.49 132.82 44.35 67.93 63.87"/><polygon class="cls-8" points="67.93 63.87 132.69 43.98 133.29 45.85 67.93 63.87"/><polygon class="cls-8" points="67.93 63.87 133.17 45.47 133.73 47.36 67.93 63.87"/><polygon class="cls-8" points="67.93 63.87 133.62 46.98 134.12 48.88 67.93 63.87"/><polygon class="cls-8" points="67.93 63.87 134.02 48.5 134.48 50.41 67.93 63.87"/><polygon class="cls-8" points="67.93 63.87 134.39 50.02 134.79 51.94 67.93 63.87"/><polygon class="cls-8" points="67.93 63.87 134.71 51.56 135.07 53.48 67.93 63.87"/><polygon class="cls-8" points="67.93 63.87 135 53.1 135.3 55.03 67.93 63.87"/><polygon class="cls-9" points="67.93 63.87 135.24 54.65 135.5 56.59 67.93 63.87"/><polygon class="cls-9" points="67.93 63.87 135.45 56.2 135.65 58.15 67.93 63.87"/><polygon class="cls-10" points="67.93 63.87 135.61 57.76 135.76 59.71 67.93 63.87"/><polygon class="cls-11" points="67.93 63.87 135.73 59.32 135.84 61.28 67.93 63.87"/><polygon class="cls-12" points="67.93 63.87 135.81 60.89 135.87 62.84 67.93 63.87"/><polygon class="cls-13" points="67.93 63.87 135.86 62.45 135.86 64.41 67.93 63.87"/><polygon class="cls-14" points="67.93 63.87 135.86 64.02 135.81 65.98 67.93 63.87"/><polygon class="cls-15" points="67.93 63.87 135.82 65.59 135.71 67.55 67.93 63.87"/><polygon class="cls-16" points="67.93 63.87 135.73 67.15 135.58 69.11 67.93 63.87"/><polygon class="cls-17" points="67.93 63.87 135.61 68.72 135.41 70.67 67.93 63.87"/><polygon class="cls-18" points="67.93 63.87 135.45 70.28 135.19 72.23 67.93 63.87"/><polygon class="cls-19" points="67.93 63.87 135.25 71.84 134.94 73.78 67.93 63.87"/><polygon class="cls-20" points="67.93 63.87 135 73.39 134.65 75.32 67.93 63.87"/><polygon class="cls-21" points="67.93 63.87 134.72 74.94 134.31 76.86 67.93 63.87"/><polygon class="cls-22" points="67.93 63.87 134.39 76.48 133.94 78.39 67.93 63.87"/><polygon class="cls-23" points="67.93 63.87 134.03 78.01 133.52 79.92 67.93 63.87"/><polygon class="cls-24" points="67.93 63.87 133.62 79.53 133.07 81.43 67.93 63.87"/><polygon class="cls-25" points="67.93 63.87 133.18 81.05 132.57 82.93 67.93 63.87"/><polygon class="cls-26" points="67.93 63.87 132.69 82.55 132.04 84.42 67.93 63.87"/><polygon class="cls-27" points="67.93 63.87 132.17 84.05 131.47 85.9 67.93 63.87"/><polygon class="cls-28" points="67.93 63.87 131.61 85.53 130.86 87.36 67.93 63.87"/><polygon class="cls-29" points="67.93 63.87 131.01 87 130.21 88.81 67.93 63.87"/><polygon class="cls-30" points="67.93 63.87 130.37 88.45 129.53 90.25 67.93 63.87"/><polygon class="cls-31" points="67.93 63.87 129.7 89.89 128.81 91.67 67.93 63.87"/><polygon class="cls-32" points="67.93 63.87 128.98 91.31 128.05 93.07 67.93 63.87"/><polygon class="cls-33" points="67.93 63.87 128.23 92.72 127.25 94.46 67.93 63.87"/><polygon class="cls-34" points="67.93 63.87 127.45 94.11 126.42 95.82 67.93 63.87"/><polygon class="cls-35" points="67.93 63.87 126.63 95.48 125.56 97.17 67.93 63.87"/><polygon class="cls-36" points="67.93 63.87 125.77 96.83 124.66 98.5 67.93 63.87"/><polygon class="cls-37" points="67.93 63.87 124.88 98.17 123.72 99.8 67.93 63.87"/><polygon class="cls-37" points="67.93 63.87 123.95 99.48 122.75 101.09 67.93 63.87"/><polygon class="cls-38" points="67.93 63.87 122.99 100.77 121.75 102.35 67.93 63.87"/><polygon class="cls-39" points="67.93 63.87 122 102.03 120.72 103.59 67.93 63.87"/><polygon class="cls-39" points="67.93 63.87 120.97 103.28 119.65 104.81 67.93 63.87"/><polygon class="cls-40" points="67.93 63.87 119.92 104.5 118.56 106 67.93 63.87"/><polygon class="cls-41" points="67.93 63.87 118.83 105.7 117.43 107.16 67.93 63.87"/><polygon class="cls-42" points="67.93 63.87 117.71 106.87 116.27 108.3 67.93 63.87"/><polygon class="cls-43" points="67.93 63.87 116.56 108.02 115.09 109.42 67.93 63.87"/><polygon class="cls-43" points="67.93 63.87 115.38 109.14 113.87 110.5 67.93 63.87"/><polygon class="cls-44" points="67.93 63.87 114.17 110.23 112.63 111.56 67.93 63.87"/><polygon class="cls-45" points="67.93 63.87 112.94 111.29 111.36 112.59 67.93 63.87"/><polygon class="cls-46" points="67.93 63.87 111.68 112.33 110.06 113.58 67.93 63.87"/><polygon class="cls-46" points="67.93 63.87 110.39 113.33 108.75 114.56 67.93 63.87"/><polygon class="cls-47" points="67.93 63.87 109.07 114.31 107.4 115.49 67.93 63.87"/><polygon class="cls-47" points="67.93 63.87 107.73 115.26 106.03 116.4 67.93 63.87"/><polygon class="cls-48" points="67.93 63.87 106.37 116.17 104.64 117.28 67.93 63.87"/><polygon class="cls-48" points="67.93 63.87 104.98 117.06 103.22 118.12 67.93 63.87"/><polygon class="cls-49" points="67.93 63.87 103.58 117.91 101.79 118.93 67.93 63.87"/><polygon class="cls-50" points="67.93 63.87 102.15 118.73 100.33 119.71 67.93 63.87"/><polygon class="cls-50" points="67.93 63.87 100.7 119.51 98.86 120.45 67.93 63.87"/><polygon class="cls-51" points="67.93 63.87 99.23 120.27 97.36 121.16 67.93 63.87"/><polygon class="cls-52" points="67.93 63.87 97.74 120.98 95.85 121.84 67.93 63.87"/><polygon class="cls-53" points="67.93 63.87 96.23 121.67 94.33 122.48 67.93 63.87"/><polygon class="cls-53" points="67.93 63.87 94.71 122.32 92.78 123.08 67.93 63.87"/><polygon class="cls-54" points="67.93 63.87 93.17 122.93 91.22 123.66 67.93 63.87"/><polygon class="cls-55" points="67.93 63.87 91.61 123.51 89.65 124.19 67.93 63.87"/><polygon class="cls-56" points="67.93 63.87 90.04 124.05 88.06 124.69 67.93 63.87"/><polygon class="cls-57" points="67.93 63.87 88.46 124.56 86.46 125.15 67.93 63.87"/><polygon class="cls-57" points="67.93 63.87 86.86 125.03 84.86 125.57 67.93 63.87"/><polygon class="cls-58" points="67.93 63.87 85.26 125.46 83.23 125.96 67.93 63.87"/><polygon class="cls-59" points="67.93 63.87 83.64 125.86 81.61 126.31 67.93 63.87"/><polygon class="cls-60" points="67.93 63.87 82.01 126.22 79.97 126.62 67.93 63.87"/><polygon class="cls-60" points="67.93 63.87 80.38 126.54 78.32 126.89 67.93 63.87"/><polygon class="cls-61" points="67.93 63.87 78.73 126.82 76.67 127.13 67.93 63.87"/><polygon class="cls-62" points="67.93 63.87 77.09 127.07 75.02 127.33 67.93 63.87"/><polygon class="cls-63" points="67.93 63.87 75.43 127.27 73.36 127.48 67.93 63.87"/><polygon class="cls-64" points="67.93 63.87 73.77 127.44 71.69 127.61 67.93 63.87"/><polygon class="cls-64" points="67.93 63.87 72.11 127.57 70.03 127.69 67.93 63.87"/><polygon class="cls-65" points="67.93 63.87 70.44 127.67 68.36 127.73 67.93 63.87"/><polygon class="cls-66" points="67.93 63.87 68.78 127.72 66.69 127.74 67.93 63.87"/><polygon class="cls-66" points="67.93 63.87 67.11 127.73 65.03 127.71 67.93 63.87"/><polygon class="cls-67" points="67.93 63.87 65.44 127.71 63.36 127.64 67.93 63.87"/><polygon class="cls-68" points="67.93 63.87 63.78 127.65 61.7 127.53 67.93 63.87"/><polygon class="cls-68" points="67.93 63.87 62.12 127.55 60.04 127.38 67.93 63.87"/><polygon class="cls-69" points="67.93 63.87 60.46 127.41 58.39 127.19 67.93 63.87"/><polygon class="cls-69" points="67.93 63.87 58.8 127.24 56.74 126.97 67.93 63.87"/><polygon class="cls-70" points="67.93 63.87 57.15 127.02 55.1 126.71 67.93 63.87"/><polygon class="cls-71" points="67.93 63.87 55.51 126.77 53.47 126.41 67.93 63.87"/><polygon class="cls-71" points="67.93 63.87 53.88 126.48 51.84 126.07 67.93 63.87"/><polygon class="cls-72" points="67.93 63.87 52.25 126.15 50.23 125.69 67.93 63.87"/><polygon class="cls-72" points="67.93 63.87 50.63 125.78 48.62 125.28 67.93 63.87"/><polygon class="cls-72" points="67.93 63.87 49.02 125.38 47.03 124.83 67.93 63.87"/><polygon class="cls-73" points="67.93 63.87 47.43 124.94 45.45 124.35 67.93 63.87"/><polygon class="cls-74" points="67.93 63.87 45.85 124.47 43.88 123.82 67.93 63.87"/><polygon class="cls-72" points="67.93 63.87 44.28 123.95 42.33 123.27 67.93 63.87"/><polygon class="cls-75" points="67.93 63.87 42.72 123.4 40.8 122.67 67.93 63.87"/><polygon class="cls-76" points="67.93 63.87 41.18 122.82 39.27 122.04 67.93 63.87"/><polygon class="cls-77" points="67.93 63.87 39.66 122.19 37.77 121.38 67.93 63.87"/><polygon class="cls-78" points="67.93 63.87 38.15 121.54 36.29 120.68 67.93 63.87"/><polygon class="cls-79" points="67.93 63.87 36.66 120.85 34.82 119.94 67.93 63.87"/><polygon class="cls-80" points="67.93 63.87 35.19 120.12 33.38 119.17 67.93 63.87"/><polygon class="cls-81" points="67.93 63.87 33.74 119.36 31.95 118.37 67.93 63.87"/><polygon class="cls-82" points="67.93 63.87 32.31 118.57 30.55 117.54 67.93 63.87"/><polygon class="cls-83" points="67.93 63.87 30.9 117.75 29.17 116.67 67.93 63.87"/><polygon class="cls-84" points="67.93 63.87 29.51 116.89 27.81 115.78 67.93 63.87"/><polygon class="cls-85" points="67.93 63.87 28.15 116 26.48 114.85 67.93 63.87"/><polygon class="cls-86" points="67.93 63.87 26.81 115.08 25.17 113.89 67.93 63.87"/><polygon class="cls-87" points="67.93 63.87 25.5 114.13 23.89 112.9 67.93 63.87"/><polygon class="cls-88" points="67.93 63.87 24.21 113.14 22.63 111.88 67.93 63.87"/><polygon class="cls-89" points="67.93 63.87 22.95 112.13 21.4 110.83 67.93 63.87"/><polygon class="cls-90" points="67.93 63.87 21.71 111.09 20.2 109.75 67.93 63.87"/><polygon class="cls-91" points="67.93 63.87 20.5 110.02 19.03 108.65 67.93 63.87"/><polygon class="cls-92" points="67.93 63.87 19.32 108.92 17.89 107.52 67.93 63.87"/><polygon class="cls-93" points="67.93 63.87 18.17 107.8 16.77 106.36 67.93 63.87"/><polygon class="cls-94" points="67.93 63.87 17.05 106.65 15.69 105.18 67.93 63.87"/><polygon class="cls-95" points="67.93 63.87 15.96 105.47 14.64 103.97 67.93 63.87"/><polygon class="cls-96" points="67.93 63.87 14.91 104.27 13.62 102.74 67.93 63.87"/><polygon class="cls-97" points="67.93 63.87 13.88 103.04 12.64 101.48 67.93 63.87"/><polygon class="cls-98" points="67.93 63.87 12.89 101.79 11.69 100.2 67.93 63.87"/><polygon class="cls-99" points="67.93 63.87 11.93 100.52 10.77 98.9 67.93 63.87"/><polygon class="cls-100" points="67.93 63.87 11 99.23 9.88 97.58 67.93 63.87"/><polygon class="cls-101" points="67.93 63.87 10.11 97.91 9.04 96.24 67.93 63.87"/><polygon class="cls-102" points="67.93 63.87 9.25 96.57 8.22 94.88 67.93 63.87"/><polygon class="cls-103" points="67.93 63.87 8.43 95.22 7.45 93.5 67.93 63.87"/><polygon class="cls-104" points="67.93 63.87 7.64 93.84 6.71 92.1 67.93 63.87"/><polygon class="cls-105" points="67.93 63.87 6.89 92.45 6 90.69 67.93 63.87"/><polygon class="cls-106" points="67.93 63.87 6.18 91.04 5.33 89.26 67.93 63.87"/><polygon class="cls-107" points="67.93 63.87 5.5 89.61 4.71 87.81 67.93 63.87"/><polygon class="cls-108" points="67.93 63.87 4.87 88.17 4.12 86.35 67.93 63.87"/><polygon class="cls-109" points="67.93 63.87 4.26 86.71 3.56 84.88 67.93 63.87"/><polygon class="cls-110" points="67.93 63.87 3.7 85.24 3.05 83.39 67.93 63.87"/><polygon class="cls-111" points="67.93 63.87 3.18 83.76 2.58 81.89 67.93 63.87"/><polygon class="cls-112" points="67.93 63.87 2.7 82.27 2.14 80.38 67.93 63.87"/><polygon class="cls-113" points="67.93 63.87 2.25 80.76 1.74 78.86 67.93 63.87"/><polygon class="cls-114" points="67.93 63.87 1.85 79.24 1.39 77.33 67.93 63.87"/><polygon class="cls-115" points="67.93 63.87 1.48 77.72 1.07 75.8 67.93 63.87"/><polygon class="cls-116" points="67.93 63.87 1.15 76.18 0.8 74.25 67.93 63.87"/><polygon class="cls-9" points="67.93 63.87 0.87 74.64 0.56 72.7 67.93 63.87"/><polygon class="cls-8" points="67.93 63.87 0.62 73.09 0.37 71.15 67.93 63.87"/><polygon class="cls-8" points="67.93 63.87 0.42 71.54 0.21 69.59 67.93 63.87"/><polygon class="cls-8" points="67.93 63.87 0.26 69.98 0.13 68.42 67.93 63.87"/></g><path class="cls-117" d="M118.71,45.15a8.46,8.46,0,0,0-.62-3.21,8,8,0,0,0-1.72-2.63,7.92,7.92,0,0,0-2.63-1.77,8.95,8.95,0,0,0-6.77,0,8.23,8.23,0,0,0-2.66,1.8A7.88,7.88,0,0,0,102.57,42a8.59,8.59,0,0,0,0,6.41A7.84,7.84,0,0,0,104.29,51a8.09,8.09,0,0,0,2.63,1.78,8.64,8.64,0,0,0,3.39.65,8.54,8.54,0,0,0,3.39-.66,8.63,8.63,0,0,0,2.65-1.8,8,8,0,0,0,1.74-2.65,8.37,8.37,0,0,0,.62-3.2Zm-2.95.05a6.22,6.22,0,0,1-.4,2.2,5.62,5.62,0,0,1-1.11,1.81,5.18,5.18,0,0,1-3.9,1.66,5.24,5.24,0,0,1-3.92-1.69,5.56,5.56,0,0,1-1.12-1.82,6.31,6.31,0,0,1,0-4.42,5.39,5.39,0,0,1,1.11-1.81,5.42,5.42,0,0,1,6.09-1.2,5.38,5.38,0,0,1,1.72,1.24A5.65,5.65,0,0,1,115.36,43,6.23,6.23,0,0,1,115.76,45.2Z" transform="translate(27.2 24.57)"/><path class="cls-117" d="M145,42.54a5.63,5.63,0,0,0-.42-2.22,4.92,4.92,0,0,0-1.22-1.7,5.28,5.28,0,0,0-1.92-1.08,8,8,0,0,0-2.53-.38h-6.32v16h2.8V48h3.18a8.51,8.51,0,0,0,2.51-.35,6.14,6.14,0,0,0,2-1,5,5,0,0,0,1.38-1.72,5.44,5.44,0,0,0,.5-2.38Zm-2.86.06a2.63,2.63,0,0,1-.93,2.1,3.79,3.79,0,0,1-2.54.79h-3.28V39.7h3.28a4,4,0,0,1,2.53.73A2.55,2.55,0,0,1,142.11,42.6Z" transform="translate(27.2 24.57)"/><path class="cls-117" d="M160.65,41.35a1.7,1.7,0,0,1,.69-1.36,2.93,2.93,0,0,1,1.92-.56,6,6,0,0,1,2.18.42,9.72,9.72,0,0,1,2.17,1.22L169.12,39a9.17,9.17,0,0,0-2.64-1.5,9,9,0,0,0-3.17-.52,6.94,6.94,0,0,0-2.19.33,5,5,0,0,0-1.73,1,4.53,4.53,0,0,0-1.12,1.48,4.42,4.42,0,0,0-.41,1.91,4.5,4.5,0,0,0,.36,1.9,3.6,3.6,0,0,0,1,1.33,5.89,5.89,0,0,0,1.67.92,20.75,20.75,0,0,0,2.29.66,17.25,17.25,0,0,1,1.82.53,4.43,4.43,0,0,1,1.11.53,1.61,1.61,0,0,1,.55.63,1.94,1.94,0,0,1,.15.78,1.75,1.75,0,0,1-.77,1.49,3.46,3.46,0,0,1-2.07.55,6.44,6.44,0,0,1-2.7-.54,9.82,9.82,0,0,1-2.36-1.54l-1.7,2a9.67,9.67,0,0,0,3.14,1.93,10.09,10.09,0,0,0,3.55.63,7.68,7.68,0,0,0,2.31-.32,5,5,0,0,0,1.8-.94,4.24,4.24,0,0,0,1.17-1.51,4.69,4.69,0,0,0,.42-2,4.24,4.24,0,0,0-.33-1.75,3.79,3.79,0,0,0-1-1.31,5.72,5.72,0,0,0-1.62-.95,17.83,17.83,0,0,0-2.23-.71c-.77-.18-1.4-.36-1.9-.53a4.27,4.27,0,0,1-1.17-.55,1.68,1.68,0,0,1-.59-.64A2,2,0,0,1,160.65,41.35Z" transform="translate(27.2 24.57)"/><path class="cls-117" d="M197.33,50.62l-1.81-1.83a9.65,9.65,0,0,1-2.08,1.52,5.21,5.21,0,0,1-2.52.56,5,5,0,0,1-3.8-1.67,5.58,5.58,0,0,1-1.1-1.82,6.54,6.54,0,0,1,0-4.45,5.48,5.48,0,0,1,1.1-1.8,5.24,5.24,0,0,1,1.68-1.21,5,5,0,0,1,2.12-.45,5.26,5.26,0,0,1,2.45.55,9.24,9.24,0,0,1,2,1.44l1.81-2.08a10.72,10.72,0,0,0-1.22-1,7.83,7.83,0,0,0-1.39-.79,8.26,8.26,0,0,0-1.66-.51,10.32,10.32,0,0,0-2-.19,8.26,8.26,0,0,0-3.34.66A8,8,0,0,0,185,39.32a8.08,8.08,0,0,0-1.7,2.65,8.44,8.44,0,0,0-.61,3.23,8.55,8.55,0,0,0,.62,3.25,7.87,7.87,0,0,0,4.28,4.37,8.06,8.06,0,0,0,3.25.64,10,10,0,0,0,2-.19,7,7,0,0,0,1.7-.58A8.62,8.62,0,0,0,196,51.8,10.13,10.13,0,0,0,197.33,50.62Z" transform="translate(27.2 24.57)"/><rect class="cls-118" x="238.09" y="61.73" width="2.79" height="16.03"/><rect class="cls-118" x="257.13" y="68.47" width="8.97" height="2.54"/><rect class="cls-118" x="254.39" y="75.21" width="14.46" height="2.54"/><rect class="cls-118" x="254.39" y="61.73" width="14.32" height="2.54"/><polygon class="cls-117" points="292.58 72.81 284.01 61.73 281.41 61.73 281.41 77.75 284.2 77.75 284.2 66.35 293.02 77.75 295.37 77.75 295.37 61.73 292.58 61.73 292.58 72.81"/><polygon class="cls-117" points="316.71 64.33 321.79 64.33 321.79 61.73 308.79 61.73 308.79 64.33 313.87 64.33 313.87 77.75 316.71 77.75 316.71 64.33"/><rect class="cls-118" x="335.37" y="61.73" width="2.79" height="16.03"/><path class="cls-117" d="M334,37h-2.61l-7.05,16.15h2.89c2-4.78,3.33-7.9,5.42-12.78,2,4.67,3.49,8.16,5.43,12.78h3Z" transform="translate(27.2 24.57)"/></svg>