<svg width="163" height="25" viewBox="0 0 163 25" fill="none" xmlns="http://www.w3.org/2000/svg">
<path d="M4.98 4.636L6.348 6.736L5.136 7.48L3.84 5.104L1.548 7.48L0.528 6.736L2.808 4.636L0.336 3.736L1.164 2.632L3.468 3.604L3.924 1.168H5.316L4.74 3.604L7.464 2.632L7.824 3.736L4.98 4.636ZM14.6396 19.252C12.9356 19.252 11.5916 18.776 10.6076 17.824C9.62363 16.864 9.13163 15.552 9.13163 13.888C9.13163 12.736 9.33163 11.684 9.73163 10.732C10.1396 9.772 10.7036 8.944 11.4236 8.248C12.1516 7.544 13.0036 7.004 13.9796 6.628C14.9636 6.244 16.0276 6.052 17.1716 6.052C18.3316 6.052 19.2956 6.268 20.0636 6.7C20.8396 7.124 21.4196 7.668 21.8036 8.332C22.1876 8.996 22.3796 9.68 22.3796 10.384C22.3796 10.536 22.3756 10.668 22.3676 10.78C22.3596 10.892 22.3476 10.98 22.3316 11.044H19.7396C19.7476 11.004 19.7516 10.96 19.7516 10.912C19.7596 10.864 19.7636 10.808 19.7636 10.744C19.7636 10.248 19.6556 9.816 19.4396 9.448C19.2236 9.08 18.8956 8.796 18.4556 8.596C18.0236 8.396 17.4796 8.296 16.8236 8.296C16.0556 8.296 15.3596 8.436 14.7356 8.716C14.1196 8.988 13.5876 9.368 13.1396 9.856C12.6916 10.344 12.3476 10.92 12.1076 11.584C11.8756 12.248 11.7596 12.972 11.7596 13.756C11.7596 14.82 12.0436 15.628 12.6116 16.18C13.1876 16.732 13.9676 17.008 14.9516 17.008C15.7756 17.008 16.4636 16.888 17.0156 16.648C17.5756 16.4 18.0196 16.072 18.3476 15.664C18.6836 15.248 18.9196 14.8 19.0556 14.32H21.6356C21.5316 14.928 21.2996 15.528 20.9396 16.12C20.5796 16.712 20.0996 17.244 19.4996 17.716C18.9076 18.18 18.2036 18.552 17.3876 18.832C16.5716 19.112 15.6556 19.252 14.6396 19.252ZM29.8871 19.252C28.7351 19.252 27.7391 19.032 26.8991 18.592C26.0671 18.144 25.4231 17.524 24.9671 16.732C24.5191 15.94 24.2951 15.02 24.2951 13.972C24.2951 12.836 24.4951 11.784 24.8951 10.816C25.3031 9.848 25.8671 9.012 26.5871 8.308C27.3151 7.596 28.1591 7.044 29.1191 6.652C30.0791 6.252 31.1191 6.052 32.2391 6.052C33.3991 6.052 34.3951 6.276 35.2271 6.724C36.0671 7.172 36.7111 7.792 37.1591 8.584C37.6071 9.368 37.8311 10.272 37.8311 11.296C37.8311 12.464 37.6231 13.536 37.2071 14.512C36.7991 15.48 36.2311 16.32 35.5031 17.032C34.7751 17.744 33.9311 18.292 32.9711 18.676C32.0111 19.06 30.9831 19.252 29.8871 19.252ZM30.1271 17.056C31.0871 17.056 31.9471 16.824 32.7071 16.36C33.4671 15.888 34.0711 15.236 34.5191 14.404C34.9671 13.564 35.1911 12.596 35.1911 11.5C35.1911 10.828 35.0671 10.248 34.8191 9.76C34.5791 9.272 34.2231 8.9 33.7511 8.644C33.2871 8.38 32.7071 8.248 32.0111 8.248C31.2671 8.248 30.5871 8.388 29.9711 8.668C29.3551 8.948 28.8191 9.336 28.3631 9.832C27.9151 10.328 27.5671 10.912 27.3191 11.584C27.0711 12.248 26.9471 12.972 26.9471 13.756C26.9471 14.796 27.2151 15.608 27.7511 16.192C28.2871 16.768 29.0791 17.056 30.1271 17.056ZM47.1617 19L48.3257 13.612C48.5257 12.708 48.6737 11.98 48.7697 11.428C48.8737 10.876 48.9257 10.444 48.9257 10.132C48.9257 9.828 48.8737 9.548 48.7697 9.292C48.6737 9.028 48.4937 8.816 48.2297 8.656C47.9657 8.488 47.5857 8.404 47.0897 8.404C46.5457 8.404 46.0617 8.512 45.6377 8.728C45.2137 8.944 44.8457 9.232 44.5337 9.592C44.2297 9.944 43.9777 10.34 43.7777 10.78C43.5857 11.212 43.4417 11.648 43.3457 12.088L42.3617 11.488C42.5777 10.488 42.9577 9.58 43.5017 8.764C44.0537 7.94 44.7337 7.284 45.5417 6.796C46.3497 6.3 47.2417 6.052 48.2177 6.052C49.0257 6.052 49.6817 6.188 50.1857 6.46C50.6897 6.732 51.0577 7.112 51.2897 7.6C51.5297 8.08 51.6497 8.64 51.6497 9.28C51.6497 9.568 51.6177 9.92 51.5537 10.336C51.4897 10.744 51.3977 11.24 51.2777 11.824C51.1657 12.4 51.0217 13.08 50.8457 13.864L49.7417 19H47.1617ZM39.2777 19L41.9897 6.256H44.5937L41.8817 19H39.2777ZM55.0097 19L56.2217 13.624C56.3737 12.904 56.4897 12.324 56.5697 11.884C56.6497 11.444 56.7057 11.088 56.7377 10.816C56.7697 10.536 56.7857 10.296 56.7857 10.096C56.7857 9.792 56.7337 9.512 56.6297 9.256C56.5337 9 56.3497 8.796 56.0777 8.644C55.8057 8.484 55.4137 8.404 54.9017 8.404C54.3497 8.404 53.8617 8.512 53.4377 8.728C53.0217 8.936 52.6657 9.216 52.3697 9.568C52.0737 9.912 51.8297 10.292 51.6377 10.708C51.4537 11.124 51.3177 11.536 51.2297 11.944L50.2577 11.368C50.4577 10.408 50.8257 9.524 51.3617 8.716C51.8977 7.908 52.5617 7.264 53.3537 6.784C54.1537 6.296 55.0497 6.052 56.0417 6.052C56.8257 6.052 57.4737 6.184 57.9857 6.448C58.5057 6.712 58.8897 7.084 59.1377 7.564C59.3937 8.044 59.5217 8.608 59.5217 9.256C59.5217 9.568 59.4977 9.92 59.4497 10.312C59.4017 10.704 59.3257 11.176 59.2217 11.728C59.1177 12.28 58.9817 12.956 58.8137 13.756L57.6017 19H55.0097ZM60.9939 19L63.6939 6.256H66.2739L63.5739 19H60.9939ZM65.7459 3.616C65.3299 3.616 64.9699 3.504 64.6659 3.28C64.3619 3.056 64.2099 2.748 64.2099 2.356C64.2099 2.036 64.2899 1.768 64.4499 1.552C64.6179 1.328 64.8379 1.16 65.1099 1.048C65.3819 0.927999 65.6699 0.868 65.9739 0.868C66.3899 0.868 66.7459 0.98 67.0419 1.204C67.3459 1.428 67.4979 1.736 67.4979 2.128C67.4979 2.44 67.4139 2.708 67.2459 2.932C67.0859 3.148 66.8739 3.316 66.6099 3.436C66.3459 3.556 66.0579 3.616 65.7459 3.616ZM76.1231 19L77.4071 13.12C77.5591 12.44 77.6711 11.892 77.7431 11.476C77.8231 11.052 77.8631 10.68 77.8631 10.36C77.8631 9.768 77.6591 9.296 77.2511 8.944C76.8511 8.584 76.2271 8.404 75.3791 8.404C74.7311 8.404 74.1071 8.564 73.5071 8.884C72.9151 9.204 72.4071 9.64 71.9831 10.192C71.5591 10.736 71.2711 11.356 71.1191 12.052L70.0391 11.5C70.2071 10.724 70.5031 10.008 70.9271 9.352C71.3591 8.688 71.8791 8.112 72.4871 7.624C73.0951 7.128 73.7551 6.744 74.4671 6.472C75.1791 6.192 75.9031 6.052 76.6391 6.052C77.8951 6.052 78.8711 6.352 79.5671 6.952C80.2711 7.544 80.6231 8.372 80.6231 9.436C80.6231 9.892 80.5631 10.432 80.4431 11.056C80.3311 11.672 80.1711 12.444 79.9631 13.372L78.7271 19H76.1231ZM67.0511 19L69.7631 6.256H72.3671L69.6551 19H67.0511ZM87.2843 24.424C86.6283 24.424 85.9683 24.36 85.3043 24.232C84.6403 24.104 84.0283 23.9 83.4683 23.62C82.9083 23.34 82.4603 22.976 82.1243 22.528C81.7883 22.088 81.6202 21.556 81.6202 20.932C81.6202 20.764 81.6322 20.608 81.6562 20.464C81.6803 20.32 81.7083 20.168 81.7403 20.008H84.3323C84.3163 20.112 84.3003 20.204 84.2843 20.284C84.2763 20.364 84.2723 20.444 84.2723 20.524C84.2723 20.948 84.4123 21.3 84.6923 21.58C84.9803 21.86 85.3643 22.064 85.8443 22.192C86.3243 22.328 86.8563 22.396 87.4403 22.396C88.1203 22.396 88.7563 22.284 89.3483 22.06C89.9483 21.836 90.4643 21.452 90.8963 20.908C91.3363 20.372 91.6563 19.64 91.8563 18.712L94.4963 6.256H97.1003L94.4603 18.712C94.2363 19.792 93.8883 20.696 93.4163 21.424C92.9523 22.16 92.3963 22.748 91.7483 23.188C91.1003 23.628 90.3963 23.944 89.6363 24.136C88.8763 24.328 88.0923 24.424 87.2843 24.424ZM87.9083 19.252C86.9723 19.252 86.1123 19.064 85.3283 18.688C84.5523 18.304 83.9283 17.724 83.4563 16.948C82.9843 16.164 82.7483 15.176 82.7483 13.984C82.7483 12.864 82.9363 11.824 83.3123 10.864C83.6883 9.904 84.2163 9.064 84.8963 8.344C85.5763 7.624 86.3723 7.064 87.2843 6.664C88.2043 6.256 89.2083 6.052 90.2963 6.052C91.1523 6.052 91.9243 6.22 92.6123 6.556C93.3083 6.884 93.8563 7.368 94.2563 8.008C94.6643 8.648 94.8683 9.44 94.8683 10.384C94.8683 10.616 94.8483 10.896 94.8083 11.224C94.7683 11.544 94.7203 11.82 94.6643 12.052L93.2723 12.064C93.3123 11.936 93.3443 11.768 93.3683 11.56C93.3923 11.352 93.4043 11.18 93.4043 11.044C93.4043 10.444 93.2683 9.944 92.9963 9.544C92.7323 9.136 92.3763 8.832 91.9283 8.632C91.4883 8.424 90.9923 8.32 90.4403 8.32C89.6723 8.32 88.9843 8.456 88.3763 8.728C87.7683 9 87.2483 9.38 86.8163 9.868C86.3923 10.356 86.0643 10.932 85.8323 11.596C85.6083 12.252 85.4963 12.96 85.4963 13.72C85.4963 14.472 85.6323 15.088 85.9043 15.568C86.1843 16.048 86.5603 16.4 87.0323 16.624C87.5043 16.848 88.0363 16.96 88.6283 16.96C89.2683 16.96 89.8923 16.82 90.5003 16.54C91.1083 16.252 91.6403 15.832 92.0963 15.28C92.5523 14.728 92.8603 14.06 93.0203 13.276L94.4723 13.384C94.2003 14.672 93.7363 15.752 93.0803 16.624C92.4243 17.496 91.6483 18.152 90.7523 18.592C89.8563 19.032 88.9083 19.252 87.9083 19.252ZM108.773 19.252C108.093 19.252 107.453 19.18 106.853 19.036C106.253 18.892 105.725 18.684 105.269 18.412C104.813 18.132 104.457 17.796 104.201 17.404C103.945 17.012 103.817 16.568 103.817 16.072C103.817 15.912 103.833 15.732 103.865 15.532C103.897 15.332 103.929 15.176 103.961 15.064H106.553C106.537 15.136 106.517 15.232 106.493 15.352C106.477 15.472 106.469 15.568 106.469 15.64C106.469 16.112 106.701 16.472 107.165 16.72C107.637 16.96 108.293 17.08 109.133 17.08C109.661 17.08 110.177 17.024 110.681 16.912C111.193 16.8 111.617 16.612 111.953 16.348C112.297 16.084 112.469 15.72 112.469 15.256C112.469 14.776 112.237 14.42 111.773 14.188C111.309 13.956 110.557 13.756 109.517 13.588C108.757 13.468 108.049 13.284 107.393 13.036C106.745 12.78 106.221 12.428 105.821 11.98C105.429 11.532 105.233 10.952 105.233 10.24C105.233 9.528 105.401 8.908 105.737 8.38C106.081 7.852 106.537 7.416 107.105 7.072C107.681 6.728 108.325 6.472 109.037 6.304C109.757 6.136 110.497 6.052 111.257 6.052C112.105 6.052 112.889 6.184 113.609 6.448C114.337 6.712 114.917 7.088 115.349 7.576C115.789 8.056 116.009 8.628 116.009 9.292C116.009 9.5 115.997 9.676 115.973 9.82C115.957 9.956 115.933 10.08 115.901 10.192H113.321C113.345 10.096 113.361 10.012 113.369 9.94C113.377 9.868 113.381 9.788 113.381 9.7C113.381 9.356 113.269 9.076 113.045 8.86C112.821 8.636 112.525 8.472 112.157 8.368C111.797 8.264 111.405 8.212 110.981 8.212C110.485 8.212 109.993 8.268 109.505 8.38C109.025 8.492 108.625 8.676 108.305 8.932C107.985 9.18 107.825 9.504 107.825 9.904C107.825 10.392 108.073 10.756 108.569 10.996C109.065 11.228 109.761 11.428 110.657 11.596C111.217 11.7 111.757 11.832 112.277 11.992C112.805 12.144 113.277 12.344 113.693 12.592C114.109 12.832 114.437 13.14 114.677 13.516C114.917 13.892 115.037 14.352 115.037 14.896C115.037 15.672 114.861 16.336 114.509 16.888C114.157 17.44 113.681 17.892 113.081 18.244C112.481 18.588 111.809 18.84 111.065 19C110.321 19.168 109.557 19.252 108.773 19.252ZM123.497 19.252C122.345 19.252 121.349 19.032 120.509 18.592C119.677 18.144 119.033 17.524 118.576 16.732C118.129 15.94 117.905 15.02 117.905 13.972C117.905 12.836 118.105 11.784 118.505 10.816C118.913 9.848 119.477 9.012 120.197 8.308C120.925 7.596 121.769 7.044 122.729 6.652C123.689 6.252 124.729 6.052 125.849 6.052C127.009 6.052 128.005 6.276 128.837 6.724C129.677 7.172 130.321 7.792 130.769 8.584C131.217 9.368 131.441 10.272 131.441 11.296C131.441 12.464 131.233 13.536 130.817 14.512C130.409 15.48 129.841 16.32 129.113 17.032C128.385 17.744 127.541 18.292 126.581 18.676C125.621 19.06 124.593 19.252 123.497 19.252ZM123.737 17.056C124.697 17.056 125.557 16.824 126.317 16.36C127.077 15.888 127.681 15.236 128.129 14.404C128.577 13.564 128.801 12.596 128.801 11.5C128.801 10.828 128.677 10.248 128.429 9.76C128.189 9.272 127.833 8.9 127.361 8.644C126.897 8.38 126.317 8.248 125.621 8.248C124.877 8.248 124.197 8.388 123.581 8.668C122.965 8.948 122.429 9.336 121.973 9.832C121.525 10.328 121.177 10.912 120.929 11.584C120.681 12.248 120.557 12.972 120.557 13.756C120.557 14.796 120.825 15.608 121.361 16.192C121.897 16.768 122.689 17.056 123.737 17.056ZM139.223 19.252C138.071 19.252 137.075 19.032 136.235 18.592C135.403 18.144 134.759 17.524 134.303 16.732C133.855 15.94 133.631 15.02 133.631 13.972C133.631 12.836 133.831 11.784 134.231 10.816C134.639 9.848 135.203 9.012 135.923 8.308C136.651 7.596 137.495 7.044 138.455 6.652C139.415 6.252 140.455 6.052 141.575 6.052C142.735 6.052 143.731 6.276 144.563 6.724C145.403 7.172 146.047 7.792 146.495 8.584C146.943 9.368 147.167 10.272 147.167 11.296C147.167 12.464 146.959 13.536 146.543 14.512C146.135 15.48 145.567 16.32 144.839 17.032C144.111 17.744 143.267 18.292 142.307 18.676C141.347 19.06 140.319 19.252 139.223 19.252ZM139.463 17.056C140.423 17.056 141.283 16.824 142.043 16.36C142.803 15.888 143.407 15.236 143.855 14.404C144.303 13.564 144.527 12.596 144.527 11.5C144.527 10.828 144.403 10.248 144.155 9.76C143.915 9.272 143.559 8.9 143.087 8.644C142.623 8.38 142.043 8.248 141.347 8.248C140.603 8.248 139.923 8.388 139.307 8.668C138.691 8.948 138.155 9.336 137.699 9.832C137.251 10.328 136.903 10.912 136.655 11.584C136.407 12.248 136.283 12.972 136.283 13.756C136.283 14.796 136.551 15.608 137.087 16.192C137.623 16.768 138.415 17.056 139.463 17.056ZM157.686 19L158.97 13.12C159.122 12.44 159.234 11.892 159.306 11.476C159.386 11.052 159.426 10.68 159.426 10.36C159.426 9.768 159.222 9.296 158.814 8.944C158.414 8.584 157.79 8.404 156.942 8.404C156.294 8.404 155.67 8.564 155.07 8.884C154.478 9.204 153.97 9.64 153.546 10.192C153.122 10.736 152.834 11.356 152.682 12.052L151.602 11.5C151.77 10.724 152.066 10.008 152.49 9.352C152.922 8.688 153.442 8.112 154.05 7.624C154.658 7.128 155.318 6.744 156.03 6.472C156.742 6.192 157.466 6.052 158.202 6.052C159.458 6.052 160.434 6.352 161.13 6.952C161.834 7.544 162.186 8.372 162.186 9.436C162.186 9.892 162.126 10.432 162.006 11.056C161.894 11.672 161.734 12.444 161.526 13.372L160.29 19H157.686ZM148.614 19L151.326 6.256H153.93L151.218 19H148.614Z" fill="url(#paint0_linear_246_331)"/>
<defs>
<linearGradient id="paint0_linear_246_331" x1="-3" y1="12" x2="164" y2="12" gradientUnits="userSpaceOnUse">
<stop stop-color="#6BB5FF"/>
<stop offset="1" stop-color="#FEC6C6"/>
</linearGradient>
</defs>
</svg>
