<svg width="40" height="40" viewBox="0 0 40 40" fill="none" xmlns="http://www.w3.org/2000/svg">
<path d="M19.561 0C15.7018 0 11.9293 1.14437 8.72057 3.2884C5.51181 5.43242 3.01088 8.47981 1.53405 12.0452C0.0572215 15.6106 -0.329185 19.5338 0.423697 23.3188C1.17658 27.1038 3.03494 30.5806 5.76376 33.3094C8.49259 36.0382 11.9693 37.8966 15.7543 38.6495C19.5393 39.4023 23.4626 39.0159 27.028 37.5391C30.5933 36.0623 33.6407 33.5613 35.7848 30.3526C37.9288 27.1438 39.0732 23.3713 39.0732 19.5122C39.0732 14.3372 37.0174 9.37423 33.3582 5.71499C29.6989 2.05574 24.7359 0 19.561 0V0ZM28.4027 30.1287H10.7193V16.2758C10.7202 13.9311 11.6521 11.6827 13.31 10.0248C14.9679 8.36687 17.2163 7.43503 19.561 7.43407C20.7221 7.43407 21.8718 7.66277 22.9445 8.10711C24.0173 8.55144 24.992 9.20272 25.813 10.0237C26.634 10.8448 27.2853 11.8195 27.7296 12.8922C28.174 13.9649 28.4027 15.1147 28.4027 16.2758V30.1287Z" fill="white"/>
</svg>
