<svg width="24" height="24" viewBox="0 0 24 24" fill="none" xmlns="http://www.w3.org/2000/svg">
<path d="M12 0C12.9673 0 13.909 0.11463 14.8116 0.33138C15.0774 0.39522 15.2875 0.598605 15.3598 0.86223C15.4321 1.12585 15.3553 1.40794 15.1593 1.59847C14.5975 2.14447 14.25 2.90598 14.25 3.75C14.25 5.17983 15.2509 6.37764 16.5912 6.67759C16.9746 6.76341 17.25 7.10398 17.25 7.5C17.25 9.15685 18.5931 10.5 20.25 10.5C21.1484 10.5 21.9537 10.1061 22.5046 9.47904C22.6945 9.26293 22.9912 9.17446 23.2684 9.25134C23.5456 9.3282 23.7545 9.55684 23.8059 9.83988C23.9336 10.5411 24 11.2631 24 12C24 18.6274 18.6274 24 12 24C5.37258 24 0 18.6274 0 12C0 5.37258 5.37258 0 12 0ZM12 1.5C6.20101 1.5 1.5 6.20101 1.5 12C1.5 17.799 6.20101 22.5 12 22.5C17.799 22.5 22.5 17.799 22.5 12C22.5 11.801 22.4945 11.6034 22.4835 11.4072C21.8255 11.7842 21.0627 12 20.25 12C17.9349 12 16.0281 10.2518 15.7777 8.00344C14.0157 7.39353 12.75 5.72032 12.75 3.75C12.75 2.96355 12.9521 2.22383 13.3067 1.58045C12.8789 1.52736 12.4428 1.5 12 1.5ZM15 16.5C15.8284 16.5 16.5 17.1715 16.5 18C16.5 18.8284 15.8284 19.5 15 19.5C14.1716 19.5 13.5 18.8284 13.5 18C13.5 17.1715 14.1716 16.5 15 16.5ZM7.5 15C8.32842 15 9 15.6716 9 16.5C9 17.3284 8.32842 18 7.5 18C6.67158 18 6 17.3284 6 16.5C6 15.6716 6.67158 15 7.5 15ZM12 10.5C12.8284 10.5 13.5 11.1716 13.5 12C13.5 12.8284 12.8284 13.5 12 13.5C11.1716 13.5 10.5 12.8284 10.5 12C10.5 11.1716 11.1716 10.5 12 10.5ZM6 7.5C6.82842 7.5 7.5 8.17158 7.5 9C7.5 9.82842 6.82842 10.5 6 10.5C5.17158 10.5 4.5 9.82842 4.5 9C4.5 8.17158 5.17158 7.5 6 7.5Z" fill="#FEC6C6"/>
</svg>
