<svg width="48" height="34" viewBox="0 0 48 34" fill="none" xmlns="http://www.w3.org/2000/svg">
<path d="M12.24 14.688C15.024 14.688 17.256 15.504 18.936 17.136C20.616 18.72 21.456 20.904 21.456 23.688C21.456 26.376 20.544 28.632 18.72 30.456C16.896 32.232 14.28 33.12 10.872 33.12C7.368 33.12 4.68 31.944 2.808 29.592C0.936 27.24 0 24.24 0 20.592C0 17.088 0.84 13.992 2.52 11.304C4.2 8.568 6.336 6.26401 8.928 4.39201C11.52 2.52001 14.136 1.056 16.776 0L18.72 4.104C16.896 4.77601 15.096 5.76001 13.32 7.056C11.592 8.352 10.152 9.84 9 11.52C7.848 13.152 7.248 14.808 7.2 16.488C7.392 16.104 7.944 15.72 8.856 15.336C9.768 14.904 10.896 14.688 12.24 14.688ZM38.592 14.688C41.376 14.688 43.608 15.504 45.288 17.136C46.968 18.72 47.808 20.904 47.808 23.688C47.808 26.376 46.896 28.632 45.072 30.456C43.248 32.232 40.632 33.12 37.224 33.12C33.72 33.12 31.032 31.944 29.16 29.592C27.288 27.24 26.352 24.24 26.352 20.592C26.352 17.088 27.192 13.992 28.872 11.304C30.552 8.568 32.688 6.26401 35.28 4.39201C37.872 2.52001 40.488 1.056 43.128 0L45.072 4.104C43.248 4.77601 41.448 5.76001 39.672 7.056C37.944 8.352 36.504 9.84 35.352 11.52C34.2 13.152 33.6 14.808 33.552 16.488C33.744 16.104 34.296 15.72 35.208 15.336C36.12 14.904 37.248 14.688 38.592 14.688Z" fill="#FEC6C6"/>
</svg>
