<svg width="219" height="86" viewBox="0 0 219 86" fill="none" xmlns="http://www.w3.org/2000/svg">
<path fill-rule="evenodd" clip-rule="evenodd" d="M27.1805 17.7806L36.9336 17.8825H37.0406C37.1205 17.8681 37.2029 17.8762 37.2785 17.9059C37.3541 17.9356 37.4199 17.9857 37.4687 18.0506C38.4165 19.4876 39.3694 20.9195 40.3885 22.4533L36.2661 22.2546L33.3411 22.0762C33.1832 22.0762 32.9844 22.0355 32.9131 22.2036C32.8418 22.3718 33.0762 22.4482 33.1832 22.5348C35.8992 24.8279 37.9324 27.5694 38.7579 31.1109C39.0957 32.7546 39.1182 34.4475 38.8241 36.0996C38.8241 36.2423 38.7783 36.39 38.7528 36.5327L50.6818 40.4615L51.5583 40.752L52.0271 40.9048L26.1002 85.4667L0 40.8997L13.6106 36.4512C13.6106 36.4155 13.6106 36.3798 13.5851 36.3442C12.7189 30.9478 13.3609 25.9184 17.2591 21.7705C19.9395 18.9169 23.3281 17.7398 27.1805 17.7806ZM25.6263 52.6045L1.04462 41.4908L25.8556 83.7851L25.6263 52.6045ZM38.656 37.2716C37.4279 42.0819 33.5246 46.5661 27.2977 46.9127C25.7257 47.0146 24.1473 46.8928 22.6096 46.5509C17.9369 45.4604 14.803 41.4144 13.7839 37.1595L1.4268 41.0577L25.9779 51.7587L41.0407 45.282L50.957 41.18L38.656 37.2716ZM26.1002 33.1186L18.8184 35.5187C19.435 38.2347 20.6376 40.8743 22.7421 42.7342C25.1677 44.8795 27.8735 44.7725 30.1309 42.4233C31.9296 40.5736 32.8825 38.041 33.4227 35.5543L26.1002 33.1186ZM22.7931 23.3858C21.8715 24.1613 21.0891 25.0884 20.4796 26.1273C18.875 28.7124 18.2159 31.7736 18.6146 34.79L26.1002 32.3441L33.5756 34.8053C33.5756 34.6932 33.5756 34.5964 33.6112 34.525C33.7696 33.3046 33.7231 32.0663 33.4736 30.8612C33.0477 28.211 31.8433 25.7473 30.0137 23.7833C29.567 23.281 29.0253 22.8721 28.4199 22.5801C27.8145 22.288 27.1572 22.1187 26.4861 22.0817C25.8149 22.0448 25.1431 22.141 24.5093 22.3648C23.8755 22.5886 23.2922 22.9356 22.7931 23.3858ZM26.4263 0.261544C28.5631 3.48202 31.9245 8.50299 36.5107 15.3244L32.3526 13.2148L32.1793 13.1282L28.806 11.4364C28.0722 11.0746 27.3333 10.7179 26.625 10.3103C26.4848 10.2215 26.3222 10.1743 26.1562 10.1743C25.9902 10.1743 25.8277 10.2215 25.6874 10.3103L15.3788 15.3193L22.3344 5.32667L23.7409 3.28839L25.8403 0.287022C26.0492 -0.0238152 26.146 -0.161399 26.4263 0.287022V0.261544Z" fill="white"/>
<path d="M65.9384 54.3473V51.7638L68.1652 51.0198V36.9098L65.9384 36.0181V33.5517L72.7717 33.404H75.5947C78.6046 33.404 80.9316 34.2753 82.5758 36.0181C84.22 37.7608 85.0421 40.2866 85.0421 43.5954C85.0421 46.9245 84.1504 49.5471 82.3669 51.4631C80.5834 53.3791 78.1765 54.3405 75.1463 54.3473H65.9384ZM72.7717 36.9098V50.872H75.238C75.9222 50.9092 76.6051 50.7781 77.2269 50.4903C77.8487 50.2025 78.3905 49.7667 78.805 49.221C79.6407 48.1271 80.0568 46.3012 80.0534 43.7431C80.0534 41.3278 79.6628 39.585 78.8814 38.5149C78.4881 37.9836 77.9686 37.5586 77.3699 37.2784C76.7711 36.9982 76.112 36.8715 75.452 36.9098H72.7717Z" fill="white"/>
<path d="M101.649 47.2184L91.7837 47.305C91.7927 48.3554 92.1777 49.3678 92.8691 50.1586C93.1874 50.4939 93.5731 50.7581 94.0008 50.9338C94.4285 51.1094 94.8886 51.1926 95.3507 51.1777C96.1438 51.1696 96.9322 51.0548 97.6947 50.8363C98.3613 50.6724 99.0087 50.4384 99.626 50.1382L100.339 49.7815L101.618 52.1612C101.399 52.3396 101.109 52.5638 100.696 52.844C99.9431 53.2917 99.1477 53.6638 98.3215 53.9549C97.2158 54.4052 96.0349 54.642 94.8411 54.653C92.3273 54.653 90.4113 53.9549 89.0932 52.5587C87.7751 51.1624 87.1228 49.1836 87.1364 46.6222C87.1364 43.9894 87.8396 41.8951 89.2461 40.3392C90.6525 38.7833 92.5922 38.0071 95.0653 38.0104C97.2463 38.0104 98.9194 38.6338 100.085 39.8806C101.25 41.1273 101.836 42.8259 101.843 44.9763L101.649 47.2184ZM94.78 41.4857C94.4099 41.4721 94.0412 41.5394 93.6998 41.6829C93.3583 41.8263 93.0522 42.0425 92.8029 42.3163C92.2678 42.9434 91.9418 43.7219 91.8703 44.5431H97.2157C97.1987 42.5049 96.3868 41.4857 94.78 41.4857Z" fill="white"/>
<path d="M107.438 47.8961L107.886 50.393C108.791 50.8325 109.79 51.0458 110.796 51.0147C111.688 51.0425 112.57 50.822 113.344 50.3777C113.658 50.2031 113.919 49.9463 114.098 49.6348C114.278 49.3234 114.369 48.9689 114.363 48.6095C114.359 48.3368 114.291 48.0688 114.164 47.8272C114.037 47.5856 113.856 47.3771 113.634 47.2184C113.082 46.7923 112.452 46.4789 111.779 46.2961C110.957 46.0492 110.149 45.7566 109.359 45.4196C108.528 45.0741 107.72 44.6775 106.938 44.2323C106.163 43.7738 105.523 43.118 105.084 42.3316C104.569 41.4224 104.312 40.39 104.34 39.3455C104.294 38.4601 104.46 37.5765 104.824 36.7682C105.188 35.9599 105.74 35.2503 106.434 34.6982C107.83 33.5976 109.648 33.0472 111.886 33.0472C112.933 33.0536 113.976 33.1542 115.005 33.3479C115.858 33.4862 116.701 33.6837 117.527 33.939L118.419 34.2345L118.271 39.6411H115.54L114.796 37.0932C113.955 36.8021 113.072 36.6506 112.182 36.6448C111.361 36.5936 110.544 36.8022 109.848 37.241C109.595 37.4069 109.387 37.6339 109.245 37.9011C109.102 38.1682 109.029 38.4669 109.033 38.7697C109.038 39.0445 109.108 39.3142 109.238 39.5568C109.367 39.7994 109.552 40.0081 109.777 40.1659C110.33 40.5932 110.959 40.9114 111.631 41.1035C112.375 41.3345 113.177 41.6267 114.037 41.98C114.86 42.3186 115.663 42.7048 116.442 43.1367C117.212 43.579 117.853 44.2149 118.302 44.9814C118.809 45.8435 119.065 46.8301 119.041 47.8299C119.088 48.7906 118.91 49.7491 118.521 50.6286C118.132 51.5082 117.542 52.2843 116.799 52.895C115.307 54.1112 113.381 54.7209 111.02 54.7243C109.08 54.6841 107.153 54.3947 105.287 53.8632L104.396 53.5931V47.8961H107.438Z" fill="white"/>
<path d="M134.083 49.593L135.571 52.1408C133.832 53.7511 131.552 54.6511 129.181 54.6632C126.745 54.6632 124.85 53.9515 123.494 52.5281C122.139 51.1047 121.459 49.1242 121.456 46.5865C121.456 43.9334 122.173 41.8441 123.606 40.3188C125.04 38.7935 127.046 38.0309 129.624 38.0309C130.442 38.0365 131.258 38.1201 132.06 38.2805C132.751 38.4001 133.432 38.5704 134.098 38.7901L134.812 39.0602L134.664 43.9011H131.989L131.576 41.7609C130.91 41.5937 130.225 41.5149 129.538 41.5265C129.056 41.5024 128.576 41.5902 128.134 41.7829C127.692 41.9757 127.3 42.2681 126.99 42.6374C126.389 43.3813 126.083 44.4973 126.083 45.9801C126.083 47.6617 126.399 48.9509 127.021 49.8427C127.331 50.2834 127.75 50.6374 128.236 50.8711C128.722 51.1047 129.259 51.2103 129.798 51.1778C130.177 51.1785 130.556 51.1444 130.929 51.0758C131.278 51.0044 131.619 50.9003 131.948 50.765C132.284 50.6223 132.544 50.5051 132.733 50.4083C132.921 50.3115 133.181 50.1586 133.507 49.9599C133.834 49.7612 134.017 49.6338 134.083 49.593Z" fill="white"/>
<path d="M136.906 38.5455L143.648 38.306V51.2287L145.737 51.9727V54.3473H136.906V51.9727L139.286 51.2287V41.5163L136.906 40.9201V38.5455ZM138.72 33.404C138.704 33.0449 138.762 32.6863 138.892 32.3511C139.022 32.0159 139.22 31.7116 139.474 31.4574C139.711 31.2239 139.993 31.0397 140.301 30.9155C140.61 30.7913 140.94 30.7295 141.273 30.7338C142.939 30.7338 143.77 31.6205 143.77 33.404C143.788 33.7682 143.73 34.1322 143.599 34.4727C143.468 34.8132 143.268 35.1226 143.011 35.3811C142.784 35.6114 142.513 35.7944 142.215 35.9195C141.917 36.0446 141.597 36.1092 141.273 36.1098C140.928 36.1308 140.582 36.0795 140.257 35.9593C139.932 35.8391 139.636 35.6526 139.388 35.4117C138.912 34.8551 138.672 34.1346 138.72 33.404Z" fill="white"/>
<path d="M161.264 36.9098V50.872H165.809L166.461 47.5139H169.284V54.3473H154.43V51.7638L156.662 51.0198V36.9098L154.43 36.0181V33.5517L163.49 33.404V36.0181L161.264 36.9098Z" fill="white"/>
<path d="M186.457 54.1383L180.571 54.3472L180.062 52.416C179.883 52.5739 179.644 52.7778 179.348 53.0275C178.812 53.4216 178.238 53.7629 177.636 54.0466C176.899 54.4368 176.08 54.6497 175.246 54.6683C174.628 54.7044 174.01 54.6151 173.427 54.4058C172.845 54.1965 172.311 53.8715 171.858 53.4504C171.434 52.9874 171.108 52.4436 170.9 51.8517C170.691 51.2598 170.605 50.6319 170.645 50.0057C170.645 46.7411 173.023 45.107 177.779 45.1036H179.858V43.4425C179.858 41.9579 179.095 41.2156 177.57 41.2156C177.122 41.2147 176.675 41.2557 176.235 41.3379C175.901 41.3906 175.573 41.469 175.251 41.5723L174.956 41.6641L174.507 43.5953H171.837L171.628 39.1977C173.701 38.4648 175.876 38.0641 178.074 38.0104C180.33 38.0104 181.925 38.4504 182.859 39.3302C183.787 40.2118 184.255 41.7303 184.255 43.9164V51.2542L186.482 51.7637L186.457 54.1383ZM174.9 49.5522C174.9 50.7412 175.484 51.334 176.653 51.3306C177.18 51.3159 177.695 51.1687 178.151 50.9026C178.597 50.6639 179.007 50.3637 179.369 50.0108L179.817 49.593V47.6056H178.12C177.269 47.5446 176.416 47.7025 175.644 48.0642C175.398 48.219 175.198 48.4378 175.067 48.6973C174.936 48.9567 174.878 49.247 174.9 49.5369V49.5522Z" fill="white"/>
<path d="M186.813 31.5899L193.407 31.3504V39.5851C194.606 38.5963 196.103 38.0414 197.657 38.0105C199.634 38.0105 201.142 38.6899 202.182 40.0488C203.227 41.4144 203.741 43.3559 203.741 45.8731C203.741 48.703 203.009 50.8805 201.545 52.4058C200.081 53.9311 197.942 54.6938 195.13 54.6938C194.137 54.6918 193.145 54.6374 192.159 54.5307C191.14 54.4186 190.375 54.3167 189.84 54.2199L189.04 54.0415V34.5352L186.813 33.939V31.5899ZM193.407 42.8514V51.0045C194.123 51.1955 194.863 51.2763 195.603 51.244C197.961 51.244 199.14 49.5607 199.14 46.1942C199.14 43.0858 198.17 41.5316 196.23 41.5316C195.711 41.5268 195.197 41.6383 194.727 41.8577C194.346 42.0176 194 42.2495 193.708 42.5406L193.407 42.8514Z" fill="white"/>
<path d="M208.735 49.1497L208.969 51.2287C209.765 51.4445 210.587 51.544 211.41 51.5243C212.97 51.5243 213.754 50.9892 213.754 49.9191C213.738 49.67 213.656 49.4297 213.515 49.2234C213.374 49.0172 213.181 48.8527 212.954 48.7471C212.337 48.385 211.679 48.0992 210.992 47.8961C210.218 47.6566 209.464 47.3866 208.674 47.0503C207.902 46.7248 207.227 46.2073 206.712 45.547C206.168 44.8444 205.885 43.9742 205.912 43.0858C205.912 41.3431 206.496 40.0607 207.665 39.2386C208.955 38.3787 210.483 37.9472 212.032 38.0054C212.886 38.0113 213.738 38.0846 214.58 38.2245C215.502 38.3723 216.231 38.5201 216.766 38.6576L217.535 38.8971C217.495 39.8857 217.459 41.3686 217.418 43.3508H214.804L214.356 41.4195C213.727 41.2033 213.064 41.1032 212.399 41.124C211.882 41.0946 211.37 41.2361 210.942 41.5265C210.775 41.6587 210.644 41.8294 210.559 42.0239C210.473 42.2183 210.437 42.4307 210.452 42.6425C210.468 42.8918 210.552 43.132 210.696 43.3362C210.84 43.5404 211.038 43.7007 211.268 43.7992C211.888 44.1502 212.546 44.4305 213.23 44.6349C213.994 44.8693 214.758 45.1445 215.533 45.4502C216.294 45.7531 216.965 46.244 217.484 46.877C218.038 47.5539 218.328 48.4083 218.3 49.2822C218.334 50.0394 218.184 50.7936 217.86 51.4792C217.537 52.1648 217.051 52.761 216.445 53.216C215.208 54.1571 213.549 54.6276 211.466 54.6276C210.593 54.624 209.72 54.5696 208.852 54.4645C207.94 54.3575 207.237 54.2556 206.743 54.1537L206.004 53.9753V49.1344L208.735 49.1497Z" fill="white"/>
</svg>
