<svg width="227" height="45" viewBox="0 0 227 45" fill="none" xmlns="http://www.w3.org/2000/svg">
<path d="M106.691 9.95045C106.688 7.93527 106.074 5.96848 104.928 4.3104C103.783 2.65232 102.161 1.38114 100.277 0.665085C98.3938 -0.0509655 96.3371 -0.178115 94.3796 0.300465C92.422 0.779045 90.656 1.84079 89.3152 3.34517C72.7738 -0.310011 63.2704 6.28662 55.1727 14.4751C54.1259 13.571 53.0921 12.7102 52.0583 11.9316C44.2894 6.05736 28.6651 -4.39343 13.1836 2.00422C-2.29796 8.40187 -1.80051 24.7442 2.87985 28.8666C3.10911 29.0699 3.31242 29.191 3.49842 29.3467C2.96077 30.6429 2.66746 32.0273 2.63329 33.4301C2.62515 35.5742 3.30988 37.6635 4.58548 39.3869C5.86108 41.1103 7.65928 42.3754 9.71223 42.994C11.7652 43.6125 13.963 43.5512 15.9783 42.8193C17.9936 42.0874 19.7186 40.7241 20.8962 38.9324C21.225 38.9324 21.5537 38.9583 21.8781 38.9583C33.1897 38.9324 40.6342 33.3696 47.1486 26.7946C51.5176 30.7569 55.9341 34.8879 59.6931 37.8466C67.8556 44.2443 90.734 51.7536 99.74 30.8866C99.74 30.8866 102.028 24.9778 101.28 18.7748C102.905 17.9421 104.269 16.6783 105.224 15.1218C106.178 13.5654 106.686 11.7763 106.691 9.95045ZM22.1204 36.3024C22.5683 34.817 22.6626 33.2475 22.3958 31.7192C22.129 30.1909 21.5085 28.7462 20.5839 27.5005C19.6592 26.2547 18.4561 25.2425 17.0705 24.5446C15.6849 23.8467 14.1553 23.4825 12.6039 23.4811C11.0399 23.5094 9.50321 23.8961 8.11211 24.6116C6.72101 25.327 5.51259 26.352 4.57984 27.6078C4.50197 27.4304 0.124408 20.2542 8.73247 13.2769C15.8871 7.47185 29.7552 13.013 35.3223 17.0662C38.1902 19.1468 41.707 21.9109 45.2237 25.0513C39.038 31.2803 32.2987 36.2245 22.1204 36.3024ZM82.7358 30.5536C71.1128 29.0785 63.7029 22.058 57.1323 16.201C64.7151 8.55326 73.1372 2.79149 87.7666 5.68103C87.0403 7.19614 86.7105 8.8708 86.808 10.5481C86.9055 12.2255 87.4271 13.8507 88.324 15.2714C89.2209 16.6922 90.4637 17.8621 91.9361 18.6715C93.4084 19.481 95.0621 19.9035 96.7423 19.8995C97.3428 19.8757 97.9411 19.8121 98.5331 19.7091C98.1914 23.0485 95.8296 32.2146 82.7358 30.5536Z" fill="white"/>
<path d="M118.401 19.0343V17.3906L119.815 16.9148V7.94769L118.401 7.38102V5.81513L122.726 5.71997H124.522C126.434 5.71997 127.917 6.27365 128.96 7.38102C130.002 8.48839 130.53 10.0975 130.53 12.1998C130.53 14.3021 129.985 16.0064 128.852 17.2089C127.718 18.4115 126.187 19.0343 124.258 19.0343H118.401ZM122.726 7.93903V16.8326H124.292C124.727 16.8556 125.161 16.7719 125.556 16.5886C125.951 16.4054 126.296 16.1283 126.559 15.7815C127.092 15.0865 127.358 13.9243 127.355 12.295C127.355 10.7594 127.104 9.64767 126.607 8.96854C126.358 8.63353 126.03 8.36508 125.653 8.187C125.276 8.00892 124.86 7.92672 124.444 7.94769L122.726 7.93903Z" fill="white"/>
<path d="M141.115 14.5054L134.843 14.5616C134.845 15.2303 135.09 15.8756 135.53 16.3784C135.735 16.5919 135.983 16.7594 136.257 16.8698C136.532 16.9802 136.827 17.0309 137.122 17.0186C137.627 17.0147 138.129 16.9419 138.615 16.8023C139.038 16.701 139.45 16.556 139.843 16.3697L140.297 16.1448L141.11 17.6545C140.968 17.7713 140.773 17.914 140.522 18.087C140.043 18.3724 139.538 18.6101 139.013 18.7964C138.308 19.0775 137.557 19.2242 136.798 19.229C135.202 19.229 133.982 18.7964 133.143 17.8967C132.303 16.997 131.888 15.7339 131.888 14.1291C131.888 12.5242 132.321 11.1227 133.229 10.1321C133.701 9.63409 134.275 9.24402 134.912 8.98867C135.549 8.73331 136.234 8.61873 136.919 8.65277C138.303 8.65277 139.367 9.04929 140.111 9.84233C140.893 10.7398 141.293 11.9069 141.227 13.0952L141.115 14.5054ZM136.729 10.8589C136.494 10.8507 136.26 10.8937 136.043 10.9848C135.827 11.0759 135.633 11.213 135.474 11.3866C135.134 11.7868 134.925 12.2823 134.877 12.8054H138.282C138.282 11.5077 137.764 10.8589 136.729 10.8589Z" fill="white"/>
<path d="M144.8 14.9423L145.081 16.5298C145.658 16.8088 146.293 16.9439 146.933 16.9234C147.502 16.9437 148.066 16.8027 148.559 16.5168C148.764 16.4102 148.935 16.2492 149.054 16.0515C149.173 15.8539 149.236 15.6272 149.234 15.3965C149.231 15.2213 149.187 15.0493 149.105 14.8944C149.023 14.7395 148.906 14.6062 148.763 14.5054C148.41 14.2363 148.009 14.0379 147.582 13.9214C147.058 13.7652 146.544 13.5789 146.042 13.3634C145.504 13.1452 144.981 12.8924 144.476 12.6064C143.981 12.3171 143.573 11.9003 143.295 11.3996C142.976 10.8249 142.816 10.1752 142.832 9.5179C142.803 8.95439 142.909 8.39216 143.141 7.87768C143.373 7.3632 143.723 6.91124 144.164 6.55915C145.164 5.8248 146.385 5.45396 147.625 5.50801C148.291 5.51221 148.956 5.5759 149.61 5.69834C150.153 5.78996 150.689 5.91565 151.215 6.07467L151.782 6.265L151.687 9.72553H149.956L149.485 8.12071C148.951 7.93569 148.389 7.83926 147.824 7.83522C147.301 7.80136 146.782 7.93469 146.34 8.21587C146.18 8.32028 146.048 8.46333 145.957 8.63188C145.867 8.80044 145.82 8.98909 145.821 9.1805C145.825 9.35493 145.869 9.5261 145.951 9.68015C146.033 9.83421 146.15 9.96681 146.293 10.0673C146.645 10.3376 147.046 10.5387 147.474 10.6599C147.944 10.8069 148.454 10.9929 149.005 11.2179C149.526 11.4241 150.036 11.658 150.532 11.9186C151.021 12.1994 151.428 12.6036 151.713 13.0909C152.033 13.6402 152.197 14.2673 152.184 14.9033C152.214 15.5146 152.1 16.1243 151.852 16.6838C151.604 17.2433 151.229 17.7371 150.757 18.126C149.707 18.9351 148.404 19.3472 147.08 19.2896C146.408 19.2857 145.738 19.2249 145.077 19.1079C144.522 19.0218 143.973 18.899 143.433 18.7402L142.867 18.5672V14.9423H144.8Z" fill="white"/>
<path d="M161.748 16.0064L162.696 17.6112C161.59 18.636 160.141 19.2087 158.634 19.216C157.079 19.216 155.873 18.7633 155.013 17.8578C154.148 16.9494 153.715 15.6949 153.715 14.0771C153.715 12.3901 154.171 11.0607 155.082 10.0889C155.994 9.11704 157.271 8.63833 158.915 8.65275C159.435 8.65616 159.954 8.70976 160.463 8.8128C160.904 8.89102 161.338 9.00237 161.761 9.14588L162.194 9.31458L162.103 12.3944H160.399L160.135 11.0319C159.71 10.9263 159.274 10.8768 158.837 10.8848C158.528 10.8673 158.22 10.9218 157.936 11.0442C157.652 11.1666 157.401 11.3534 157.202 11.5899C156.774 12.2131 156.571 12.9639 156.627 13.7181C156.573 14.578 156.78 15.434 157.219 16.1751C157.416 16.4582 157.682 16.6864 157.991 16.8378C158.301 16.9893 158.644 17.0589 158.988 17.0402C159.229 17.0411 159.47 17.0193 159.706 16.9753C159.933 16.9322 160.155 16.8655 160.368 16.7763C160.58 16.6898 160.749 16.612 160.866 16.5514C160.983 16.4908 161.151 16.3914 161.359 16.2659C161.567 16.1405 161.714 16.0453 161.748 16.0064Z" fill="white"/>
<path d="M163.543 8.99017L167.834 8.83877V17.0575L169.158 17.529V19.0344H163.535V17.5204L165.049 17.0489V10.8805L163.535 10.4998L163.543 8.99017ZM164.698 5.71997C164.688 5.49169 164.725 5.2637 164.808 5.05065C164.89 4.8376 165.017 4.64419 165.178 4.48283C165.328 4.33367 165.507 4.21591 165.703 4.13643C165.899 4.05696 166.109 4.01738 166.32 4.01999C167.379 4.01999 167.908 4.58665 167.908 5.71997C167.92 5.951 167.883 6.18198 167.801 6.39804C167.718 6.61409 167.591 6.81043 167.428 6.97441C167.284 7.12196 167.111 7.23898 166.921 7.3185C166.731 7.39802 166.527 7.43841 166.32 7.43726C166.102 7.45154 165.882 7.4205 165.676 7.34606C165.47 7.27163 165.281 7.15541 165.122 7.00469C164.818 6.64835 164.666 6.18717 164.698 5.71997Z" fill="white"/>
<path d="M124.353 38.742V40.3858H118.267V38.742C118.582 38.6296 119.054 38.4738 119.686 38.2705V29.2948L118.267 28.7281V27.1579L122.592 27.0627H127.883V30.653H126.126L125.655 29.2948H122.592V32.6385H126.485V34.7192H122.592V38.2705L124.353 38.742Z" fill="white"/>
<path d="M134.142 29.9912C135.665 29.9912 136.84 30.4353 137.667 31.3235C138.489 32.2146 138.904 33.4864 138.904 35.0955C138.904 36.7047 138.446 38.1235 137.533 39.1011C137.062 39.5966 136.49 39.9849 135.856 40.2394C135.221 40.494 134.539 40.6088 133.856 40.5761C130.647 40.5761 129.04 38.8459 129.038 35.3853C129.038 33.6983 129.498 32.379 130.417 31.4274C130.904 30.9423 131.487 30.564 132.128 30.3167C132.77 30.0695 133.455 29.9586 134.142 29.9912ZM134.047 32.1541C133.744 32.1331 133.441 32.1883 133.165 32.3144C132.89 32.4406 132.65 32.6338 132.468 32.8764C132.136 33.3436 131.97 34.1511 131.97 35.2988C131.912 36.117 132.075 36.9359 132.442 37.6693C132.604 37.9172 132.829 38.117 133.095 38.2479C133.36 38.3788 133.656 38.4359 133.952 38.4133C134.248 38.4327 134.545 38.3753 134.814 38.2465C135.082 38.1176 135.312 37.9218 135.483 37.6779C135.812 37.1906 135.976 36.3658 135.976 35.2036C136.027 34.4161 135.867 33.6292 135.513 32.924C135.36 32.6769 135.143 32.4759 134.885 32.3426C134.626 32.2093 134.337 32.1486 134.047 32.167V32.1541Z" fill="white"/>
<path d="M141.245 37.2021V32.1843L139.869 31.8469V30.3329L144.043 30.1815V36.67C144.015 37.0678 144.1 37.4654 144.29 37.8163C144.382 37.9431 144.505 38.0436 144.648 38.1081C144.79 38.1726 144.947 38.1988 145.103 38.184C145.479 38.1775 145.849 38.0905 146.189 37.9288C146.5 37.7979 146.792 37.6231 147.054 37.4097L147.335 37.1459V32.1843L145.938 31.8469V30.3329L150.112 30.1815V38.4003L151.548 38.781V40.256L147.694 40.3858L147.504 39.0621L147.322 39.2265C147.24 39.2914 147.08 39.4168 146.842 39.5942C146.606 39.7642 146.359 39.9188 146.102 40.057C145.808 40.2043 145.501 40.3245 145.185 40.4161C144.851 40.5176 144.505 40.5715 144.156 40.5761C143.751 40.6016 143.346 40.5345 142.971 40.3801C142.597 40.2257 142.262 39.988 141.993 39.685C141.457 38.9723 141.192 38.0923 141.245 37.2021Z" fill="white"/>
<path d="M152.604 30.333L156.497 30.1816L156.631 31.4792C156.807 31.3346 156.99 31.1988 157.18 31.0726C157.58 30.8229 157.999 30.6073 158.435 30.4281C158.958 30.1767 159.528 30.0382 160.109 30.0215C160.506 29.9973 160.903 30.0669 161.268 30.2248C161.634 30.3826 161.957 30.6241 162.211 30.9299C162.73 31.6436 162.987 32.5145 162.938 33.3955V38.4003C163.098 38.4522 163.331 38.5344 163.634 38.6469L164.257 38.8761V40.3858H159.183V38.8761L160.182 38.4003V33.8281C160.197 33.4368 160.075 33.0527 159.836 32.7423C159.724 32.602 159.581 32.4898 159.418 32.4147C159.255 32.3396 159.077 32.3037 158.898 32.3098C158.537 32.3121 158.183 32.4059 157.868 32.5823C157.593 32.7222 157.342 32.9047 157.124 33.123L156.878 33.3869V38.4003L157.859 38.8761V40.3858H152.625V38.8761L154.079 38.4003V32.2233L152.625 31.8469L152.604 30.333Z" fill="white"/>
<path d="M176.17 40.256L172.199 40.3858L172.03 39.3865C171.661 39.7693 171.217 40.0724 170.726 40.277C170.235 40.4816 169.707 40.5834 169.175 40.5761C168.619 40.6138 168.061 40.5126 167.553 40.2816C167.045 40.0506 166.602 39.6969 166.264 39.2524C165.624 38.37 165.304 37.1285 165.304 35.528C165.304 33.743 165.754 32.3732 166.654 31.4187C167.553 30.4641 168.886 29.9883 170.65 29.9912C171.067 29.9921 171.481 30.0562 171.879 30.1815V27.7808L170.365 27.4045V25.8905L174.656 25.7434V38.3657L176.17 38.742V40.256ZM171.879 37.2886V32.4439C171.419 32.2267 170.911 32.1299 170.404 32.1627C168.962 32.1627 168.241 33.2326 168.241 35.3723C168.241 37.3665 168.842 38.3614 170.054 38.3614C170.404 38.3621 170.748 38.2663 171.048 38.0845C171.299 37.9516 171.52 37.7691 171.697 37.5481L171.879 37.2886Z" fill="white"/>
<path d="M187.3 40.256L183.558 40.3858L183.221 39.1573L182.788 39.5466C182.44 39.7935 182.067 40.0051 181.677 40.1782C181.206 40.426 180.685 40.5622 180.154 40.5761C179.76 40.6005 179.365 40.5445 178.993 40.4113C178.621 40.2782 178.28 40.0709 177.991 39.8018C177.722 39.5068 177.514 39.1607 177.381 38.7839C177.248 38.4072 177.192 38.0075 177.217 37.6087C177.217 35.5266 178.728 34.487 181.75 34.4899H183.074V33.4518C183.074 32.5059 182.589 32.033 181.62 32.033C181.33 32.0317 181.04 32.0578 180.755 32.1108C180.543 32.1428 180.335 32.1935 180.132 32.2622L179.942 32.3184L179.661 33.5469H177.956L177.827 30.7482C179.145 30.2819 180.529 30.0265 181.927 29.9912C183.369 29.9912 184.379 30.2796 184.955 30.8564C185.532 31.4331 185.835 32.3949 185.864 33.7416V38.4003L187.278 38.742L187.3 40.256ZM179.946 37.3276C179.923 37.4801 179.936 37.6359 179.984 37.7826C180.032 37.9293 180.113 38.0629 180.221 38.1729C180.33 38.2828 180.462 38.366 180.608 38.416C180.754 38.466 180.909 38.4814 181.062 38.4609C181.398 38.45 181.725 38.3548 182.014 38.184C182.295 38.037 182.554 37.8522 182.784 37.6347L183.065 37.3708V36.0947H181.988C181.445 36.0566 180.902 36.1579 180.409 36.3889C180.254 36.4883 180.129 36.6283 180.047 36.7938C179.965 36.9592 179.931 37.1438 179.946 37.3276Z" fill="white"/>
<path d="M192.512 40.5761C191.47 40.5761 190.747 40.2387 190.349 39.5639C189.951 38.8891 189.765 37.7168 189.765 36.0385V32.5044H188.009V30.7136L189.765 30.4714V27.876L192.543 27.3655V30.4843H195.19V32.5217H192.543V36.7695C192.511 37.2207 192.582 37.6732 192.75 38.0932C192.834 38.2246 192.953 38.3296 193.094 38.3962C193.235 38.4628 193.391 38.4882 193.546 38.4695C194.071 38.4488 194.584 38.3004 195.038 38.0369L195.718 39.3995C194.798 40.116 193.677 40.5273 192.512 40.5761Z" fill="white"/>
<path d="M196.613 30.333L200.904 30.1816V38.4003L202.228 38.8761V40.3858H196.604V38.8761L198.118 38.4003V32.2233L196.604 31.8469L196.613 30.333ZM197.768 27.0628C197.758 26.8345 197.795 26.6066 197.878 26.3936C197.96 26.1806 198.086 25.9871 198.248 25.8256C198.401 25.674 198.583 25.5549 198.783 25.4753C198.982 25.3958 199.196 25.3575 199.412 25.3628C200.473 25.3628 201.002 25.9294 200.999 27.0628C201.011 27.2945 200.975 27.5262 200.892 27.743C200.81 27.9598 200.682 28.1569 200.519 28.3215C200.374 28.4683 200.202 28.5848 200.012 28.6643C199.822 28.7437 199.618 28.7846 199.412 28.7844C199.193 28.7997 198.973 28.7692 198.767 28.6947C198.56 28.6202 198.372 28.5034 198.213 28.3518C198.058 28.177 197.938 27.9731 197.862 27.7518C197.785 27.5306 197.753 27.2964 197.768 27.0628Z" fill="white"/>
<path d="M208.496 29.9912C210.018 29.9912 211.193 30.4353 212.021 31.3235C212.843 32.2146 213.258 33.4864 213.258 35.0955C213.258 36.7047 212.8 38.1235 211.887 39.1011C211.416 39.5966 210.844 39.9849 210.209 40.2394C209.575 40.494 208.893 40.6088 208.21 40.5761C205 40.5761 203.394 38.8459 203.391 35.3853C203.391 33.6983 203.851 32.379 204.771 31.4274C205.258 30.9423 205.841 30.564 206.482 30.3167C207.123 30.0695 207.809 29.9586 208.496 29.9912ZM208.4 32.1541C208.096 32.1309 207.79 32.1849 207.512 32.3112C207.234 32.4375 206.992 32.6319 206.809 32.8764C206.474 33.3436 206.307 34.1511 206.307 35.2988C206.249 36.1174 206.414 36.9363 206.783 37.6693C206.944 37.9175 207.17 38.1176 207.435 38.2485C207.701 38.3794 207.997 38.4364 208.292 38.4133C208.589 38.4327 208.886 38.3753 209.154 38.2465C209.423 38.1176 209.653 37.9218 209.824 37.6779C210.152 37.1891 210.312 36.3802 210.312 35.2036C210.365 34.4165 210.206 33.6297 209.854 32.924C209.701 32.6769 209.484 32.4759 209.225 32.3426C208.967 32.2093 208.678 32.1486 208.387 32.167L208.4 32.1541Z" fill="white"/>
<path d="M214.552 30.333L218.466 30.1816L218.596 31.4793C218.772 31.3346 218.956 31.1989 219.145 31.0726C219.545 30.8238 219.965 30.6083 220.4 30.4281C220.923 30.1777 221.494 30.0392 222.074 30.0215C222.468 29.9977 222.863 30.0666 223.225 30.2229C223.588 30.3792 223.909 30.6184 224.163 30.9213C224.684 31.634 224.941 32.5056 224.89 33.3869V38.4003C225.054 38.4522 225.288 38.5344 225.591 38.6469L226.213 38.8761V40.3858H221.109V38.8761L222.113 38.4003V33.8281C222.129 33.4361 222.004 33.0512 221.762 32.7424C221.651 32.6021 221.509 32.4899 221.347 32.4148C221.184 32.3397 221.007 32.3037 220.828 32.3098C220.467 32.3115 220.113 32.4053 219.799 32.5823C219.522 32.7212 219.269 32.9038 219.05 33.123L218.804 33.3869V38.4003L219.79 38.8761V40.3858H214.552V38.8761L216.009 38.4003V32.2233L214.552 31.8469V30.333Z" fill="white"/>
</svg>
