<svg width="48" height="48" viewBox="0 0 48 48" fill="none" xmlns="http://www.w3.org/2000/svg">
<path d="M22.5098 0H25.5107C25.6283 0.0335386 25.7481 0.0586906 25.8692 0.0752665C29.4496 0.31302 32.9236 1.39147 36.0095 3.22318C42.3611 7.02193 46.2649 12.5651 47.6326 19.8615C47.7964 20.747 47.8805 21.6325 48 22.518V25.5198C47.9336 26.0909 47.8716 26.6621 47.792 27.2332C47.0889 32.7373 44.4478 37.8106 40.3427 41.5427C34.2701 47.0859 27.113 49.0694 19.0574 47.4578C13.396 46.3537 8.35537 43.1635 4.9335 38.5188C2.99504 36.0272 1.58048 33.1691 0.774955 30.1165C-0.0305743 27.0639 -0.210433 23.8798 0.246201 20.7559C0.832515 16.0547 2.85067 11.6477 6.02676 8.13321C9.61895 4.0031 14.5385 1.25529 19.9382 0.36305C20.7791 0.212517 21.6467 0.119541 22.5098 0ZM30.5123 34.2463C31.0788 35.1539 31.6409 36.0173 32.1809 36.9027C32.3447 37.1728 32.5129 37.1905 32.7917 37.102C35.6939 36.1723 38.4285 34.7837 40.8916 32.9889C41.0691 32.8488 41.1863 32.646 41.2191 32.4222C41.868 25.6525 40.0992 18.8718 36.2264 13.2823C36.1096 13.093 35.9426 12.9398 35.744 12.8396C33.6524 11.8968 31.4498 11.2229 29.1888 10.834C29.104 10.829 29.0193 10.845 28.9421 10.8805C28.8649 10.916 28.7976 10.97 28.7462 11.0376C28.5103 11.4588 28.296 11.8918 28.1044 12.3349C28.0115 12.5429 27.923 12.6448 27.6618 12.6049C25.2297 12.2751 22.7642 12.2751 20.3321 12.6049C20.2517 12.6005 20.1734 12.5774 20.1035 12.5375C20.0336 12.4975 19.9739 12.4418 19.9293 12.3747C19.6947 11.9541 19.4956 11.5114 19.2831 11.0686C19.2695 11.0209 19.2464 10.9765 19.2152 10.938C19.1839 10.8994 19.1453 10.8676 19.1014 10.8445C19.0576 10.8213 19.0095 10.8073 18.9601 10.8032C18.9107 10.7991 18.861 10.805 18.8139 10.8207C16.5419 11.2378 14.3289 11.9291 12.2234 12.8794C12.0565 12.9597 11.9132 13.0817 11.8073 13.2336C7.94495 18.8584 6.17236 25.658 6.79691 32.4532C6.81859 32.6479 6.91162 32.8277 7.05806 32.9579C9.56543 34.7992 12.3609 36.2116 15.3305 37.1374C15.4368 37.1684 15.6404 37.1374 15.6891 37.0798C16.2999 36.1501 16.893 35.207 17.5171 34.2286C16.9195 33.9629 16.4327 33.7593 15.9546 33.5335C15.4766 33.3077 15.0428 33.0553 14.5604 32.8029C15.1358 32.1831 15.1712 32.1742 15.6404 32.3602C18.2533 33.539 21.0856 34.1527 23.9519 34.1611C26.8183 34.1695 29.6541 33.5724 32.2739 32.4089C32.8581 32.161 32.9422 32.1875 33.4424 32.8251L30.5123 34.2463Z" fill="white"/>
<path d="M29.7909 28.8006C29.3597 28.8026 28.9336 28.7073 28.5443 28.5218C28.155 28.3363 27.8126 28.0654 27.5424 27.7292C27.0038 27.0817 26.6962 26.2732 26.6681 25.4313C26.6401 24.5895 26.8932 23.7623 27.3875 23.0804C27.6588 22.6903 28.0209 22.3722 28.4426 22.1536C28.8643 21.9349 29.3329 21.8222 29.8079 21.8253C30.2829 21.8283 30.75 21.947 31.1689 22.1711C31.5877 22.3951 31.9458 22.7179 32.212 23.1114C32.7208 23.8462 32.9552 24.7366 32.8743 25.6268C32.7934 26.517 32.4023 27.3505 31.7694 27.9815C31.2424 28.503 30.5321 28.797 29.7909 28.8006Z" fill="white"/>
<path d="M21.3896 25.2058C21.4115 26.1832 21.0619 27.1326 20.4114 27.8623C20.1316 28.1786 19.7858 28.4296 19.3984 28.5977C19.011 28.7658 18.5914 28.8467 18.1693 28.8349C17.7473 28.8231 17.3329 28.7188 16.9555 28.5293C16.5781 28.3398 16.2469 28.0698 15.9852 27.7383C15.4819 27.1225 15.1832 26.365 15.1309 25.5713C15.0785 24.7777 15.275 23.9874 15.6931 23.3108C15.995 22.7944 16.445 22.3807 16.9849 22.1233C17.5247 21.8659 18.1295 21.7768 18.7206 21.8675C19.351 21.9977 19.9289 22.3113 20.3817 22.769C20.8345 23.2267 21.142 23.8079 21.2656 24.4398C21.3409 24.7276 21.363 25.0287 21.3896 25.2058Z" fill="white"/>
</svg>
