<svg width="176" height="60" viewBox="0 0 176 60" fill="none" xmlns="http://www.w3.org/2000/svg">
<path fill-rule="evenodd" clip-rule="evenodd" d="M30.0527 0.00117933C13.4577 -0.144951 0.150697 13.3082 0 29.7571C0 46.3566 13.4577 59.8235 29.9066 59.8235C37.8395 59.8428 45.4552 56.7101 51.0783 51.1144C56.7015 45.5186 59.8714 37.9183 59.8908 29.9854C59.9102 22.0525 56.7774 14.4367 51.1817 8.81362C45.586 3.19049 37.9856 0.0205575 30.0527 0.00117933ZM44.2594 13.4589C43.6611 13.9156 42.8894 13.7603 42.314 13.1621C41.8573 12.7054 41.5696 12.2488 41.1175 11.8149C40.2042 10.6185 38.8754 10.4678 37.8296 11.5135C37.0147 12.3366 36.3556 13.3005 35.8842 14.3585C34.8385 17.4958 34.0896 20.7883 33.0438 24.0762L41.2637 25.2727L40.6655 27.5149L32.747 26.3184L31.8337 31.1042L40.3595 32.3007L39.775 34.5428L31.3999 33.3373C30.8016 35.2826 30.4865 37.3741 29.7559 39.1688C29.007 41.2603 28.258 43.3564 27.363 45.2972C26.1665 47.8407 24.075 49.6354 21.2346 50.0829C19.5861 50.3843 17.7914 50.2336 16.4488 49.1696C16.2085 49.0187 16.0028 48.8186 15.8454 48.5825C15.688 48.3464 15.5824 48.0795 15.5355 47.7996C15.5331 47.4876 15.5988 47.1788 15.7282 46.8948C15.8575 46.6109 16.0474 46.3586 16.2844 46.1557C16.5858 46.005 17.3302 46.1557 17.7777 46.3064C18.2607 46.7879 18.6645 47.3427 18.9742 47.9503C19.8875 49.1468 21.0702 49.3203 22.2667 48.407C23.5299 47.19 24.412 45.632 24.8057 43.9226C25.719 40.3333 26.6004 36.8946 27.3493 33.3053V32.7482L19.44 31.5517L19.7368 29.3095L27.9566 30.506L29.0024 25.8709L20.4857 24.5238L20.7825 22.1309L29.6052 23.3273C29.9066 22.414 30.0618 21.6833 30.3541 20.9344C31.103 18.2447 31.8474 15.555 33.642 13.1712C35.4367 10.7875 37.5328 9.28048 40.67 9.43118C41.3412 9.40531 42.0099 9.52589 42.6297 9.78456C43.2496 10.0432 43.8057 10.4338 44.2594 10.929C44.496 11.1142 44.6581 11.3785 44.716 11.6734C44.7069 12.2625 44.7069 13.0114 44.2594 13.4589Z" fill="white"/>
<path d="M73.6819 20.3179H88.1854V23.3547H77.3215V28.9168H87.5552V31.9262H77.3215V41.1005H73.6682L73.6819 20.3179Z" fill="white"/>
<path d="M93.542 20.3179V23.7474H90.1307V20.3179H93.542ZM93.542 25.6791V41.1004H90.1307V25.6791H93.542Z" fill="white"/>
<path d="M100.794 41.1004H97.3826V20.3179H100.794V41.1004Z" fill="white"/>
<path d="M107.073 34.3647C107.107 35.5523 107.597 36.681 108.443 37.5157C109.194 38.2362 110.196 38.6373 111.238 38.6345C113.146 38.6345 114.407 37.9176 115.019 36.4836H118.375C117.931 37.9753 117.002 39.276 115.734 40.1794C114.467 41.0828 112.934 41.5371 111.379 41.4704C108.992 41.4704 107.096 40.6819 105.689 39.1049C104.275 37.4976 103.522 35.4136 103.584 33.2733C103.546 32.2286 103.715 31.1867 104.082 30.2078C104.449 29.2289 105.006 28.3322 105.721 27.5697C106.418 26.8361 107.262 26.2579 108.197 25.8731C109.133 25.4883 110.14 25.3055 111.151 25.3366C112.215 25.2933 113.275 25.5014 114.243 25.9441C115.212 26.3869 116.063 27.0517 116.727 27.8848C118.09 29.5866 118.699 31.7466 118.553 34.3647H107.073ZM107.073 31.8714H115.078C115.081 31.3448 114.976 30.8233 114.768 30.3393C114.561 29.8553 114.256 29.4192 113.872 29.0584C113.133 28.3603 112.149 27.98 111.133 27.9989C110.167 27.998 109.228 28.3194 108.466 28.9122C107.668 29.5455 107.204 30.5319 107.073 31.8714Z" fill="white"/>
<path d="M134.956 30.9535H131.632C131.493 30.154 131.058 29.4364 130.413 28.9442C129.63 28.36 128.656 28.092 127.684 28.1936C126.713 28.2951 125.815 28.7588 125.17 29.4922C124.394 30.369 124.01 31.6705 124.01 33.3875C124.01 35.1045 124.389 36.4106 125.156 37.3011C125.494 37.7207 125.922 38.0585 126.408 38.2895C126.894 38.5204 127.427 38.6383 127.965 38.6345C128.822 38.6499 129.665 38.4099 130.385 37.945C130.744 37.7018 131.05 37.3889 131.286 37.0249C131.521 36.6608 131.681 36.2531 131.755 35.8261H135.08C134.805 37.4747 133.895 38.95 132.545 39.936C131.211 40.9388 129.583 41.4733 127.915 41.4567C126.907 41.495 125.903 41.3102 124.974 40.9155C124.046 40.5208 123.216 39.9259 122.544 39.1734C121.149 37.5801 120.415 35.5133 120.494 33.3966C120.416 31.27 121.166 29.1959 122.585 27.6108C123.873 26.2847 125.601 25.4765 127.444 25.3394C129.288 25.2022 131.117 25.7455 132.586 26.8664C133.869 27.8762 134.717 29.3385 134.956 30.9535Z" fill="white"/>
<path d="M149.675 27.4281C151.172 28.8194 151.923 30.815 151.926 33.4149C151.929 36.0148 151.178 38.0074 149.675 39.3926C148.215 40.7291 146.308 41.4705 144.329 41.4705C142.35 41.4705 140.443 40.7291 138.984 39.3926C137.48 38.0074 136.73 36.0148 136.733 33.4149C136.736 30.815 137.486 28.8194 138.984 27.4281C140.439 26.0837 142.348 25.3371 144.329 25.3371C146.311 25.3371 148.219 26.0837 149.675 27.4281ZM141.432 37.3148C141.782 37.7445 142.224 38.0908 142.724 38.3286C143.225 38.5665 143.773 38.6899 144.327 38.6899C144.881 38.6899 145.429 38.5665 145.93 38.3286C146.43 38.0908 146.872 37.7445 147.222 37.3148C148.008 36.4015 148.396 35.1 148.396 33.4149C148.396 31.7298 148.008 30.4055 147.222 29.4922C146.873 29.0611 146.432 28.7134 145.931 28.4746C145.43 28.2357 144.882 28.1118 144.327 28.1118C143.772 28.1118 143.224 28.2357 142.723 28.4746C142.222 28.7134 141.781 29.0611 141.432 29.4922C140.651 30.4055 140.258 31.7161 140.258 33.4149C140.258 35.1137 140.651 36.3969 141.432 37.3148Z" fill="white"/>
<path d="M158.141 20.3179V23.7474H154.73V20.3179H158.141ZM158.141 25.6791V41.1004H154.73V25.6791H158.141Z" fill="white"/>
<path d="M165.393 27.83C166.306 26.1677 167.863 25.3366 170.064 25.3366C173.562 25.3366 175.311 27.3611 175.311 31.4102V41.1005H171.9V32.2413C171.904 31.8249 171.884 31.4087 171.841 30.9946C171.799 30.6214 171.723 30.2529 171.612 29.8941C171.523 29.5619 171.368 29.2513 171.156 28.9807C170.92 28.714 170.624 28.5074 170.293 28.378C169.881 28.2058 169.437 28.1218 168.991 28.1314C166.604 28.1314 165.409 29.7281 165.406 32.9217V41.1005H161.995V25.6791H165.406L165.393 27.83Z" fill="white"/>
</svg>
