<svg width="28" height="28" viewBox="0 0 28 28" fill="none" xmlns="http://www.w3.org/2000/svg">
<path d="M25.9189 7.72371C24.8136 5.41908 23.0816 3.47231 20.9212 2.10635C18.7608 0.740394 16.2594 0.0104643 13.7034 0.000151698H13.6208C11.3032 -0.0108379 9.02186 0.575447 6.99672 1.70248C4.97158 2.82952 3.27096 4.45929 2.05881 6.43466C0.817955 8.43202 0.113169 10.7156 0.0125307 13.0649C-0.0881073 15.4142 0.418804 17.7497 1.4843 19.8459C3.67462 24.3235 8.61899 27.2894 13.6459 27.2894C14.1657 27.2892 14.685 27.2568 15.2007 27.1924C17.3632 26.9565 19.4359 26.1982 21.24 24.9827C23.044 23.7673 24.5254 22.1313 25.5562 20.2157C26.6245 18.3187 27.2156 16.1906 27.2788 14.0145C27.342 11.8383 26.8753 9.67945 25.9189 7.72371ZM18.8919 16.3665C18.66 16.793 18.2976 17.134 17.8578 17.3396C16.4215 18.0757 14.1163 17.8494 12.0122 16.7579C9.90804 15.6663 8.32455 13.8207 8.14502 12.2408C8.09256 11.8646 8.13804 11.4812 8.27705 11.1277C8.41606 10.7742 8.6439 10.4625 8.93856 10.2228C10.917 8.73629 14.4898 9.72373 16.7986 11.5406C18.7519 13.0774 19.5347 14.8871 18.8919 16.3665ZM19.0535 18.4168C19.6015 18.0405 20.0396 17.5254 20.3229 16.9241C20.6062 16.3228 20.7245 15.6569 20.6657 14.9949C20.4898 12.8404 18.637 10.546 15.9512 9.15281C15.5834 8.96305 15.2058 8.79285 14.8201 8.64293C15.5233 8.67489 16.2207 8.7857 16.8991 8.97327C18.2431 9.33434 19.4723 10.0333 20.4697 11.0038C21.4672 11.9742 22.1997 13.1837 22.5975 14.5173C23.0534 15.93 23.145 17.435 22.8638 18.8926C22.5825 20.3502 21.9376 21.7131 20.9889 22.8549C20.6099 23.3019 20.1824 23.7053 19.7142 24.0577C18.2943 24.9503 16.6865 25.5009 15.0176 25.6664C13.1971 25.8708 11.3539 25.6629 9.62471 25.0581C7.89548 24.4533 6.32454 23.4671 5.0283 22.1726C1.37299 18.5568 0.471724 12.4562 2.92775 7.98224C2.57992 9.71963 2.68275 11.5171 3.22644 13.2035C3.77013 14.8899 4.73658 16.409 6.03369 17.6161C7.60059 19.0031 9.56126 19.8667 11.6423 20.0864C14.2304 20.3825 16.8425 19.7941 19.0535 18.4168ZM10.8847 7.62317C10.1813 7.85087 9.49985 8.1417 8.84879 8.49212C8.06015 8.84001 7.4105 9.44164 7.00318 10.2013C6.43226 11.2785 6.43944 12.5604 7.02472 13.8746C7.90085 15.8674 10.0229 17.7058 12.3677 18.6179C10.9002 18.5441 9.47397 18.1073 8.21683 17.3468C7.26781 16.7437 6.44953 15.9563 5.81054 15.0311C5.17154 14.1059 4.72482 13.0618 4.49688 11.9607C4.22889 10.8384 4.18901 9.67375 4.3796 8.53576C4.57019 7.39777 4.98738 6.30964 5.6064 5.33591C7.02832 2.91938 9.87573 1.5621 13.6459 1.53337C15.2654 1.53352 16.8683 1.85911 18.3594 2.49081C19.8506 3.12252 21.1996 4.04745 22.3263 5.21067C23.453 6.3739 24.3345 7.75169 24.9183 9.26222C25.5022 10.7727 25.7765 12.3852 25.725 14.0038C25.6747 15.8448 25.2017 17.6495 24.3426 19.2785C24.7037 17.5123 24.5953 15.6823 24.0282 13.9711C23.4612 12.2599 22.4553 10.7273 21.111 9.52624C19.2263 7.91597 16.8213 7.04453 14.3425 7.0738C13.1682 7.07337 12.0011 7.25879 10.8847 7.62317Z" fill="#FEC6C6"/>
</svg>
