<svg width="55" height="50" viewBox="0 0 55 50" fill="none" xmlns="http://www.w3.org/2000/svg">
<rect width="55" height="50" rx="16" fill="#606060"/>
<path d="M22.1836 31.2976H32.9782L31.8088 32.458C31.6394 32.6274 31.5443 32.8571 31.5443 33.0967C31.5443 33.3362 31.6394 33.566 31.8088 33.7354C31.9782 33.9048 32.2079 33.9999 32.4475 33.9999C32.687 33.9999 32.9168 33.9048 33.0862 33.7354L35.7848 31.0367C35.8691 30.9531 35.9361 30.8536 35.9817 30.744C36.0274 30.6344 36.0509 30.5168 36.0509 30.398C36.0509 30.2793 36.0274 30.1617 35.9817 30.0521C35.9361 29.9425 35.8691 29.843 35.7848 29.7594L33.0862 27.0607C33.0026 26.9764 32.9031 26.9095 32.7934 26.8638C32.6838 26.8181 32.5662 26.7946 32.4475 26.7946C32.3287 26.7946 32.2112 26.8181 32.1016 26.8638C31.9919 26.9095 31.8924 26.9764 31.8088 27.0607C31.7245 27.1443 31.6576 27.2438 31.6119 27.3534C31.5662 27.4631 31.5427 27.5806 31.5427 27.6994C31.5427 27.8181 31.5662 27.9357 31.6119 28.0453C31.6576 28.155 31.7245 28.2544 31.8088 28.3381L32.9782 29.4985H22.1836C21.9993 29.5021 21.8161 29.4693 21.6445 29.4021C21.4729 29.3348 21.3162 29.2344 21.1834 29.1066C21.0505 28.9788 20.9442 28.8261 20.8704 28.6572C20.7966 28.4883 20.7568 28.3065 20.7533 28.1222V25.9003C20.7533 25.6617 20.6586 25.4329 20.4899 25.2642C20.3212 25.0955 20.0924 25.0007 19.8538 25.0007C19.6152 25.0007 19.3864 25.0955 19.2177 25.2642C19.049 25.4329 18.9542 25.6617 18.9542 25.9003V28.1222C18.9578 28.5427 19.0441 28.9585 19.2083 29.3456C19.3725 29.7328 19.6114 30.0839 19.9112 30.3787C20.2111 30.6736 20.5661 30.9065 20.956 31.0642C21.3459 31.2218 21.7631 31.3012 22.1836 31.2976Z" fill="white"/>
<path d="M21.9138 22.941C22.0832 23.1104 22.3129 23.2056 22.5525 23.2056C22.792 23.2056 23.0218 23.1104 23.1911 22.941C23.3605 22.7716 23.4557 22.5419 23.4557 22.3023C23.4557 22.0628 23.3605 21.833 23.1911 21.6636L22.0217 20.5032H32.8163C33.0006 20.4996 33.1838 20.5324 33.3555 20.5996C33.5271 20.6669 33.6838 20.7673 33.8166 20.8951C33.9494 21.0229 34.0558 21.1756 34.1295 21.3445C34.2033 21.5134 34.2431 21.6952 34.2466 21.8795V24.1014C34.2466 24.34 34.3414 24.5688 34.5101 24.7375C34.6788 24.9062 34.9076 25.001 35.1462 25.001C35.3848 25.001 35.6136 24.9062 35.7823 24.7375C35.951 24.5688 36.0457 24.34 36.0457 24.1014V21.8795C36.0422 21.459 35.9559 21.0432 35.7917 20.6561C35.6275 20.2689 35.3886 19.9178 35.0887 19.623C34.7888 19.3281 34.4338 19.0952 34.0439 18.9375C33.654 18.7799 33.2369 18.7006 32.8163 18.7041H22.0217L23.1911 17.5437C23.2755 17.4601 23.3424 17.3606 23.388 17.251C23.4337 17.1413 23.4572 17.0238 23.4572 16.905C23.4572 16.7863 23.4337 16.6687 23.388 16.5591C23.3424 16.4494 23.2755 16.35 23.1911 16.2663C23.1075 16.182 23.008 16.1151 22.8984 16.0694C22.7888 16.0238 22.6712 16.0002 22.5525 16.0002C22.4337 16.0002 22.3161 16.0238 22.2065 16.0694C22.0969 16.1151 21.9974 16.182 21.9138 16.2663L19.2151 18.965C19.1308 19.0486 19.0639 19.1481 19.0182 19.2577C18.9725 19.3673 18.949 19.4849 18.949 19.6037C18.949 19.7224 18.9725 19.84 19.0182 19.9496C19.0639 20.0592 19.1308 20.1587 19.2151 20.2423L21.9138 22.941Z" fill="white"/>
</svg>
