<svg width="48" height="48" viewBox="0 0 48 48" fill="none" xmlns="http://www.w3.org/2000/svg">
<path d="M48 24.3248C48.0046 29.793 46.1917 35.1032 42.8539 39.3987C39.516 43.6941 34.8479 46.7242 29.6028 48V43.8949C29.6028 42.4592 29.6028 41.019 29.6028 39.5834C29.66 38.3165 29.3525 37.0601 28.7177 35.9673C28.5451 35.6891 28.3327 35.4423 28.1202 35.1597C28.9611 35.0071 29.7754 34.895 30.5764 34.711C32.8291 34.1816 34.8427 33.217 36.3031 31.3058C37.3167 29.9321 37.9658 28.3179 38.1884 26.6174C38.434 25.2133 38.4742 23.7802 38.3079 22.3642C38.1192 20.7346 37.4638 19.1968 36.4226 17.9406C36.3143 17.8221 36.2413 17.6749 36.2124 17.516C36.1834 17.3571 36.1995 17.1932 36.2589 17.0433C36.748 15.2521 36.628 13.3461 35.9181 11.6326C35.8613 11.5506 35.7847 11.4848 35.6955 11.4416C35.6064 11.3984 35.5078 11.3792 35.4092 11.3858C34.6901 11.4473 33.9811 11.598 33.2982 11.8345C32.1785 12.319 31.1164 12.9381 30.0409 13.5304C29.9141 13.6214 29.7689 13.6827 29.6158 13.7098C29.4627 13.737 29.3056 13.7293 29.1558 13.6874C25.7047 12.7933 22.0873 12.7933 18.6362 13.6874C18.5044 13.725 18.3659 13.732 18.2311 13.7079C18.0962 13.6838 17.9685 13.6293 17.8573 13.5483C16.6122 12.6552 15.2264 11.9831 13.7592 11.5608C13.2824 11.4594 12.7985 11.3964 12.312 11.3724C12.0907 11.3454 11.958 11.4711 11.8694 11.7133C11.2008 13.4897 11.1261 15.4396 11.657 17.2631C11.6758 17.3433 11.6781 17.4265 11.6636 17.5076C11.6491 17.5886 11.6183 17.6658 11.5729 17.7342C9.64337 19.9774 9.20524 22.6693 9.50618 25.5182C9.63215 26.9308 9.98962 28.3121 10.5639 29.6054C11.5084 31.6834 13.2272 33.2969 15.3435 34.0919C16.6114 34.587 17.9366 34.9157 19.2867 35.07C19.4284 35.0969 19.5744 35.1283 19.6541 35.1373C19.331 35.7429 18.9991 36.3351 18.7026 36.9318C18.5914 37.1448 18.5237 37.3782 18.5034 37.6183C18.5034 38.1746 18.1494 38.363 17.6891 38.5156C16.0826 39.027 14.516 39.0854 13.144 37.9503C12.588 37.4406 12.1014 36.8582 11.6968 36.2185C11.1134 35.2705 10.2329 34.5485 9.19639 34.1682C8.76381 34.0502 8.31647 33.9973 7.86871 34.0111C7.75707 34.0199 7.64895 34.0548 7.55294 34.1132C7.45692 34.1716 7.37563 34.2519 7.31551 34.3476C7.25798 34.4598 7.45713 34.738 7.59432 34.895C7.75497 35.0706 7.93981 35.2217 8.1431 35.3436C9.14271 36.0252 9.91683 36.996 10.3647 38.1297C10.6812 39.0022 11.1555 39.8071 11.7632 40.5031C12.3632 41.0747 13.0754 41.5116 13.8532 41.7853C14.631 42.0589 15.4571 42.1632 16.2773 42.0913C16.9235 42.0644 17.5696 41.9567 18.2467 41.8894C18.2683 41.9913 18.2816 42.0949 18.2866 42.199C18.2866 43.0963 18.2866 44.0205 18.3175 44.9312V47.9686C13.9429 46.8878 9.95637 44.5813 6.81352 41.3125C3.67068 38.0438 1.49828 33.9447 0.544555 29.4836C-0.409168 25.0226 -0.105739 20.3795 1.42017 16.085C2.94608 11.7905 5.63291 8.01771 9.17365 5.19784C12.7144 2.37797 16.9662 0.624735 21.4433 0.138465C25.9203 -0.347806 30.442 0.452507 34.4917 2.44795C38.5413 4.4434 41.9556 7.55348 44.3443 11.4228C46.733 15.2922 47.9998 19.7647 48 24.3293V24.3248Z" fill="white"/>
</svg>
