<svg xmlns="http://www.w3.org/2000/svg" viewBox="0 0 433.96 125.89">
  <g id="Layer_2" data-name="Layer 2">
    <g id="Layer_1-2" data-name="Layer 1">
      <g>
        <path d="M94,30.38a54.31,54.31,0,0,0-31.65-15.9V3.16a3.5,3.5,0,0,0-7,0V14h-.32a54.63,54.63,0,0,0-13.24,1.64V3.87A3.69,3.69,0,0,0,38.34,0a3.69,3.69,0,0,0-3.49,3.87v14A56,56,0,0,0,0,69.94c0,30.55,24.22,55.44,54.17,55.93v0H97V101.81L87.44,94.5A34.48,34.48,0,0,0,97.58,70.42c0-9.36-4.54-19-11.57-25.51L97.58,34Zm-6.84,85.51H55.06c-24.93,0-45.21-20.61-45.21-45.95a46.08,46.08,0,0,1,25-41.09V45.08A3.7,3.7,0,0,0,38.34,49a3.7,3.7,0,0,0,3.48-3.88V26a44.65,44.65,0,0,1,13.25-2h.31V36.81a3.5,3.5,0,0,0,7,0V24.58A44.36,44.36,0,0,1,83.21,34l-22,20.68a16,16,0,0,0-6.11-1.22,16.51,16.51,0,1,0,4.59,32.34l27.5,21ZM55.1,76.19a6.38,6.38,0,1,1,6.36-6.25,6.55,6.55,0,0,1-.55,2.63A6.47,6.47,0,0,1,55.1,76.19ZM80.14,52a25.76,25.76,0,0,1,5.24,6.73,24.66,24.66,0,0,1,2.94,11.68c0,6.54-3.68,13.52-8.4,18.33l-11.79-9a16.54,16.54,0,0,0,3.17-9.79v-.23c0-.18,0-.36,0-.54l0-.55a16.06,16.06,0,0,0-2.44-7.52L79.3,51.23Z" fill-opacity="0.9"/>
        <path d="M148.47,69.33h9.75a9,9,0,0,1-1.14,3.37A7,7,0,0,1,154.91,75,10.13,10.13,0,0,1,152,76.25a15.6,15.6,0,0,1-3.37.36,12.82,12.82,0,0,1-5.17-1,10.84,10.84,0,0,1-3.73-2.83,12.58,12.58,0,0,1-2.29-4.28,18.91,18.91,0,0,1-.72-5.35,19.44,19.44,0,0,1,.84-5.78A13.9,13.9,0,0,1,140,53a10.15,10.15,0,0,1,3.73-2.83,11.51,11.51,0,0,1,4.81-1,10,10,0,0,1,5.66,1.63,10.94,10.94,0,0,1,4.09,5.35l11.26-4.63A21.27,21.27,0,0,0,161,41.94a24.85,24.85,0,0,0-12.52-3.07,27.92,27.92,0,0,0-10,1.74A20.95,20.95,0,0,0,125.9,53.13a26.85,26.85,0,0,0-1.68,9.76A27.5,27.5,0,0,0,126,72.76a22.37,22.37,0,0,0,4.88,7.64,22.82,22.82,0,0,0,7.52,4.88A26.84,26.84,0,0,0,148.11,87a27.28,27.28,0,0,0,7.41-1A23.1,23.1,0,0,0,162,83.29a20.56,20.56,0,0,0,5.11-4.57,22.33,22.33,0,0,0,3.43-6.38,21.84,21.84,0,0,0,1.21-5.48c.18-2,.3-4.22.3-6.62H148.47Z" fill-opacity="0.9"/>
        <path d="M273.73,38.81a23.7,23.7,0,0,0-9.15,1.8,24.34,24.34,0,0,0-7.7,5,23.73,23.73,0,0,0-5.3,7.58,25.08,25.08,0,0,0,.06,19.39,25.89,25.89,0,0,0,5.3,7.7,24.25,24.25,0,0,0,7.64,5.06,24.73,24.73,0,0,0,9.09,1.74,25,25,0,0,0,4.7-.48,31.08,31.08,0,0,0,5.11-1.38l1.21-.42V70.71c-3,3.25-6.44,4.88-10.24,4.88a12,12,0,0,1-4.87-1,11.58,11.58,0,0,1-4-2.65,13,13,0,0,1-2.59-4,14,14,0,0,1-.9-5,13.67,13.67,0,0,1,.9-5,11.17,11.17,0,0,1,2.59-4,13.3,13.3,0,0,1,3.91-2.65,12.54,12.54,0,0,1,5-1,12.68,12.68,0,0,1,10.18,5V41.16a30.67,30.67,0,0,0-5.6-1.75A22.94,22.94,0,0,0,273.73,38.81Z" fill-opacity="0.9"/>
        <polygon points="421.32 38.87 421.32 68.3 397.85 38.87 385.81 38.87 385.81 87.02 398.45 87.02 398.45 57.59 421.8 87.02 433.96 87.02 433.96 38.87 421.32 38.87" fill-opacity="0.9"/>
        <rect x="182.96" y="38.87" width="12.64" height="48.15" fill-opacity="0.9"/>
        <rect x="359.93" y="38.87" width="12.64" height="48.15" fill-opacity="0.9"/>
        <path d="M340.55,45.79a22.66,22.66,0,0,0-8-5.12,26.68,26.68,0,0,0-10.17-1.86,27.17,27.17,0,0,0-10.23,1.86A23.53,23.53,0,0,0,299,53.5,23.44,23.44,0,0,0,297.09,63,23.8,23.8,0,0,0,299,72.46a24.06,24.06,0,0,0,13.19,12.82,29.8,29.8,0,0,0,20.4,0,24.6,24.6,0,0,0,8-5.18,23.29,23.29,0,0,0,5.29-7.64A23.84,23.84,0,0,0,347.71,63a23.28,23.28,0,0,0-1.87-9.45A23,23,0,0,0,340.55,45.79ZM334.29,68a12,12,0,0,1-2.83,4,14.69,14.69,0,0,1-4.16,2.65,13.57,13.57,0,0,1-4.93.91,13.94,13.94,0,0,1-5-.91A11.6,11.6,0,0,1,313.28,72a12.59,12.59,0,0,1-2.77-4,13,13,0,0,1,0-10.11,12.59,12.59,0,0,1,2.77-4,13.33,13.33,0,0,1,9.09-3.55,12.45,12.45,0,0,1,4.93,1,11.24,11.24,0,0,1,4.16,2.59,12,12,0,0,1,2.83,4,13,13,0,0,1,0,10.11Z" fill-opacity="0.9"/>
        <polygon points="207.64 49.7 217.88 49.7 217.88 87.02 230.51 87.02 230.51 49.7 240.75 49.7 240.75 38.87 207.64 38.87 207.64 49.7" fill-opacity="0.9"/>
      </g>
    </g>
  </g>
</svg>
