<svg width="33" height="25" viewBox="0 0 33 25" fill="none" xmlns="http://www.w3.org/2000/svg">
<path d="M13.6107 13.2079H20.5049C20.7149 13.194 20.9119 13.1008 21.0558 12.9471C21.1997 12.7934 21.2798 12.5908 21.2798 12.3802C21.2798 12.1697 21.1997 11.967 21.0558 11.8133C20.9119 11.6596 20.7149 11.5664 20.5049 11.5526H13.6107C13.4975 11.5451 13.3839 11.561 13.277 11.5992C13.1701 11.6374 13.0722 11.6972 12.9893 11.7747C12.9064 11.8523 12.8404 11.9461 12.7952 12.0503C12.75 12.1544 12.7267 12.2667 12.7267 12.3802C12.7267 12.4937 12.75 12.6061 12.7952 12.7102C12.8404 12.8144 12.9064 12.9081 12.9893 12.9857C13.0722 13.0633 13.1701 13.1231 13.277 13.1613C13.3839 13.1995 13.4975 13.2153 13.6107 13.2079Z" fill="#FEC6C6"/>
<path d="M18.5732 16.5152H15.5391C15.329 16.5291 15.132 16.6223 14.9881 16.776C14.8442 16.9297 14.7642 17.1323 14.7642 17.3429C14.7642 17.5534 14.8442 17.7561 14.9881 17.9098C15.132 18.0635 15.329 18.1567 15.5391 18.1705H18.5732C18.6865 18.178 18.8001 18.1621 18.907 18.1239C19.0139 18.0857 19.1118 18.0259 19.1946 17.9484C19.2775 17.8708 19.3436 17.777 19.3887 17.6729C19.4339 17.5687 19.4572 17.4564 19.4572 17.3429C19.4572 17.2294 19.4339 17.117 19.3887 17.0129C19.3436 16.9087 19.2775 16.815 19.1946 16.7374C19.1118 16.6598 19.0139 16.6001 18.907 16.5618C18.8001 16.5236 18.6865 16.5078 18.5732 16.5152Z" fill="#FEC6C6"/>
<path d="M15.5391 8.24231H18.5732C18.6865 8.24977 18.8001 8.23391 18.907 8.19569C19.0139 8.15748 19.1118 8.09773 19.1946 8.02014C19.2775 7.94255 19.3436 7.84878 19.3887 7.74463C19.4339 7.64048 19.4572 7.52817 19.4572 7.41465C19.4572 7.30113 19.4339 7.18882 19.3887 7.08467C19.3436 6.98052 19.2775 6.88675 19.1946 6.80917C19.1118 6.73158 19.0139 6.67183 18.907 6.63362C18.8001 6.5954 18.6865 6.57954 18.5732 6.587H15.5391C15.329 6.60085 15.132 6.69407 14.9881 6.84776C14.8442 7.00145 14.7642 7.20411 14.7642 7.41465C14.7642 7.62519 14.8442 7.82786 14.9881 7.98155C15.132 8.13524 15.329 8.22846 15.5391 8.24231Z" fill="#FEC6C6"/>
<path d="M21.0544 0.79517C19.6293 0.794058 18.2158 1.05074 16.882 1.5528C15.0898 0.884456 13.1624 0.65992 11.2646 0.898383C9.3667 1.13684 7.55477 1.83122 5.9836 2.92217C4.41243 4.01312 3.12871 5.46822 2.24215 7.16314C1.35558 8.85806 0.892517 10.7424 0.892517 12.6552C0.892517 14.568 1.35558 16.4523 2.24215 18.1473C3.12871 19.8422 4.41243 21.2973 5.9836 22.3882C7.55477 23.4792 9.3667 24.1736 11.2646 24.412C13.1624 24.6505 15.0898 24.4259 16.882 23.7576C18.5049 24.3579 20.2395 24.5955 21.9639 24.4537C23.6884 24.3119 25.3609 23.7941 26.8639 22.9368C28.3668 22.0795 29.6638 20.9034 30.6636 19.4912C31.6635 18.0791 32.3419 16.4651 32.6512 14.7626C32.9606 13.0602 32.8933 11.3107 32.4542 9.63709C32.0151 7.96345 31.2147 6.40629 30.1094 5.07504C29.0041 3.74379 27.6207 2.67077 26.0563 1.93137C24.492 1.19198 22.7847 0.804158 21.0544 0.79517ZM12.6953 22.8599C9.98883 22.8599 7.39322 21.7848 5.47947 19.871C3.56571 17.9573 2.49057 15.3617 2.49057 12.6552C2.49057 9.94874 3.56571 7.35313 5.47947 5.43937C7.39322 3.52561 9.98883 2.45048 12.6953 2.45048C13.3633 2.4502 14.0296 2.51635 14.6845 2.64796C12.9982 3.71716 11.6095 5.19515 10.6472 6.94467C9.68493 8.69419 9.18036 10.6585 9.18036 12.6552C9.18036 14.6519 9.68493 16.6162 10.6472 18.3657C11.6095 20.1153 12.9982 21.5932 14.6845 22.6624C14.0296 22.7941 13.3633 22.8602 12.6953 22.8599ZM16.882 3.34815C18.6779 4.15233 20.2028 5.45892 21.2728 7.11034C22.3427 8.76176 22.912 10.6875 22.912 12.6552C22.912 14.6229 22.3427 16.5486 21.2728 18.2001C20.2028 19.8515 18.6779 21.1581 16.882 21.9623C15.0861 21.1581 13.5613 19.8515 12.4913 18.2001C11.4214 16.5486 10.8521 14.6229 10.8521 12.6552C10.8521 10.6875 11.4214 8.76176 12.4913 7.11034C13.5613 5.45892 15.0861 4.15233 16.882 3.34815ZM21.0544 22.8599C20.3864 22.86 19.7201 22.7939 19.0652 22.6624C20.7515 21.5932 22.1402 20.1153 23.1025 18.3657C24.0648 16.6162 24.5693 14.6519 24.5693 12.6552C24.5693 10.6585 24.0648 8.69419 23.1025 6.94467C22.1402 5.19515 20.7515 3.71716 19.0652 2.64796C19.7201 2.51652 20.3864 2.45037 21.0544 2.45048C23.7609 2.45048 26.3565 3.52561 28.2702 5.43937C30.184 7.35313 31.2591 9.94874 31.2591 12.6552C31.2591 15.3617 30.184 17.9573 28.2702 19.871C26.3565 21.7848 23.7609 22.8599 21.0544 22.8599Z" fill="#FEC6C6"/>
</svg>
