<svg width="26" height="20" viewBox="0 0 26 20" fill="none" xmlns="http://www.w3.org/2000/svg">
<path d="M10.4864 10.4309H15.8076C15.9697 10.4203 16.1218 10.3483 16.2328 10.2297C16.3439 10.1111 16.4057 9.95463 16.4057 9.79212C16.4057 9.62962 16.3439 9.47319 16.2328 9.35457C16.1218 9.23594 15.9697 9.16399 15.8076 9.1533H10.4864C10.399 9.14754 10.3113 9.15979 10.2288 9.18928C10.1463 9.21878 10.0707 9.2649 10.0067 9.32478C9.94277 9.38467 9.89178 9.45704 9.85692 9.53743C9.82206 9.61782 9.80408 9.7045 9.80408 9.79212C9.80408 9.87974 9.82206 9.96643 9.85692 10.0468C9.89178 10.1272 9.94277 10.1996 10.0067 10.2595C10.0707 10.3193 10.1463 10.3655 10.2288 10.395C10.3113 10.4245 10.399 10.4367 10.4864 10.4309Z" fill="white"/>
<path d="M14.3166 12.9835H11.9747C11.8125 12.9942 11.6605 13.0661 11.5495 13.1848C11.4384 13.3034 11.3766 13.4598 11.3766 13.6223C11.3766 13.7848 11.4384 13.9412 11.5495 14.0599C11.6605 14.1785 11.8125 14.2504 11.9747 14.2611H14.3166C14.404 14.2669 14.4917 14.2546 14.5742 14.2251C14.6567 14.1957 14.7323 14.1495 14.7962 14.0896C14.8602 14.0298 14.9112 13.9574 14.946 13.877C14.9809 13.7966 14.9989 13.7099 14.9989 13.6223C14.9989 13.5347 14.9809 13.448 14.946 13.3676C14.9112 13.2872 14.8602 13.2149 14.7962 13.155C14.7323 13.0951 14.6567 13.049 14.5742 13.0195C14.4917 12.99 14.404 12.9777 14.3166 12.9835Z" fill="white"/>
<path d="M11.9747 6.59807H14.3166C14.404 6.60383 14.4917 6.59159 14.5742 6.56209C14.6567 6.5326 14.7323 6.48648 14.7962 6.42659C14.8602 6.36671 14.9112 6.29433 14.946 6.21395C14.9809 6.13356 14.9989 6.04687 14.9989 5.95925C14.9989 5.87163 14.9809 5.78495 14.946 5.70456C14.9112 5.62417 14.8602 5.5518 14.7962 5.49191C14.7323 5.43203 14.6567 5.38591 14.5742 5.35641C14.4917 5.32692 14.404 5.31467 14.3166 5.32043H11.9747C11.8125 5.33112 11.6605 5.40307 11.5495 5.5217C11.4384 5.64032 11.3766 5.79675 11.3766 5.95925C11.3766 6.12176 11.4384 6.27818 11.5495 6.39681C11.6605 6.51544 11.8125 6.58739 11.9747 6.59807Z" fill="white"/>
<path d="M16.2318 0.850039C15.1318 0.849182 14.0408 1.0473 13.0114 1.43482C11.628 0.918955 10.1404 0.745648 8.67554 0.929704C7.21068 1.11376 5.81216 1.64971 4.59945 2.49175C3.38675 3.3338 2.39592 4.45691 1.71163 5.76513C1.02734 7.07335 0.669922 8.52778 0.669922 10.0042C0.669922 11.4805 1.02734 12.935 1.71163 14.2432C2.39592 15.5514 3.38675 16.6745 4.59945 17.5166C5.81216 18.3586 7.21068 18.8946 8.67554 19.0786C10.1404 19.2627 11.628 19.0894 13.0114 18.5735C14.2639 19.0368 15.6028 19.2202 16.9338 19.1108C18.2648 19.0013 19.5557 18.6017 20.7158 17.94C21.8759 17.2783 22.8769 16.3705 23.6486 15.2805C24.4204 14.1906 24.944 12.9448 25.1828 11.6308C25.4215 10.3168 25.3696 8.96643 25.0307 7.67464C24.6917 6.38285 24.074 5.18096 23.2209 4.15344C22.3678 3.12592 21.3 2.29771 20.0925 1.72701C18.8851 1.15631 17.5673 0.856977 16.2318 0.850039ZM9.77985 17.8806C7.69088 17.8806 5.68747 17.0508 4.21034 15.5737C2.73321 14.0965 1.90337 12.0931 1.90337 10.0042C1.90337 7.91519 2.73321 5.91177 4.21034 4.43465C5.68747 2.95752 7.69088 2.12768 9.77985 2.12768C10.2954 2.12747 10.8098 2.17853 11.3152 2.28011C10.0137 3.10537 8.94176 4.24615 8.19903 5.59651C7.45631 6.94687 7.06686 8.46302 7.06686 10.0042C7.06686 11.5453 7.45631 13.0615 8.19903 14.4118C8.94176 15.7622 10.0137 16.903 11.3152 17.7282C10.8098 17.8298 10.2954 17.8809 9.77985 17.8806ZM13.0114 2.82054C14.3975 3.44125 15.5745 4.44974 16.4003 5.72438C17.2262 6.99902 17.6656 8.48537 17.6656 10.0042C17.6656 11.5229 17.2262 13.0093 16.4003 14.2839C15.5745 15.5586 14.3975 16.5671 13.0114 17.1878C11.6252 16.5671 10.4482 15.5586 9.6224 14.2839C8.79657 13.0093 8.35716 11.5229 8.35716 10.0042C8.35716 8.48537 8.79657 6.99902 9.6224 5.72438C10.4482 4.44974 11.6252 3.44125 13.0114 2.82054ZM16.2318 17.8806C15.7162 17.8807 15.2019 17.8297 14.6964 17.7282C15.998 16.903 17.0699 15.7622 17.8126 14.4118C18.5553 13.0615 18.9448 11.5453 18.9448 10.0042C18.9448 8.46302 18.5553 6.94687 17.8126 5.59651C17.0699 4.24615 15.998 3.10537 14.6964 2.28011C15.2019 2.17866 15.7162 2.1276 16.2318 2.12768C18.3208 2.12768 20.3242 2.95752 21.8013 4.43465C23.2784 5.91177 24.1083 7.91519 24.1083 10.0042C24.1083 12.0931 23.2784 14.0965 21.8013 15.5737C20.3242 17.0508 18.3208 17.8806 16.2318 17.8806Z" fill="white"/>
</svg>
