<svg width="20" height="20" viewBox="0 0 20 20" fill="none" xmlns="http://www.w3.org/2000/svg">
<path d="M10 0C8.02219 0 6.08879 0.58649 4.4443 1.6853C2.79981 2.78412 1.51809 4.3459 0.761209 6.17316C0.00433288 8.00042 -0.1937 10.0111 0.192152 11.9509C0.578004 13.8907 1.53041 15.6725 2.92894 17.0711C4.32746 18.4696 6.10929 19.422 8.0491 19.8078C9.98891 20.1937 11.9996 19.9957 13.8268 19.2388C15.6541 18.4819 17.2159 17.2002 18.3147 15.5557C19.4135 13.9112 20 11.9778 20 10C20 7.34783 18.9464 4.80429 17.0711 2.92893C15.1957 1.05357 12.6522 0 10 0V0ZM4.61255 13.2325C4.60332 13.4059 4.61255 13.5793 4.61255 13.7528C4.61679 13.7952 4.6119 13.8381 4.59819 13.8785C4.58449 13.9189 4.5623 13.9559 4.53311 13.987C4.50393 14.0181 4.46842 14.0426 4.42897 14.0588C4.38953 14.0751 4.34706 14.0827 4.30443 14.0812C4.00923 14.091 3.71403 14.091 3.41882 14.0812C3.37729 14.0835 3.33574 14.0768 3.29702 14.0616C3.2583 14.0464 3.2233 14.023 3.19442 13.9931C3.16553 13.9632 3.14343 13.9273 3.12963 13.8881C3.11582 13.8489 3.11062 13.8071 3.11439 13.7657C3.11439 13.5812 3.11439 13.3967 3.11439 13.2122C3.09354 13.0678 3.11084 12.9205 3.16457 12.7849C3.2183 12.6492 3.30659 12.53 3.42067 12.4391C3.38008 12.4004 3.34502 12.3764 3.31735 12.3469C3.24179 12.2676 3.18481 12.1726 3.15052 12.0687C3.11623 11.9647 3.10549 11.8544 3.11909 11.7458C3.13269 11.6372 3.17028 11.5329 3.22914 11.4407C3.28801 11.3484 3.36666 11.2703 3.45941 11.2122C3.49601 11.1939 3.52609 11.1648 3.54556 11.1288C3.56504 11.0928 3.57296 11.0517 3.56827 11.0111C3.56827 10.7214 3.56827 10.4336 3.56827 10.1273C3.75277 10.2048 3.91882 10.2675 4.07749 10.3469C4.10014 10.361 4.11945 10.3798 4.1341 10.4021C4.14876 10.4244 4.1584 10.4496 4.16236 10.476C4.17344 10.6605 4.17159 10.8321 4.16236 11.0111C4.15498 11.0515 4.16132 11.0933 4.18037 11.1297C4.19942 11.1661 4.2301 11.1952 4.26753 11.2122C4.40785 11.296 4.51506 11.4256 4.57117 11.5791C4.62727 11.7326 4.62885 11.9008 4.57565 12.0553C4.50976 12.1989 4.43071 12.336 4.33949 12.4649C4.5738 12.6421 4.61255 12.9244 4.61255 13.2325ZM14.5092 12.4945C14.5143 12.7541 14.4482 13.0101 14.3181 13.2349C14.188 13.4596 13.9989 13.6445 13.7712 13.7694C12.77 14.362 11.6413 14.7062 10.4797 14.7731C9.01844 14.8715 7.56068 14.5358 6.28967 13.8081C6.0419 13.6799 5.83552 13.4842 5.69445 13.2435C5.55338 13.0029 5.4834 12.7271 5.49262 12.4483C5.49262 11.7675 5.49262 11.7103 5.49262 11.0351C5.49262 10.9926 5.49262 10.9483 5.49262 10.893L5.63653 10.952L9.14207 12.428C9.40922 12.5457 9.69794 12.6065 9.98985 12.6065C10.2818 12.6065 10.5705 12.5457 10.8376 12.428L13.6347 11.2546L14.4963 10.8856C14.4963 10.9354 14.4963 10.9668 14.5055 10.9982C14.5055 11.7103 14.5129 11.7915 14.5018 12.5L14.5092 12.4945ZM16.6052 8.92066C14.6076 9.76445 12.6119 10.6039 10.6181 11.4391L10.5129 11.4779C10.1795 11.5861 9.82046 11.5861 9.48709 11.4779C9.45379 11.4675 9.42114 11.4552 9.3893 11.441C7.39299 10.6095 5.39914 9.7706 3.40775 8.92435C3.237 8.85886 3.09013 8.74312 2.98653 8.59242C2.88292 8.44172 2.82746 8.26313 2.82746 8.08026C2.82746 7.89738 2.88292 7.7188 2.98653 7.56809C3.09013 7.41739 3.237 7.30165 3.40775 7.23616L9.38008 4.70849C9.57383 4.62628 9.78215 4.58391 9.99262 4.58391C10.2031 4.58391 10.4114 4.62628 10.6052 4.70849C12.6064 5.55227 14.6064 6.39729 16.6052 7.24354C16.7741 7.3067 16.9195 7.42056 17.0212 7.56953C17.1229 7.71849 17.1761 7.89527 17.1734 8.07564C17.1758 8.25756 17.1227 8.4359 17.0212 8.58687C16.9197 8.73784 16.7746 8.85428 16.6052 8.92066Z" fill="#606060"/>
</svg>
