<svg width="12" height="12" viewBox="0 0 12 12" fill="none" xmlns="http://www.w3.org/2000/svg">
<path fill-rule="evenodd" clip-rule="evenodd" d="M6 12C9.31372 12 12 9.31372 12 6C12 2.68629 9.31372 0 6 0C2.68629 0 0 2.68629 0 6C0 9.31372 2.68629 12 6 12ZM8.78032 5.03033C9.0732 4.73744 9.0732 4.26256 8.78032 3.96967C8.48745 3.67678 8.01255 3.67678 7.71968 3.96967L5.25 6.43934L4.28033 5.46967C3.98744 5.17678 3.51256 5.17678 3.21967 5.46967C2.92678 5.76256 2.92678 6.23744 3.21967 6.53033L4.71967 8.03032C5.01256 8.3232 5.48744 8.3232 5.78033 8.03032L8.78032 5.03033Z" fill="white"/>
</svg>
