<svg width="19" height="24" viewBox="0 0 19 24" fill="none" xmlns="http://www.w3.org/2000/svg">
<path fill-rule="evenodd" clip-rule="evenodd" d="M16.5131 17.7427L15.0301 16.7984C15.4871 16.3627 16.0747 15.6441 16.3229 15.0649C16.5711 14.4857 16.6988 13.8625 16.6982 13.233C16.699 12.4671 16.5083 11.713 16.1431 11.0387C15.8853 10.5649 15.5497 10.1372 15.1502 9.77328L14.4958 9.17198L15.1954 8.52581L15.7268 8.84648L16.1431 8.34949C16.7816 8.9271 17.5199 9.86334 17.8751 10.6456C18.2303 11.4278 18.4206 12.2742 18.4341 13.1324C18.4476 13.9905 18.2842 14.8424 17.9538 15.6353C17.6234 16.4283 17.1331 17.1455 16.5131 17.7427Z" fill="#82C0FF"/>
<path d="M16.4726 21.7768H10.4072C8.1043 21.7768 5.89576 20.8672 4.26739 19.2481C2.63902 17.629 1.72421 15.433 1.72421 13.1432C1.72421 10.8535 2.63902 8.6575 4.26739 7.0384C5.89576 5.41929 8.1043 4.50969 10.4072 4.50969C12.3445 4.50596 14.2238 5.16687 15.728 6.38089L11.5625 10.2714C11.1965 10.1195 10.8037 10.0417 10.4072 10.0425C9.5801 10.0425 8.7869 10.3692 8.20208 10.9507C7.61725 11.5322 7.2887 12.3209 7.2887 13.1432C7.2887 13.9656 7.61725 14.7543 8.20208 15.3358C8.7869 15.9173 9.5801 16.2439 10.4072 16.2439C10.7037 16.2459 10.9988 16.2035 11.2827 16.1183L16.4726 20.0716V21.7768ZM10.4072 14.3593C10.1636 14.3628 9.92456 14.2943 9.72034 14.1624C9.51611 14.0304 9.35597 13.8411 9.26029 13.6184C9.1646 13.3957 9.1377 13.1498 9.18301 12.9118C9.22832 12.6739 9.34378 12.4547 9.51471 12.2822C9.68565 12.1097 9.90432 11.9917 10.1429 11.9431C10.3815 11.8946 10.6292 11.9177 10.8546 12.0095C11.08 12.1013 11.2727 12.2577 11.4084 12.4588C11.5441 12.6599 11.6166 12.8966 11.6166 13.1387C11.6178 13.2979 11.5875 13.4556 11.5274 13.6031C11.4672 13.7505 11.3785 13.8848 11.2661 13.9981C11.1538 14.1114 11.0202 14.2017 10.8728 14.2636C10.7254 14.3256 10.5672 14.3581 10.4072 14.3593ZM13.476 13.1387C13.4762 12.5537 13.3121 11.9802 13.0021 11.4829L15.4843 9.16301V9.18545L18.4267 6.38986L17.7498 5.70331C16.794 4.72976 15.652 3.95624 14.391 3.42834C13.13 2.90044 11.7754 2.62883 10.4072 2.62952C7.62585 2.65441 4.96806 3.77538 3.01701 5.74646C1.06596 7.71753 -0.0189857 10.3777 0.000251523 13.1432C-0.0183675 15.879 1.04356 18.5127 2.95766 20.478C4.87175 22.4433 7.4851 23.5832 10.2357 23.6525H18.3319V19.1338L12.8758 14.983C13.2655 14.4478 13.4755 13.804 13.476 13.1432V13.1387Z" fill="#82C0FF"/>
<path fill-rule="evenodd" clip-rule="evenodd" d="M10.4116 14.3189C10.6546 14.3198 10.8924 14.249 11.0948 14.1154C11.2973 13.9818 11.4553 13.7915 11.5489 13.5686C11.6425 13.3456 11.6675 13.1001 11.6206 12.863C11.5738 12.626 11.4572 12.4081 11.2857 12.2369C11.1142 12.0658 10.8955 11.9491 10.6573 11.9016C10.419 11.8542 10.172 11.8781 9.94742 11.9703C9.72286 12.0626 9.53088 12.219 9.39579 12.4198C9.26071 12.6206 9.1886 12.8568 9.1886 13.0984C9.1886 13.4213 9.31731 13.7311 9.54654 13.9599C9.77577 14.1886 10.0868 14.3177 10.4116 14.3189ZM10.4116 16.1452C11.0179 16.1461 11.6108 15.9682 12.1153 15.6339C12.6198 15.2997 13.0133 14.8241 13.2459 14.2675C13.4785 13.7108 13.5398 13.0981 13.4221 12.5067C13.3044 11.9154 13.0129 11.3721 12.5845 10.9455C12.1561 10.5189 11.6101 10.2283 11.0156 10.1104C10.4211 9.99246 9.8047 10.0525 9.24451 10.283C8.68432 10.5135 8.20547 10.904 7.86856 11.4052C7.53165 11.9063 7.35182 12.4956 7.35182 13.0984C7.35063 13.4989 7.42887 13.8957 7.58205 14.2661C7.73523 14.6365 7.96036 14.9732 8.24454 15.2571C8.52873 15.5409 8.86641 15.7662 9.23825 15.9201C9.6101 16.0741 10.0088 16.1536 10.4116 16.1542V16.1452Z" fill="#82C0FF"/>
<path d="M7.24364 9.19894C7.05966 9.1885 6.88725 9.10629 6.76387 8.97018C6.6405 8.83406 6.57613 8.65503 6.58475 8.472V0.726941C6.57613 0.543904 6.6405 0.364879 6.76387 0.228763C6.88725 0.0926473 7.05966 0.0104389 7.24364 0C7.42763 0.0104389 7.60004 0.0926473 7.72342 0.228763C7.84679 0.364879 7.91116 0.543904 7.90254 0.726941V8.472C7.90741 8.56277 7.89421 8.65361 7.86371 8.73931C7.83321 8.82501 7.786 8.90388 7.7248 8.97141C7.66359 9.03894 7.58958 9.0938 7.50702 9.13284C7.42446 9.17188 7.33495 9.19435 7.24364 9.19894Z" fill="#82C0FF"/>
<path d="M11.1247 7.51174C10.9586 7.51909 10.7963 7.46102 10.6729 7.35014C10.5496 7.23926 10.4752 7.0845 10.4658 6.91942V0.592343C10.4848 0.431798 10.5623 0.283753 10.6838 0.176314C10.8052 0.0688751 10.9621 0.00952148 11.1247 0.00952148C11.2873 0.00952148 11.4442 0.0688751 11.5657 0.176314C11.6871 0.283753 11.7647 0.431798 11.7836 0.592343V6.91942C11.7796 7.00136 11.7593 7.08171 11.724 7.15585C11.6887 7.23 11.639 7.29649 11.5778 7.35151C11.5166 7.40653 11.445 7.44901 11.3673 7.4765C11.2895 7.504 11.2071 7.51597 11.1247 7.51174Z" fill="#82C0FF"/>
</svg>
