<svg width="20" height="20" viewBox="0 0 20 20" fill="none" xmlns="http://www.w3.org/2000/svg">
<path d="M9.37907 0H10.6295C10.6784 0.0139749 10.7284 0.0244553 10.7788 0.0313621C12.2707 0.13043 13.7182 0.579801 15.004 1.34304C17.6504 2.9259 19.2771 5.23563 19.8469 8.27592C19.9152 8.64488 19.9502 9.01385 20 9.38282V10.6336C19.9723 10.8716 19.9465 11.1096 19.9133 11.3476C19.6204 13.641 18.5199 15.755 16.8095 17.3101C14.2792 19.6198 11.2971 20.4463 7.94057 19.7748C5.58165 19.3147 3.4814 17.9854 2.05563 16.05C1.24793 15.0119 0.658535 13.8209 0.322898 12.549C-0.0127393 11.277 -0.0876802 9.95027 0.102584 8.64857C0.346881 6.68967 1.18778 4.85339 2.51115 3.38896C4.0079 1.66802 6.05772 0.523055 8.30757 0.151276C8.65797 0.0885519 9.01944 0.0498105 9.37907 0ZM12.7134 14.2698C12.9495 14.648 13.1837 15.0077 13.4087 15.3767C13.477 15.4892 13.547 15.4966 13.6632 15.4597C14.8725 15.0723 16.0119 14.4937 17.0382 13.7458C17.1121 13.6875 17.161 13.603 17.1746 13.5097C17.445 10.6889 16.708 7.86352 15.0943 5.5345C15.0457 5.45561 14.9761 5.39175 14.8933 5.35001C14.0218 4.95718 13.1041 4.67638 12.162 4.5143C12.1267 4.51223 12.0914 4.51889 12.0592 4.53369C12.027 4.54849 11.999 4.57097 11.9776 4.59917C11.8793 4.77465 11.79 4.95507 11.7102 5.1397C11.6714 5.22641 11.6346 5.26884 11.5258 5.25224C10.5124 5.1148 9.48509 5.1148 8.47171 5.25224C8.4382 5.2504 8.40559 5.24077 8.37646 5.22412C8.34732 5.20747 8.32247 5.18425 8.30388 5.15631C8.20614 4.98105 8.12315 4.79656 8.03462 4.61208C8.02896 4.59221 8.01933 4.57369 8.00632 4.55764C7.99331 4.54159 7.97719 4.52834 7.95892 4.51868C7.94066 4.50903 7.92063 4.50318 7.90004 4.50147C7.87946 4.49977 7.85874 4.50225 7.83914 4.50877C6.89247 4.68257 5.97038 4.97062 5.09307 5.36662C5.02355 5.40007 4.96384 5.4509 4.91972 5.5142C3.3104 7.85795 2.57181 10.6912 2.83205 13.5226C2.84108 13.6038 2.87984 13.6787 2.94086 13.7329C3.9856 14.5002 5.15037 15.0887 6.38773 15.4745C6.43199 15.4874 6.51682 15.4745 6.53711 15.4505C6.79161 15.0631 7.03874 14.6701 7.29878 14.2624C7.0498 14.1517 6.84694 14.0668 6.64776 13.9728C6.44859 13.8787 6.26785 13.7735 6.06683 13.6684C6.30658 13.4101 6.32133 13.4064 6.51682 13.4839C7.60553 13.9751 8.78565 14.2308 9.97997 14.2343C11.1743 14.2378 12.3559 13.989 13.4474 13.5042C13.6909 13.4009 13.7259 13.4119 13.9343 13.6776L12.7134 14.2698Z" fill="#606060"/>
<path d="M12.4134 12.0005C12.2337 12.0013 12.0562 11.9616 11.894 11.8843C11.7318 11.807 11.5891 11.6942 11.4765 11.5541C11.2521 11.2843 11.1239 10.9474 11.1122 10.5966C11.1005 10.2458 11.206 9.90114 11.4119 9.617C11.525 9.45448 11.6759 9.32194 11.8516 9.23082C12.0273 9.1397 12.2225 9.09275 12.4204 9.09402C12.6184 9.09529 12.813 9.14475 12.9875 9.23812C13.162 9.33148 13.3112 9.46596 13.4222 9.62991C13.6341 9.93612 13.7318 10.3071 13.6981 10.6781C13.6644 11.049 13.5014 11.3963 13.2377 11.6592C13.0182 11.8765 12.7222 11.999 12.4134 12.0005Z" fill="#606060"/>
<path d="M8.91203 10.5021C8.92118 10.9093 8.77552 11.3049 8.50446 11.609C8.38787 11.7408 8.24378 11.8454 8.08237 11.9154C7.92096 11.9854 7.74615 12.0192 7.57027 12.0142C7.3944 12.0093 7.22175 11.9658 7.06451 11.8869C6.90727 11.8079 6.76926 11.6954 6.66023 11.5573C6.4505 11.3007 6.32606 10.9851 6.30424 10.6544C6.28242 10.3237 6.36431 9.99439 6.53851 9.71246C6.66429 9.49729 6.85181 9.32489 7.07675 9.21765C7.30169 9.1104 7.55366 9.07327 7.79996 9.11105C8.06263 9.16531 8.30341 9.296 8.49208 9.48669C8.68074 9.67739 8.80888 9.9196 8.86039 10.1829C8.89175 10.3028 8.90097 10.4283 8.91203 10.5021Z" fill="#606060"/>
</svg>
