<svg width="20" height="20" viewBox="0 0 20 20" fill="none" xmlns="http://www.w3.org/2000/svg">
<path d="M11.5628 7.26562H9.71777V13.4686H11.6237C14.3506 13.4686 14.9761 11.3985 14.9761 10.3671C14.9779 8.68813 13.906 7.26562 11.5628 7.26562Z" fill="#606060"/>
<path d="M10 1.70283e-07C8.02219 1.70283e-07 6.08879 0.58649 4.4443 1.6853C2.79981 2.78412 1.51809 4.3459 0.761209 6.17316C0.00433288 8.00042 -0.1937 10.0111 0.192152 11.9509C0.578004 13.8907 1.53041 15.6725 2.92894 17.0711C4.32746 18.4696 6.10929 19.422 8.0491 19.8078C9.98891 20.1937 11.9996 19.9957 13.8268 19.2388C15.6541 18.4819 17.2159 17.2002 18.3147 15.5557C19.4135 13.9112 20 11.9778 20 10C20.0002 8.68671 19.7417 7.38624 19.2393 6.17288C18.7368 4.95951 18.0002 3.85702 17.0716 2.92839C16.143 1.99976 15.0405 1.26317 13.8271 0.760711C12.6138 0.25825 11.3133 -0.000242201 10 1.70283e-07V1.70283e-07ZM6.7417 9.9631V14.548H5.53506V6.18081H6.73801L6.7417 9.9631ZM6.14022 5.22694C5.98404 5.22694 5.83137 5.18062 5.70151 5.09385C5.57165 5.00708 5.47043 4.88375 5.41067 4.73946C5.3509 4.59517 5.33526 4.43639 5.36573 4.28321C5.3962 4.13003 5.47141 3.98933 5.58185 3.87889C5.69228 3.76845 5.83299 3.69324 5.98617 3.66277C6.13935 3.6323 6.29812 3.64794 6.44242 3.70771C6.58671 3.76748 6.71004 3.86869 6.79681 3.99855C6.88358 4.12841 6.92989 4.28109 6.92989 4.43727C6.9294 4.64655 6.84605 4.84712 6.69807 4.99511C6.55008 5.1431 6.34951 5.22645 6.14022 5.22694V5.22694ZM11.7731 14.5553H8.50738V6.18081H11.7583C14.8524 6.18081 16.2122 8.39483 16.2122 10.3672C16.2122 12.5166 14.5314 14.5553 11.7731 14.5553Z" fill="#606060"/>
</svg>
