<svg width="14" height="14" viewBox="0 0 14 14" fill="none" xmlns="http://www.w3.org/2000/svg">
<path d="M1.81241 7.7821L1.81239 7.78209L1.81092 7.78363L1.7204 7.87808L1.72039 7.87806L1.71894 7.87964C0.596707 9.10194 0.627861 11.003 1.81241 12.1876C3.02895 13.4041 5.00135 13.4041 6.2179 12.1876L7.92352 10.482L7.92364 10.4821L7.92748 10.4778L7.97434 10.4252L7.97446 10.4253L7.97807 10.4207C8.19666 10.1447 8.17851 9.74272 7.92352 9.48773C7.64897 9.21318 7.20384 9.21318 6.92929 9.48773L5.22468 11.1923L5.14946 11.2633C4.47835 11.8599 3.44988 11.8366 2.80664 11.1934C2.1392 10.5259 2.1392 9.44378 2.80664 8.77634L4.51227 7.07071L4.51239 7.07083L4.51622 7.06652L4.56308 7.01392L4.56321 7.01404L4.56681 7.00948C4.7854 6.73345 4.76726 6.33146 4.51227 6.07648C4.23772 5.80193 3.79258 5.80193 3.51803 6.07648L1.81241 7.7821ZM12.1876 1.81241C10.9711 0.595864 8.99865 0.595864 7.7821 1.81241L6.07648 3.51803C5.80193 3.79258 5.80193 4.23772 6.07648 4.51227C6.35103 4.78682 6.79616 4.78682 7.07071 4.51227L8.77634 2.80664C9.44378 2.1392 10.5259 2.1392 11.1934 2.80664C11.8608 3.47408 11.8608 4.55622 11.1934 5.22366L9.48773 6.92929C9.21318 7.20384 9.21318 7.64897 9.48773 7.92352C9.76228 8.19807 10.2074 8.19807 10.482 7.92352L12.1876 6.2179C13.4041 5.00135 13.4041 3.02895 12.1876 1.81241ZM8.77634 5.22366C8.50179 4.94911 8.05665 4.94911 7.7821 5.22366L5.22366 7.7821C4.94911 8.05665 4.94911 8.50179 5.22366 8.77634C5.49821 9.05089 5.94335 9.05089 6.2179 8.77634L8.77634 6.2179C9.05089 5.94335 9.05089 5.49821 8.77634 5.22366Z" fill="#949494" stroke="#949494" stroke-width="0.2"/>
</svg>
