<svg width="24" height="18" viewBox="0 0 24 18" fill="none" xmlns="http://www.w3.org/2000/svg">
<path d="M23.3728 7.9334C23.3728 6.38385 21.8973 5.02469 19.216 4.0701C18.4455 2.89321 17.4117 1.91184 16.1962 1.2037C15.5398 0.82216 14.8367 0.527081 14.1046 0.325796C12.2709 -0.18175 10.3235 -0.0944875 8.54259 0.575025C6.76166 1.24454 5.23904 2.46178 4.19384 4.05159C1.48873 4.9956 0 6.36799 0 7.9334C0.00232688 8.30017 0.0872861 8.6617 0.248563 8.99112C0.0872861 9.32053 0.00232688 9.68206 0 10.0488C0 11.609 1.48873 12.9813 4.19384 13.928C5.23961 15.5163 6.76211 16.7322 8.54244 17.4007C10.3228 18.0692 12.2692 18.156 14.102 17.6485C14.8341 17.4472 15.5371 17.1521 16.1936 16.7706C17.4085 16.064 18.4423 15.0845 19.2134 13.9095C21.8947 12.9575 23.3728 11.5984 23.3728 10.0488C23.3692 9.68222 23.2843 9.32098 23.1243 8.99112C23.2843 8.66125 23.3692 8.30001 23.3728 7.9334ZM20.6254 10.0621C20.6413 9.93513 20.6492 9.81084 20.6598 9.68392C20.6598 9.63103 20.6598 9.57815 20.6598 9.52526C20.6704 9.34898 20.6757 9.17269 20.6757 8.9964C20.6757 8.81659 20.6757 8.63678 20.6598 8.46755C20.6598 8.38822 20.6598 8.30889 20.6386 8.22956C20.6175 8.15023 20.6386 8.03124 20.6122 7.9334V7.91754C21.1202 8.1892 21.5731 8.5533 21.9476 8.99112L21.9291 9.01227L21.9105 9.03607C21.8524 9.10746 21.7915 9.17622 21.7228 9.24761L21.6276 9.33752C21.5694 9.39305 21.506 9.45122 21.4399 9.50675L21.3235 9.60195L21.1067 9.7606L20.9745 9.85315C20.8898 9.90868 20.7973 9.96686 20.71 10.0224L20.6228 10.0779L20.6254 10.0621ZM22.3733 7.9334C22.3733 7.9334 22.3733 7.95456 22.3733 7.96778C21.7871 7.41897 21.1132 6.97209 20.3795 6.64564C20.3398 6.49756 20.2975 6.35212 20.2526 6.20668V6.16702C20.1838 5.95283 20.1045 5.74393 20.0172 5.53768L19.9934 5.47686L19.9776 5.4372C21.4927 6.16173 22.3733 7.05286 22.3733 7.9334ZM18.4703 4.76026C19.2638 6.02903 19.6861 7.49466 19.6893 8.99112C19.6893 9.1392 19.6893 9.28728 19.6893 9.43536C19.6893 9.4856 19.6893 9.53584 19.6893 9.58344C19.6893 9.68216 19.6814 9.77999 19.6655 9.87695L19.6417 10.0515C19.6312 10.1414 19.6179 10.2295 19.6021 10.3159C19.6021 10.3794 19.5809 10.4402 19.5704 10.501L19.5466 10.6174L19.5095 10.6332C19.3112 10.7152 19.105 10.7945 18.8934 10.8686L18.7744 10.895C18.5602 10.969 18.3408 11.0404 18.1133 11.1065L18.0155 11.1356C17.7828 11.2017 17.5448 11.2652 17.2989 11.3234L17.2302 11.3392C16.9657 11.4001 16.7013 11.4582 16.4369 11.5111C16.1724 11.564 15.908 11.609 15.6198 11.6513H15.5352C15.2707 11.6909 15.0063 11.7253 14.7419 11.757L14.6123 11.7729C14.3479 11.802 14.0835 11.8284 13.8058 11.8496H13.6577C13.3933 11.8681 13.1104 11.884 12.8327 11.8945H12.7745C12.7745 11.8945 12.7745 11.8681 12.756 11.8522C12.7375 11.8364 12.7217 11.7597 12.7031 11.7121C12.6846 11.6645 12.6476 11.5561 12.6212 11.4767L12.5736 11.3287C12.5498 11.252 12.526 11.1727 12.5048 11.096C12.4837 11.0193 12.4757 10.9928 12.4625 10.94L12.407 10.7099L12.3753 10.5512C12.3594 10.4719 12.3435 10.3952 12.3303 10.3159C12.3171 10.2366 12.3118 10.2101 12.3039 10.1572L12.2721 9.91397C12.2721 9.86373 12.2589 9.81349 12.2563 9.76325C12.2563 9.67334 12.2404 9.58079 12.2351 9.49882C12.2351 9.45651 12.2351 9.4142 12.2351 9.36925C12.2351 9.23703 12.2351 9.10482 12.2351 8.96732C12.2317 7.07294 12.905 5.23964 14.1337 3.79774C14.2765 3.63115 14.4246 3.46985 14.5806 3.31648C14.6282 3.26624 14.6837 3.22129 14.734 3.17369C14.8397 3.07056 14.9481 2.97008 15.0592 2.87489L15.2549 2.71887C15.3606 2.6369 15.4638 2.55493 15.5722 2.4756L15.7943 2.32487L15.9873 2.20324C16.9933 2.8556 17.8414 3.72363 18.4703 4.7444V4.76026ZM14.4642 2.0578C14.4272 2.08689 14.3928 2.12126 14.3558 2.153C14.2157 2.27199 14.0755 2.39891 13.9433 2.52848C13.8957 2.57079 13.8508 2.61575 13.8058 2.6607C13.6445 2.82464 13.4859 2.99123 13.3351 3.1684C12.7801 3.82306 12.3207 4.55309 11.9707 5.33671C11.4602 6.48724 11.198 7.73244 11.2012 8.99112C11.2012 9.13655 11.2012 9.28199 11.2012 9.42478V9.55964C11.2012 9.66276 11.2012 9.76325 11.225 9.86373L11.2409 10.0118C11.2409 10.1123 11.2647 10.2101 11.2779 10.3106C11.2779 10.3556 11.2911 10.3979 11.299 10.4428C11.3202 10.5803 11.3466 10.7205 11.3757 10.8553C11.4048 10.9955 11.4392 11.1356 11.4762 11.2731C11.4762 11.3154 11.5 11.3551 11.5106 11.3974C11.5397 11.4953 11.5661 11.5931 11.5978 11.6883C11.5978 11.7359 11.6269 11.7835 11.6428 11.8311C11.6587 11.8787 11.6666 11.9051 11.6798 11.9395C11.4154 11.9395 11.1509 11.9395 10.8865 11.9263H10.6221C10.4502 11.9263 10.2757 11.9263 10.0932 11.9025L9.78914 11.8813L9.32639 11.8469L9.00643 11.8179L8.74201 11.7861L8.72614 11.7306C8.70763 11.683 8.69176 11.6328 8.67325 11.5852C8.65474 11.5376 8.62566 11.445 8.6045 11.3736C8.58335 11.3022 8.57277 11.2731 8.55955 11.2202C8.54633 11.1674 8.51989 11.0827 8.50138 11.014C8.48287 10.9452 8.47229 10.9082 8.46171 10.8553C8.45113 10.8025 8.42733 10.7152 8.41411 10.6464C8.40089 10.5777 8.39032 10.5407 8.38238 10.4878C8.37445 10.4349 8.35594 10.345 8.34272 10.2736L8.31892 10.1176C8.31892 10.0409 8.30041 9.96686 8.29248 9.89017C8.28454 9.81349 8.29248 9.79233 8.27397 9.74209C8.25546 9.69185 8.27397 9.5755 8.25546 9.47766V9.35338C8.25546 9.22646 8.25546 9.09953 8.25546 8.97261C8.25036 7.07333 8.92685 5.23526 10.162 3.79245C10.2916 3.64173 10.4264 3.49629 10.5613 3.35615L10.6961 3.23186C10.7913 3.13667 10.8892 3.04853 10.9896 2.96744C11.0452 2.91984 11.106 2.87489 11.1642 2.82729C11.2223 2.77969 11.3466 2.67128 11.4445 2.59988C11.5423 2.52848 11.5767 2.50733 11.6454 2.45973C11.7142 2.41214 11.8279 2.32752 11.9099 2.2667L12.132 2.13449C12.2245 2.07896 12.3144 2.02343 12.4096 1.97054C12.5048 1.91765 12.5683 1.89121 12.6476 1.85155L12.9306 1.7114L13.195 1.60563C13.2902 1.56861 13.3854 1.5263 13.4832 1.49193L13.7476 1.40202L13.975 1.32269C14.306 1.42035 14.6302 1.5396 14.9455 1.67967C14.7816 1.80395 14.6202 1.92823 14.4642 2.0578ZM11.6983 1.00009C11.8305 1.00009 11.9627 1.00009 12.095 1.00009L12.0209 1.05826L11.8993 1.11115C11.7486 1.19312 11.6005 1.28038 11.4524 1.37558L11.3757 1.42317C11.2118 1.52894 11.0531 1.64 10.8971 1.75371L10.7887 1.83568C10.6432 1.94674 10.5031 2.0578 10.3656 2.17679L10.3206 2.21381C10.1726 2.3425 10.0298 2.47736 9.89227 2.61839C9.85789 2.65012 9.82616 2.6845 9.79179 2.71887C9.65428 2.86166 9.52736 3.0071 9.38721 3.16047C8.00303 4.7829 7.24184 6.84523 7.24005 8.97789C7.24005 9.17886 7.24005 9.37983 7.26121 9.57815C7.26121 9.62839 7.26121 9.67599 7.26121 9.72623C7.27972 9.92455 7.29823 10.1202 7.32731 10.3159C7.32859 10.3264 7.32859 10.3371 7.32731 10.3476C7.3564 10.5354 7.39342 10.7205 7.43308 10.9056L7.46482 11.0431C7.50977 11.2361 7.56001 11.4265 7.61818 11.6169L7.08933 11.527H7.03909C6.85927 11.4926 6.67946 11.4582 6.51023 11.4186L6.34628 11.371L5.95757 11.2811L5.7619 11.2308L5.37319 11.1251L5.21982 11.0801C5.04265 11.0272 4.87077 10.9743 4.70418 10.9188L4.63014 10.8924L4.21235 10.7416L4.06427 10.6835L3.88445 10.6094C3.88445 10.5671 3.86594 10.5248 3.85801 10.4825L3.82364 10.3133C3.80777 10.2198 3.79455 10.1273 3.78397 10.0356C3.78397 9.97743 3.76811 9.9219 3.76282 9.86637C3.7496 9.76589 3.74166 9.66541 3.73373 9.56493C3.73373 9.51733 3.73373 9.46973 3.73373 9.42213C3.73373 9.27405 3.72051 9.12597 3.72051 8.97789C3.72197 8.34474 3.79651 7.71387 3.94263 7.09781C4.0008 6.86247 4.0722 6.62977 4.14888 6.39972C4.34624 5.81239 4.61253 5.25052 4.94217 4.72588C5.65949 3.58246 6.65608 2.64046 7.83806 1.98863C9.02005 1.33681 10.3485 0.996609 11.6983 1.00009ZM2.7765 7.90167C2.76328 8.02331 2.75534 8.14494 2.74477 8.26394C2.74477 8.32476 2.73155 8.38293 2.7289 8.44375C2.7289 8.62356 2.71039 8.80602 2.71039 8.97261C2.71039 9.1392 2.71039 9.33487 2.7289 9.51468C2.7289 9.5755 2.7289 9.63632 2.74477 9.69978C2.74477 9.81878 2.76328 9.93777 2.7765 10.0568C2.77796 10.0628 2.77796 10.0692 2.7765 10.0753L2.69717 10.0488C2.59669 9.99065 2.49885 9.92984 2.40365 9.86902L2.27408 9.77911L2.05196 9.61517L1.93297 9.51997C1.86422 9.46444 1.80076 9.40627 1.73994 9.34809C1.67912 9.28992 1.67383 9.28992 1.64474 9.25819C1.57599 9.18591 1.51253 9.11452 1.45436 9.044L1.43849 9.02549L1.41469 8.99112C1.79627 8.54189 2.25919 8.16869 2.77914 7.89109C2.77869 7.89471 2.77781 7.89826 2.7765 7.90167ZM3.43757 5.42662C3.42983 5.44091 3.42363 5.45598 3.41906 5.47157C3.41906 5.49273 3.40055 5.51653 3.38997 5.54032C3.30536 5.74393 3.22603 5.95283 3.15728 6.16173C3.15728 6.17495 3.15728 6.19082 3.14405 6.20404C3.09646 6.34683 3.05415 6.49227 3.01448 6.6377C2.27153 6.9617 1.58854 7.40868 0.994251 7.95984C0.994251 7.94662 0.994251 7.93605 0.994251 7.92547C0.99954 7.04492 1.89331 6.14587 3.43757 5.42662ZM5.81743 14.4172L5.94964 14.4463C6.16647 14.4965 6.38859 14.5441 6.61336 14.5891L6.8011 14.6261C7.08139 14.6816 7.36698 14.7292 7.65785 14.7742L7.85088 14.8006C8.08887 14.835 8.32685 14.8667 8.56748 14.8932L8.83191 14.9222C9.06813 14.9452 9.30612 14.9663 9.54587 14.9857C10.2691 15.7986 11.1348 16.4725 12.1002 16.9742C11.968 16.9742 11.8358 16.9742 11.701 16.9742C10.5955 16.9782 9.50136 16.7516 8.48834 16.3091C7.47532 15.8666 6.56567 15.2177 5.81743 14.404V14.4172ZM14.808 16.3422L14.6335 16.411L14.3532 16.5194L14.1601 16.5829L13.9539 16.6463C12.8771 16.3299 11.8796 15.7892 11.0267 15.0597H12.3488H12.5075H12.7719H12.8354H12.994H13.1474H13.2664H13.4039H13.507C13.937 15.5394 14.4175 15.9711 14.9402 16.3475L14.808 16.3422ZM17.172 14.8085L17.0371 14.9275C16.9393 15.0148 16.8414 15.1021 16.741 15.192L16.5691 15.3242C16.4774 15.3982 16.3822 15.4696 16.2835 15.5384L16.0958 15.6653L15.9371 15.7658C15.5359 15.5046 15.1581 15.2091 14.808 14.8826L14.9984 14.8588L15.3633 14.8085L15.6462 14.7689L15.7943 14.7477L16.0587 14.7028L16.3946 14.6472L16.6378 14.6023L16.7753 14.5732L17.0689 14.5124L17.4126 14.4357L17.5845 14.396C17.4523 14.5441 17.3121 14.671 17.172 14.8085ZM18.7295 13.0289C17.0933 13.5575 15.3975 13.8799 13.6815 13.9888C13.076 14.0364 12.4228 14.0602 11.7671 14.0629C11.4392 14.0629 11.1086 14.0629 10.7807 14.0629C10.4529 14.0629 10.1303 14.0338 9.81558 14.0126C8.06948 13.9095 6.3433 13.587 4.67774 13.0527C2.37986 12.2568 0.99954 11.1383 0.99954 10.0488V10.0197C1.02863 10.0515 1.063 10.0806 1.09473 10.1096L1.16613 10.1731C1.25868 10.2577 1.35652 10.3397 1.46229 10.419L1.51253 10.456C1.60508 10.5274 1.70292 10.5962 1.8034 10.6649L1.89595 10.7258C2.01495 10.8025 2.13923 10.8791 2.2688 10.9532L2.30582 10.9743C2.42745 11.0431 2.55438 11.1092 2.68395 11.1753L2.79765 11.2335C2.9378 11.3022 3.08059 11.371 3.23132 11.4371H3.24718C4.87459 12.1099 6.58937 12.5479 8.34007 12.7381C9.45071 12.8744 10.5688 12.9416 11.6877 12.939C11.9522 12.939 12.1954 12.939 12.444 12.939C15.395 12.8623 18.1319 12.3282 20.1521 11.4344C20.3081 11.3657 20.4535 11.2943 20.599 11.2229L20.6519 11.1964C20.6712 11.1884 20.6897 11.1786 20.7074 11.1674C20.837 11.1013 20.9718 11.0351 21.0855 10.9664L21.1173 10.9479C21.2468 10.8738 21.3685 10.7972 21.4848 10.7205L21.58 10.657C21.6778 10.5909 21.7757 10.5222 21.8656 10.4534L21.9158 10.4164C22.019 10.3371 22.1142 10.2551 22.2067 10.1731C22.2326 10.1516 22.2574 10.1286 22.2807 10.1044L22.3706 10.0224V10.0488C22.3733 11.1356 21.0115 12.2489 18.7295 13.0236V13.0289Z" fill="white"/>
</svg>
