<svg width="25" height="19" viewBox="0 0 25 19" fill="none" xmlns="http://www.w3.org/2000/svg">
<path d="M9.57401 10.2748H14.7637C14.9218 10.2643 15.0701 10.1942 15.1784 10.0785C15.2867 9.96277 15.347 9.81021 15.347 9.65172C15.347 9.49324 15.2867 9.34068 15.1784 9.22498C15.0701 9.10929 14.9218 9.03912 14.7637 9.0287H9.57401C9.48874 9.02308 9.40323 9.03502 9.32276 9.06379C9.24229 9.09255 9.16859 9.13753 9.10621 9.19594C9.04383 9.25434 8.9941 9.32493 8.96011 9.40333C8.92611 9.48173 8.90857 9.56627 8.90857 9.65172C8.90857 9.73718 8.92611 9.82172 8.96011 9.90012C8.9941 9.97852 9.04383 10.0491 9.10621 10.1075C9.16859 10.1659 9.24229 10.2109 9.32276 10.2397C9.40323 10.2684 9.48874 10.2804 9.57401 10.2748Z" fill="white"/>
<path d="M13.3094 12.7643H11.0255C10.8673 12.7747 10.7191 12.8449 10.6107 12.9606C10.5024 13.0763 10.4421 13.2288 10.4421 13.3873C10.4421 13.5458 10.5024 13.6984 10.6107 13.8141C10.7191 13.9298 10.8673 13.9999 11.0255 14.0103H13.3094C13.3947 14.016 13.4802 14.004 13.5607 13.9753C13.6412 13.9465 13.7149 13.9015 13.7772 13.8431C13.8396 13.7847 13.8894 13.7141 13.9234 13.6357C13.9573 13.5573 13.9749 13.4728 13.9749 13.3873C13.9749 13.3019 13.9573 13.2173 13.9234 13.1389C13.8894 13.0605 13.8396 12.9899 13.7772 12.9315C13.7149 12.8731 13.6412 12.8281 13.5607 12.7994C13.4802 12.7706 13.3947 12.7587 13.3094 12.7643Z" fill="white"/>
<path d="M11.0255 6.53696H13.3094C13.3947 6.54258 13.4802 6.53064 13.5607 6.50187C13.6412 6.4731 13.7149 6.42812 13.7772 6.36972C13.8396 6.31132 13.8894 6.24073 13.9234 6.16233C13.9573 6.08393 13.9749 5.99938 13.9749 5.91393C13.9749 5.82848 13.9573 5.74393 13.9234 5.66553C13.8894 5.58713 13.8396 5.51655 13.7772 5.45814C13.7149 5.39974 13.6412 5.35476 13.5607 5.32599C13.4802 5.29723 13.3947 5.28528 13.3094 5.2909H11.0255C10.8673 5.30132 10.7191 5.3715 10.6107 5.48719C10.5024 5.60289 10.4421 5.75544 10.4421 5.91393C10.4421 6.07242 10.5024 6.22498 10.6107 6.34067C10.7191 6.45637 10.8673 6.52654 11.0255 6.53696Z" fill="white"/>
<path d="M15.1772 0.930911C14.1044 0.930074 13.0403 1.12329 12.0364 1.50123C10.6872 0.998123 9.23637 0.8291 7.80772 1.00861C6.37907 1.18811 5.01512 1.71081 3.83239 2.53204C2.64967 3.35327 1.68333 4.44862 1.01596 5.7245C0.34858 7.00038 0 8.41886 0 9.85874C0 11.2986 0.34858 12.7171 1.01596 13.993C1.68333 15.2689 2.64967 16.3642 3.83239 17.1854C5.01512 18.0067 6.37907 18.5294 7.80772 18.7089C9.23637 18.8884 10.6872 18.7194 12.0364 18.2162C13.258 18.6681 14.5637 18.847 15.8618 18.7402C17.16 18.6335 18.419 18.2437 19.5503 17.5984C20.6817 16.953 21.658 16.0677 22.4107 15.0047C23.1633 13.9416 23.674 12.7267 23.9069 11.4452C24.1397 10.1636 24.0891 8.84666 23.7585 7.58681C23.428 6.32695 22.8255 5.15477 21.9935 4.15265C21.1615 3.15053 20.1201 2.3428 18.9425 1.7862C17.7649 1.22961 16.4797 0.937677 15.1772 0.930911ZM8.88473 17.5405C6.8474 17.5405 4.89351 16.7312 3.4529 15.2906C2.01229 13.85 1.20296 11.8961 1.20296 9.85874C1.20296 7.82141 2.01229 5.86752 3.4529 4.42691C4.89351 2.9863 6.8474 2.17697 8.88473 2.17697C9.38757 2.17676 9.88918 2.22656 10.3822 2.32563C9.11277 3.13049 8.06735 4.24306 7.34299 5.56004C6.61863 6.87702 6.23881 8.3557 6.23881 9.85874C6.23881 11.3618 6.61863 12.8405 7.34299 14.1574C8.06735 15.4744 9.11277 16.587 10.3822 17.3918C9.88918 17.4909 9.38757 17.5407 8.88473 17.5405ZM12.0364 2.85271C13.3883 3.45806 14.5361 4.44163 15.3416 5.68476C16.147 6.92789 16.5755 8.3775 16.5755 9.85874C16.5755 11.34 16.147 12.7896 15.3416 14.0327C14.5361 15.2759 13.3883 16.2594 12.0364 16.8648C10.6845 16.2594 9.53659 15.2759 8.73117 14.0327C7.92576 12.7896 7.4972 11.34 7.4972 9.85874C7.4972 8.3775 7.92576 6.92789 8.73117 5.68476C9.53659 4.44163 10.6845 3.45806 12.0364 2.85271ZM15.1772 17.5405C14.6744 17.5406 14.1728 17.4908 13.6798 17.3918C14.9491 16.587 15.9946 15.4744 16.7189 14.1574C17.4433 12.8405 17.8231 11.3618 17.8231 9.85874C17.8231 8.3557 17.4433 6.87702 16.7189 5.56004C15.9946 4.24306 14.9491 3.13049 13.6798 2.32563C14.1728 2.22668 14.6744 2.17689 15.1772 2.17697C17.2145 2.17697 19.1684 2.9863 20.609 4.42691C22.0496 5.86752 22.859 7.82141 22.859 9.85874C22.859 11.8961 22.0496 13.85 20.609 15.2906C19.1684 16.7312 17.2145 17.5405 15.1772 17.5405Z" fill="white"/>
</svg>
