<svg width="27" height="17" viewBox="0 0 27 17" fill="none" xmlns="http://www.w3.org/2000/svg">
<path d="M24.7323 2.48192C23.9452 1.69307 22.8931 1.22476 21.7802 1.16789C20.6673 1.11102 19.5729 1.46965 18.7096 2.17418C17.1065 0.738048 15.0193 -0.0381857 12.8674 0.00144612C10.7155 0.0410779 8.65829 0.893638 7.10919 2.38782C7.08415 2.40842 7.06037 2.43051 7.03797 2.45395L1.31791 8.17656C0.480971 9.01696 0.00770518 10.1525 9.32545e-05 11.3386C-0.00751867 12.5246 0.451132 13.6661 1.27721 14.5172C2.06412 15.3181 3.12161 15.7964 4.24265 15.8585C5.3637 15.9206 6.46755 15.562 7.33809 14.8529C8.96688 16.2891 11.0792 17.0549 13.2499 16.9964C15.4206 16.9379 17.4886 16.0593 19.0376 14.5376L24.7348 8.85055C25.5748 8.00565 26.0462 6.86269 26.0462 5.67132C26.0462 4.47996 25.5748 3.337 24.7348 2.4921L24.7323 2.48192ZM8.11637 12.7318L7.35335 13.4948C5.63148 11.5974 5.02616 8.50974 5.86547 6.15965C6.02825 7.83574 6.85739 9.69241 8.19521 11.3456C8.35507 11.5458 8.43542 11.798 8.42088 12.0538C8.40633 12.3095 8.2979 12.551 8.11637 12.7318ZM17.2497 3.59593C17.0676 3.78209 16.8229 3.89402 16.5631 3.91C16.3032 3.92598 16.0466 3.84487 15.8432 3.6824C14.195 2.34713 12.346 1.52561 10.6725 1.36029C10.8581 1.3018 11.0489 1.24838 11.2473 1.20006C12.4223 0.916403 13.6481 0.917998 14.8224 1.20471C15.9967 1.49142 17.0853 2.05493 17.9974 2.84817L17.2497 3.59593ZM15.3548 4.97953C15.3654 5.12991 15.3436 5.28082 15.291 5.42208C15.2383 5.56335 15.156 5.6917 15.0496 5.79849C14.8593 5.98992 14.6021 6.10006 14.3322 6.10575C14.0623 6.11144 13.8007 6.01224 13.6024 5.82901C12.547 4.84129 11.4065 3.9485 10.1943 3.16101C9.78481 2.89806 9.35437 2.66923 8.90736 2.47684C10.5428 1.98851 12.8649 2.64979 14.9479 4.22414C15.0655 4.31387 15.1627 4.42766 15.2329 4.55792C15.303 4.68818 15.3446 4.83192 15.3548 4.97953ZM10.6877 12.0476C10.6693 11.8357 10.7156 11.6233 10.8205 11.4383C10.9255 11.2533 11.0841 11.1046 11.2754 11.0117C11.4667 10.9188 11.6816 10.8861 11.8919 10.9181C12.1021 10.95 12.2977 11.045 12.4528 11.1905C13.3354 11.9942 15.4693 13.8483 17.1327 14.5452C15.4973 15.0284 13.1802 14.3671 11.1023 12.7953C10.9839 12.7074 10.8857 12.5952 10.8142 12.4663C10.7427 12.3373 10.6996 12.1946 10.6877 12.0476ZM12.8649 7.97817L12.4757 8.36731C12.3752 8.4665 12.256 8.54477 12.125 8.59759C11.9941 8.65041 11.8539 8.67674 11.7127 8.67506C11.5709 8.67158 11.4313 8.63936 11.3023 8.58034C11.1734 8.52132 11.0577 8.43673 10.9624 8.3317C9.49234 6.73954 7.55428 4.14275 7.70434 3.20425C8.68863 3.05164 11.3541 5.08635 12.8394 6.45723C12.9457 6.55293 13.0312 6.66936 13.0907 6.79935C13.1503 6.92934 13.1826 7.07015 13.1857 7.2131C13.1888 7.35605 13.1626 7.49812 13.1088 7.63057C13.0549 7.76302 12.9745 7.88305 12.8725 7.98326L12.8649 7.97817ZM13.1675 9.05911L13.5592 8.66997C13.6557 8.57259 13.7706 8.49543 13.8972 8.44302C14.0239 8.39061 14.1597 8.36401 14.2968 8.36477H14.3222C14.4663 8.36575 14.6086 8.39679 14.74 8.45592C14.8714 8.51504 14.9889 8.60094 15.0852 8.70812C17.4836 11.3303 18.3764 13.187 18.3764 13.7338C18.3764 13.8127 18.3408 13.833 18.3128 13.8458C17.888 14.0212 15.8762 12.9835 13.2133 10.5775C13.1073 10.4803 13.0222 10.3625 12.9632 10.2313C12.9042 10.1001 12.8724 9.95831 12.8699 9.81449C12.8664 9.67364 12.8916 9.53354 12.9441 9.40277C12.9966 9.27201 13.0752 9.15334 13.1752 9.05402L13.1675 9.05911ZM10.3088 10.5394C10.2018 10.6455 10.0734 10.7276 9.93218 10.7802C9.79096 10.8329 9.64015 10.8548 9.48979 10.8446C9.34059 10.8354 9.19512 10.7941 9.06341 10.7234C8.93169 10.6528 8.81685 10.5544 8.72678 10.4351C7.15497 8.35459 6.49369 6.03503 6.97947 4.39963C7.17349 4.84505 7.40225 5.27452 7.66364 5.68404C8.45128 6.89684 9.34496 8.03735 10.3342 9.09217C10.5175 9.29007 10.6172 9.55117 10.6125 9.82088C10.6077 10.0906 10.4989 10.348 10.3088 10.5394ZM8.79799 13.4312C8.98035 13.2454 9.22521 13.1339 9.48508 13.1184C9.74495 13.1029 10.0013 13.1845 10.2045 13.3473C11.8551 14.68 13.7042 15.5142 15.3777 15.6668C15.1929 15.7245 15.0021 15.7779 14.8055 15.827C13.6301 16.1122 12.4035 16.1114 11.2286 15.8246C10.0537 15.5378 8.9646 14.9735 8.05278 14.1789L8.79799 13.4312ZM15.7389 6.49284C15.8449 6.38674 15.9724 6.30456 16.1128 6.25184C16.2532 6.19913 16.4032 6.17709 16.5529 6.18721C16.7025 6.19733 16.8483 6.23937 16.9803 6.31052C17.1123 6.38166 17.2276 6.48025 17.3183 6.59966C18.529 8.20199 19.2208 9.97981 19.2208 11.4804C19.2249 11.8668 19.1718 12.2516 19.0631 12.6224C18.3662 10.959 16.5197 8.82512 15.7084 7.94256C15.5256 7.74359 15.4267 7.4817 15.4324 7.21157C15.4381 6.94143 15.5479 6.68394 15.7389 6.49284ZM20.551 8.52754C20.5522 9.32664 20.426 10.1208 20.1771 10.8802C20.0168 9.20662 19.1928 7.35504 17.8575 5.70439C17.6951 5.50092 17.6139 5.24437 17.6299 4.98449C17.6459 4.72461 17.7578 4.47993 17.944 4.2979L18.6892 3.55269C19.8917 4.92681 20.5534 6.69138 20.551 8.51737V8.52754ZM19.4039 2.88124C20.0179 2.40329 20.775 2.14614 21.5531 2.15128C22.0155 2.14749 22.4739 2.23749 22.9005 2.41584C23.3272 2.5942 23.7133 2.85721 24.0354 3.18898C24.3631 3.51554 24.6232 3.9036 24.8006 4.33088C24.9781 4.75817 25.0694 5.21629 25.0694 5.67896C25.0694 6.14162 24.9781 6.59974 24.8006 7.02703C24.6232 7.45431 24.3631 7.84237 24.0354 8.16893L21.1487 11.0531C21.5772 9.65343 21.6419 8.16762 21.3366 6.73599C21.0313 5.30436 20.3661 3.97418 19.4039 2.87106V2.88124ZM6.64629 14.1586C6.19292 14.5104 5.65913 14.7439 5.09303 14.838C4.52693 14.9322 3.94631 14.884 3.40348 14.6978C2.83302 14.5196 2.31851 14.1965 1.91019 13.7601C1.50186 13.3237 1.21367 12.7889 1.07374 12.2078C0.931857 11.6178 0.943132 11.0013 1.1065 10.4168C1.26986 9.83233 1.57989 9.29932 2.00716 8.86836L4.90153 5.97399C4.64785 6.79792 4.51925 7.65526 4.52002 8.51737C4.51715 10.5941 5.27333 12.6004 6.64629 14.1586Z" fill="white"/>
</svg>
