<svg width="18" height="22" viewBox="0 0 18 22" fill="none" xmlns="http://www.w3.org/2000/svg">
<path d="M9.42352 9.78093C9.09772 8.93299 8.78008 8.27257 8.47057 7.79968C8.19365 7.32679 7.876 6.91098 7.51763 6.55223C7.06152 6.09565 6.44252 5.75321 5.66062 5.52492C4.87871 5.29663 4.08867 5.19063 3.29048 5.20694L5.19636 3.29907C6.01084 3.26646 6.76831 3.38876 7.46876 3.66597C8.18551 3.92688 8.83709 4.35085 9.42352 4.93788C9.89592 5.41077 10.3113 5.92443 10.6697 6.47885C11.0443 7.04958 11.4434 7.87306 11.867 8.9493C12.1928 9.79724 12.4941 10.4577 12.771 10.9305C13.0805 11.4034 13.4063 11.8111 13.7484 12.1535C14.2208 12.6264 14.848 12.977 15.6299 13.2053C16.4118 13.4336 17.2018 13.5396 18 13.5233L16.1185 15.4067C15.3041 15.4393 14.5385 15.3252 13.8217 15.0643C13.105 14.8034 12.4534 14.3794 11.867 13.7923C11.4109 13.3358 10.9873 12.814 10.5964 12.2269C10.238 11.6399 9.84705 10.8246 9.42352 9.78093Z" fill="white"/>
<path d="M6.13304 13.0749C5.80725 12.2269 5.4896 11.5665 5.1801 11.0936C4.90317 10.6207 4.58553 10.2049 4.22716 9.84617C3.77105 9.38958 3.15204 9.04714 2.37014 8.81885C1.58824 8.59056 0.798191 8.48457 0 8.50088L1.90589 6.59301C2.72037 6.5604 3.47783 6.68269 4.17829 6.95991C4.89503 7.22081 5.54661 7.64478 6.13304 8.23182C6.60544 8.70471 7.02082 9.21836 7.3792 9.77279C7.75386 10.3435 8.15295 11.167 8.57648 12.2432C8.90228 13.0912 9.20363 13.7516 9.48056 14.2245C9.79006 14.6974 10.1159 15.105 10.4579 15.4475C10.9303 15.9204 11.5575 16.271 12.3394 16.4992C13.1213 16.7275 13.9113 16.8335 14.7095 16.8172L12.8281 18.7006C12.0136 18.7332 11.248 18.6191 10.5312 18.3582C9.81449 18.0973 9.16291 17.6733 8.57648 17.0863C8.12037 16.6297 7.69684 16.1079 7.30589 15.5208C6.94752 14.9338 6.55657 14.1185 6.13304 13.0749Z" fill="white"/>
<path d="M11.7612 4.50576C12.0707 4.97865 12.3883 5.63907 12.7141 6.48701C12.8702 6.87167 13.0219 7.22532 13.1692 7.54796L15.1299 5.58523C14.7166 4.5433 14.3268 3.74319 13.9603 3.18493C13.6019 2.63051 13.1865 2.11685 12.7141 1.64396C12.1277 1.05692 11.4761 0.632952 10.7594 0.372047C10.0589 0.0948352 9.30146 -0.0274639 8.48698 0.00514955L6.58109 1.91302C7.37929 1.89671 8.16933 2.0027 8.95123 2.23099C9.73314 2.45929 10.3521 2.80172 10.8083 3.25831C11.1666 3.61705 11.4843 4.03287 11.7612 4.50576Z" fill="white"/>
<path d="M4.77008 14.3251L2.81074 16.2865C2.82134 16.3137 2.83195 16.3412 2.84257 16.3688C3.2661 17.4124 3.65705 18.2277 4.01542 18.8148C4.40637 19.4018 4.8299 19.9236 5.28601 20.3802C5.87244 20.9673 6.52402 21.3912 7.24077 21.6521C7.95751 21.913 8.72312 22.0272 9.5376 21.9946L11.4191 20.1112C10.6209 20.1275 9.83082 20.0215 9.04891 19.7932C8.26701 19.5649 7.63986 19.2143 7.16746 18.7414C6.82538 18.399 6.49959 17.9913 6.19009 17.5184C5.91316 17.0455 5.61181 16.3851 5.28601 15.5372C5.1098 15.0894 4.93783 14.6854 4.77008 14.3251Z" fill="white"/>
</svg>
