<svg width="21" height="22" viewBox="0 0 21 22" fill="none" xmlns="http://www.w3.org/2000/svg">
<path d="M19.949 5.94471C19.0983 4.1709 17.7652 2.67253 16.1024 1.62119C14.4396 0.569858 12.5143 0.00805402 10.5471 0.000116757H10.4835C8.69974 -0.00834164 6.94385 0.442904 5.38516 1.31035C3.82647 2.17779 2.51755 3.43218 1.5846 4.95256C0.629555 6.48987 0.0871025 8.2475 0.00964447 10.0557C-0.0678135 11.8638 0.322341 13.6614 1.14242 15.2748C2.82824 18.721 6.63377 21.0038 10.5029 21.0038C10.9029 21.0037 11.3026 20.9788 11.6995 20.9292C13.3639 20.7476 14.9592 20.1639 16.3477 19.2285C17.7363 18.293 18.8764 17.0338 19.6699 15.5594C20.492 14.0994 20.947 12.4614 20.9956 10.7865C21.0443 9.1116 20.6851 7.44998 19.949 5.94471ZM14.5405 12.5968C14.362 12.925 14.0831 13.1875 13.7446 13.3457C12.6392 13.9123 10.8649 13.7382 9.24541 12.898C7.62592 12.0579 6.40715 10.6374 6.26897 9.42137C6.2286 9.13181 6.2636 8.83673 6.37059 8.56466C6.47758 8.29258 6.65295 8.0527 6.87974 7.8682C8.4025 6.72405 11.1523 7.48405 12.9293 8.88246C14.4328 10.0653 15.0352 11.4582 14.5405 12.5968ZM14.6649 14.1748C15.0867 13.8853 15.4239 13.4888 15.6419 13.0259C15.86 12.5631 15.951 12.0507 15.9058 11.5411C15.7704 9.88289 14.3443 8.11693 12.2771 7.04464C11.9941 6.89858 11.7035 6.76759 11.4066 6.6522C11.9478 6.6768 12.4845 6.76208 13.0067 6.90645C14.0411 7.18435 14.9872 7.72236 15.7549 8.46926C16.5226 9.21617 17.0864 10.1471 17.3926 11.1735C17.7435 12.2609 17.814 13.4192 17.5975 14.5411C17.3811 15.6629 16.8847 16.7119 16.1545 17.5907C15.8628 17.9347 15.5338 18.2452 15.1734 18.5165C14.0806 19.2035 12.8431 19.6273 11.5586 19.7546C10.1574 19.912 8.73878 19.752 7.40785 19.2865C6.07691 18.821 4.86781 18.0619 3.87013 17.0656C1.05675 14.2826 0.363072 9.58718 2.2534 6.14369C1.98569 7.4809 2.06483 8.86439 2.48329 10.1624C2.90176 11.4603 3.6456 12.6295 4.64395 13.5585C5.84994 14.6261 7.35901 15.2908 8.96076 15.4599C10.9527 15.6878 12.9631 15.2349 14.6649 14.1748ZM8.37763 5.86732C7.83621 6.04257 7.31175 6.26642 6.81065 6.53613C6.20366 6.80389 5.70364 7.26694 5.39013 7.85162C4.95072 8.68071 4.95624 9.66733 5.40672 10.6788C6.08104 12.2126 7.71436 13.6276 9.51901 14.3296C8.38955 14.2728 7.29182 13.9367 6.32424 13.3513C5.59381 12.8871 4.96401 12.281 4.47219 11.5689C3.98037 10.8569 3.63655 10.0533 3.46111 9.2058C3.25485 8.34201 3.22416 7.44559 3.37085 6.56972C3.51754 5.69384 3.83863 4.85634 4.31508 4.10689C5.40948 2.24696 7.60105 1.2023 10.5029 1.18019C11.7493 1.1803 12.983 1.4309 14.1307 1.9171C15.2784 2.40331 16.3167 3.1152 17.1839 4.01049C18.0511 4.90579 18.7295 5.96624 19.1789 7.12884C19.6282 8.29145 19.8394 9.53251 19.7998 10.7783C19.761 12.1953 19.397 13.5843 18.7358 14.8381C19.0137 13.4787 18.9302 12.0702 18.4938 10.7532C18.0574 9.43608 17.2832 8.25648 16.2485 7.33205C14.7979 6.09268 12.9468 5.42196 11.039 5.44449C10.1351 5.44416 9.2369 5.58687 8.37763 5.86732Z" fill="white"/>
</svg>
