<svg width="20" height="20" viewBox="0 0 20 20" fill="none" xmlns="http://www.w3.org/2000/svg">
<path d="M20 10.1353C20.0019 12.4137 19.2465 14.6263 17.8558 16.4161C16.465 18.2059 14.52 19.4684 12.3345 20V18.2895C12.3345 17.6913 12.3345 17.0913 12.3345 16.4931C12.3583 15.9652 12.2302 15.4417 11.9657 14.9864C11.8938 14.8705 11.8053 14.7676 11.7168 14.6499C12.0671 14.5863 12.4064 14.5396 12.7402 14.4629C13.6788 14.2423 14.5178 13.8404 15.1263 13.0441C15.5486 12.4717 15.8191 11.7991 15.9119 11.0906C16.0142 10.5055 16.0309 9.90843 15.9616 9.31843C15.883 8.63943 15.6099 7.99866 15.1761 7.47523C15.1309 7.42588 15.1006 7.36453 15.0885 7.29833C15.0764 7.23214 15.0831 7.16383 15.1079 7.10136C15.3117 6.35504 15.2617 5.56089 14.9659 4.8469C14.9422 4.81275 14.9103 4.78535 14.8731 4.76734C14.836 4.74933 14.7949 4.74132 14.7538 4.74409C14.4542 4.76971 14.1588 4.83249 13.8742 4.93103C13.4077 5.13292 12.9651 5.39089 12.5171 5.63765C12.4642 5.67557 12.4037 5.70111 12.3399 5.71243C12.2761 5.72374 12.2107 5.72055 12.1483 5.70307C10.7103 5.33053 9.20303 5.33053 7.76507 5.70307C7.71016 5.71874 7.65247 5.72167 7.59628 5.71163C7.5401 5.7016 7.48686 5.67887 7.44053 5.64512C6.92175 5.27298 6.34435 4.99295 5.73299 4.81699C5.53435 4.77476 5.33272 4.74851 5.13 4.73848C5.0378 4.72726 4.98248 4.77961 4.9456 4.88055C4.66698 5.62071 4.63588 6.43315 4.85709 7.19296C4.86493 7.22636 4.86587 7.26104 4.85984 7.29482C4.85381 7.3286 4.84095 7.36075 4.82205 7.38924C4.01807 8.32393 3.83552 9.44555 3.96091 10.6326C4.01339 11.2212 4.16234 11.7967 4.40162 12.3356C4.79515 13.2014 5.51135 13.8737 6.39314 14.205C6.92143 14.4113 7.47357 14.5482 8.03614 14.6125C8.09515 14.6237 8.156 14.6368 8.18919 14.6405C8.05458 14.8929 7.91628 15.1396 7.79273 15.3883C7.74642 15.477 7.7182 15.5743 7.70975 15.6743C7.70975 15.9061 7.56223 15.9846 7.37046 16.0482C6.70109 16.2613 6.04831 16.2856 5.47667 15.8126C5.24501 15.6003 5.04223 15.3576 4.87369 15.091C4.63057 14.696 4.26369 14.3952 3.83183 14.2367C3.65159 14.1876 3.46519 14.1655 3.27863 14.1713C3.23211 14.1749 3.18706 14.1895 3.14706 14.2138C3.10705 14.2382 3.07318 14.2716 3.04813 14.3115C3.02416 14.3582 3.10714 14.4741 3.1643 14.5396C3.23124 14.6127 3.30825 14.6757 3.39296 14.7265C3.80946 15.0105 4.13201 15.415 4.31864 15.8874C4.45049 16.2509 4.64811 16.5863 4.90135 16.8763C5.15134 17.1145 5.44807 17.2965 5.77217 17.4105C6.09626 17.5245 6.44044 17.568 6.78222 17.538C7.05145 17.5268 7.32067 17.482 7.6028 17.4539C7.61177 17.4964 7.61732 17.5395 7.6194 17.5829C7.6194 17.9568 7.6194 18.3419 7.63231 18.7213V19.9869C5.80954 19.5366 4.14849 18.5755 2.83897 17.2136C1.52945 15.8516 0.624282 14.1436 0.226898 12.2848C-0.170486 10.4261 -0.0440579 8.49146 0.591737 6.70207C1.22753 4.91269 2.34705 3.34071 3.82235 2.16577C5.29766 0.990822 7.06926 0.260306 8.9347 0.0576937C10.8001 -0.144919 12.6842 0.188544 14.3715 1.01998C16.0589 1.85141 17.4815 3.14728 18.4768 4.75951C19.4721 6.37174 19.9999 8.23529 20 10.1372V10.1353Z" fill="#606060"/>
</svg>
