<svg width="20" height="20" viewBox="0 0 20 20" fill="none" xmlns="http://www.w3.org/2000/svg">
<path d="M10 0C8.02211 3.36274e-08 6.08864 0.586536 4.44411 1.68543C2.79958 2.78433 1.51785 4.34622 0.761033 6.17359C0.00421064 8.00096 -0.193715 10.0117 0.192287 11.9516C0.578288 13.8914 1.53088 15.6733 2.92959 17.0717C4.3283 18.4702 6.1103 19.4224 8.05023 19.8081C9.99016 20.1937 12.0009 19.9954 13.8281 19.2383C15.6553 18.4811 17.217 17.1991 18.3156 15.5544C19.4142 13.9096 20.0004 11.976 20 9.99815C19.9995 7.34631 18.9457 4.80324 17.0704 2.92828C15.1951 1.05332 12.6518 -4.50857e-08 10 0V0ZM16.4743 6.67527C16.4771 6.74834 16.4557 6.82029 16.4134 6.87995C16.1224 7.28762 15.7733 7.65044 15.3771 7.95685C15.3181 8.00111 15.2204 8.0472 15.2204 8.13018C15.2204 10.2692 14.6672 12.4046 13.1164 13.9517C11.1248 15.9229 8.14678 16.4595 5.50434 15.7293C4.99235 15.5884 4.49759 15.3911 4.02914 15.1411C3.8724 15.0562 3.71935 14.9696 3.56998 14.87C3.53126 14.8405 3.5036 14.811 3.53679 14.7907C3.56998 14.7704 3.59396 14.7741 3.71197 14.7907C4.4569 14.857 5.20734 14.7613 5.91186 14.5104C6.29541 14.3758 7.12152 14.1047 7.3594 13.7415C7.3594 13.7415 7.37046 13.7415 7.37784 13.7249C7.28011 13.7027 7.18422 13.7027 7.08833 13.6861C6.37102 13.4796 5.41214 13.12 4.96773 11.9104C4.94007 11.8385 4.96773 11.8016 5.04149 11.8163C5.3771 11.8625 5.71807 11.8519 6.05016 11.785C5.93594 11.7625 5.8246 11.7272 5.71824 11.6799C5.26933 11.4986 4.87668 11.2012 4.58052 10.8182C4.28436 10.4352 4.09534 9.98036 4.03283 9.50027C4.01686 9.39907 4.01069 9.29656 4.01439 9.19417C4.01439 9.1241 4.05127 9.10197 4.11396 9.14069C4.4345 9.3038 4.78426 9.40159 5.14291 9.42836C5.02674 9.338 4.91979 9.24396 4.81468 9.14069C4.03098 8.4031 3.72672 6.88549 4.35368 5.94505C4.40531 5.86944 4.43851 5.86944 4.5012 5.94505C5.93583 7.58067 7.70423 8.34224 9.83589 8.65941C9.89121 8.65941 9.89674 8.65941 9.88936 8.59672C9.82665 8.22962 9.83604 7.85382 9.91702 7.49032C10.0128 7.10412 10.1929 6.74391 10.4444 6.43555C10.6862 6.13732 10.986 5.89139 11.3258 5.7127C11.6658 5.53556 12.0387 5.43071 12.4212 5.40476C12.8144 5.37789 13.2085 5.44096 13.5737 5.58916C13.8478 5.70097 14.1019 5.85667 14.326 6.05016C14.3751 6.09253 14.4208 6.13878 14.4625 6.18846C14.476 6.20254 14.4931 6.21258 14.512 6.21747C14.5309 6.22235 14.5508 6.22189 14.5694 6.21611C15.1091 6.08357 15.63 5.8841 16.1202 5.62235C16.1311 5.61684 16.1431 5.61397 16.1553 5.61397C16.1674 5.61397 16.1794 5.61684 16.1903 5.62235C16.2124 5.63894 16.2051 5.66845 16.1903 5.69058C16.0972 5.97969 15.9495 6.24824 15.7551 6.48165C15.6316 6.63655 15.3218 7.01825 15.1116 7.05329C15.5618 6.98612 16.0017 6.8622 16.4208 6.68449C16.4724 6.66052 16.4743 6.64945 16.4743 6.68449V6.67527Z" fill="#606060"/>
</svg>
