<svg width="28" height="28" viewBox="0 0 28 28" fill="none" xmlns="http://www.w3.org/2000/svg">
<path d="M27.25 14C27.25 21.3186 21.3186 27.25 14 27.25C6.6814 27.25 0.75 21.3186 0.75 14C0.75 6.6814 6.6814 0.75 14 0.75C21.3186 0.75 27.25 6.6814 27.25 14Z" stroke="black" stroke-width="1.5"/>
<path d="M9.43926 20.3659H7.75488V8.65186H9.43926V13.9456V20.3659Z" fill="black"/>
<path d="M11.9111 8.65186H16.4611C20.7924 8.65186 22.6955 11.7472 22.6955 14.5144C22.6955 17.5222 20.3439 20.3769 16.483 20.3769H11.9111V8.65186ZM13.5955 18.8565H16.2752C20.0924 18.8565 20.9674 15.9581 20.9674 14.5144C20.9674 12.1628 19.4689 10.1722 16.1877 10.1722H13.5955V18.8565Z" fill="black"/>
<path d="M9.70156 6.2126C9.70156 6.81416 9.20937 7.31729 8.59687 7.31729C7.98437 7.31729 7.49219 6.81416 7.49219 6.2126C7.49219 5.6001 7.98437 5.10791 8.59687 5.10791C9.20937 5.10791 9.70156 5.61103 9.70156 6.2126Z" fill="black"/>
</svg>
