<svg width="68" height="68" viewBox="0 0 68 68" fill="none" xmlns="http://www.w3.org/2000/svg">
<g filter="url(#filter0_d_2_1624)">
<path fill-rule="evenodd" clip-rule="evenodd" d="M56.333 0H11.667C7.43934 0 4 3.43945 4 7.66711V52.333C4 56.5605 7.43934 60 11.667 60H56.333C60.5607 60 64 56.5606 64 52.3329V7.66711C64 3.43945 60.5607 0 56.333 0ZM60.4659 52.333C60.4659 54.612 58.6118 56.4659 56.333 56.4659H11.667C9.38805 56.4659 7.53402 54.6118 7.53402 52.333V45.8869L19.1655 35.9903C19.5899 35.6291 20.2091 35.6257 20.6376 35.9815L27.9236 42.0316C28.6261 42.6149 29.6574 42.5671 30.303 41.9208L47.615 24.5824C47.9279 24.2689 48.2927 24.2385 48.4831 24.2482C48.6729 24.2579 49.0333 24.3257 49.3125 24.6696L60.466 38.4028V52.333H60.4659ZM52.0558 22.4413L60.4659 32.7967V7.66711C60.4659 5.38816 58.612 3.53414 56.333 3.53414H11.667C9.38805 3.53414 7.53402 5.38816 7.53402 7.66711V41.2467L16.8753 33.2988C18.6108 31.8221 21.1425 31.807 22.8955 33.2627L28.9412 38.2829L45.1141 22.0852C46.0489 21.1488 47.3437 20.6517 48.6641 20.7185C49.9855 20.7864 51.2218 21.4143 52.0558 22.4413Z" fill="#486073"/>
<path fill-rule="evenodd" clip-rule="evenodd" d="M14.4348 15.9532C14.4348 11.2508 18.2605 7.4248 22.9632 7.4248C27.6659 7.4248 31.4917 11.2507 31.4917 15.9532C31.4917 20.6558 27.6658 24.4817 22.9632 24.4817C18.2607 24.4817 14.4348 20.6558 14.4348 15.9532ZM17.9719 15.9532C17.9719 18.7054 20.2109 20.9446 22.9632 20.9446C25.7155 20.9446 27.9546 18.7054 27.9546 15.9532C27.9546 13.201 25.7155 10.9619 22.9632 10.9619C20.2109 10.9619 17.9719 13.2009 17.9719 15.9532Z" fill="#486073"/>
</g>
<defs>
<filter id="filter0_d_2_1624" x="0" y="0" width="68" height="68" filterUnits="userSpaceOnUse" color-interpolation-filters="sRGB">
<feFlood flood-opacity="0" result="BackgroundImageFix"/>
<feColorMatrix in="SourceAlpha" type="matrix" values="0 0 0 0 0 0 0 0 0 0 0 0 0 0 0 0 0 0 127 0" result="hardAlpha"/>
<feOffset dy="4"/>
<feGaussianBlur stdDeviation="2"/>
<feComposite in2="hardAlpha" operator="out"/>
<feColorMatrix type="matrix" values="0 0 0 0 0 0 0 0 0 0 0 0 0 0 0 0 0 0 0.25 0"/>
<feBlend mode="normal" in2="BackgroundImageFix" result="effect1_dropShadow_2_1624"/>
<feBlend mode="normal" in="SourceGraphic" in2="effect1_dropShadow_2_1624" result="shape"/>
</filter>
</defs>
</svg>
