<svg width="48" height="48" viewBox="0 0 40 40" fill="none" xmlns="http://www.w3.org/2000/svg">
<path d="M20 0C16.0443 0 12.1776 1.17298 8.88857 3.37061C5.59959 5.56823 3.03614 8.69181 1.52239 12.3463C0.00863525 16.0008 -0.387431 20.0222 0.384273 23.9018C1.15598 27.7814 3.06079 31.3451 5.85784 34.1421C8.65489 36.9392 12.2185 38.844 16.0982 39.6157C19.9778 40.3874 23.9991 39.9913 27.6536 38.4776C31.3082 36.9638 34.4317 34.4004 36.6294 31.1114C38.827 27.8224 40 23.9556 40 20C40 14.6957 37.8928 9.60859 34.1421 5.85786C30.3914 2.10714 25.3043 0 20 0V0ZM29.0627 30.8819H10.9372V16.6827C10.9382 14.2794 11.8934 11.9748 13.5927 10.2754C15.2921 8.57604 17.5967 7.6209 20 7.61992C21.1901 7.61992 22.3686 7.85434 23.4681 8.30978C24.5677 8.76523 25.5667 9.43278 26.4083 10.2743C27.2498 11.1159 27.9174 12.115 28.3728 13.2145C28.8283 14.314 29.0627 15.4925 29.0627 16.6827V30.8819Z" fill="white"/>
</svg>
