<svg width="188" height="54" viewBox="0 0 188 54" fill="none" xmlns="http://www.w3.org/2000/svg">
<path d="M23.1301 0L0 13.3546V40.0637L23.1301 53.4183L46.2602 40.0637V13.3546L23.1301 0ZM12.0196 24.5925L16.6877 29.2475L15.6162 30.3278L10.9349 25.664L12.0196 24.5925ZM8.90598 31.3246H15.4932V32.9715H8.90598V31.3246ZM10.8909 38.6189L15.5723 33.9639L16.6526 35.0969L11.9932 39.7256L10.8909 38.6189ZM35.8918 31.6628C34.6515 34.5725 32.8623 37.216 30.622 39.4489C26.1778 43.6911 20.5215 44.1698 15.4405 41.6447C15.322 41.5876 15.2122 41.5129 15.0541 41.4163L18.0667 36.0675L18.7122 36.4364C22.6953 38.7112 26.5159 38.0173 29.4187 34.4602C29.9852 33.7663 30.4639 32.9978 31.0655 32.1458H22.0015L25.7957 25.361H15.8577C16.1124 24.8911 16.3232 24.4827 16.5428 24.1006C19.0401 19.6271 21.5404 15.1551 24.0435 10.6845C24.1065 10.5369 24.2151 10.4134 24.3534 10.332C24.4917 10.2506 24.6524 10.2156 24.812 10.2322C26.2832 10.2586 27.7543 10.2322 29.3397 10.2322L22.8929 21.7995H32.8441L29.2562 28.2198H37.3542C36.8448 29.4231 36.3968 30.5561 35.8918 31.6628Z" fill="white"/>
<path d="M65.372 13.7586H59.1097V34.728H77.273V29.8271H65.372V13.7586Z" fill="white"/>
<path d="M88.2693 19.1689C84.071 19.1689 80.8037 20.4381 79.0779 22.7349C78.117 24.0239 77.5979 25.5888 77.5979 27.1966C77.5979 28.8044 78.117 30.3693 79.0779 31.6584C80.7906 33.9639 84.0535 35.2331 88.2737 35.2331C92.4939 35.2331 95.7393 33.9595 97.4695 31.654C98.4101 30.3581 98.9166 28.7979 98.9166 27.1966C98.9166 25.5954 98.4101 24.0351 97.4695 22.7392C95.6866 20.4381 92.4193 19.1689 88.2693 19.1689ZM84.317 25.1238C85.024 24.1928 86.4161 23.679 88.2386 23.679C90.061 23.679 91.418 24.1928 92.1251 25.115C92.5729 25.7268 92.806 26.4694 92.7882 27.2274C92.8104 27.9696 92.5831 28.6979 92.1426 29.2958C91.44 30.2312 90.061 30.7406 88.2693 30.7406C86.4776 30.7406 85.0547 30.2224 84.3521 29.2738C83.9106 28.6839 83.6774 27.9641 83.689 27.2274C83.6615 26.4762 83.8822 25.737 84.317 25.1238Z" fill="white"/>
<path d="M113.275 19.1689C110.552 19.1689 108.444 19.9594 107.017 21.5184L107.285 20.5171V13.7586H101.325V34.728H107.509L107.017 32.8836C108.457 34.4426 110.552 35.2331 113.275 35.2331C116.59 35.2331 119.26 34.1308 120.784 32.159C121.825 30.7303 122.357 28.9939 122.295 27.2273C122.359 25.4483 121.82 23.6998 120.767 22.2649C119.26 20.2668 116.59 19.1689 113.275 19.1689ZM107.913 25.0316C108.598 24.1533 109.911 23.7141 111.716 23.7141C113.521 23.7141 114.864 24.1533 115.549 25.0316C116.015 25.6663 116.251 26.4408 116.217 27.2273C116.247 28.0053 116.012 28.7705 115.549 29.3967C114.851 30.275 113.525 30.7625 111.716 30.7625C109.906 30.7625 108.602 30.2794 107.913 29.3967C107.448 28.7713 107.213 28.0055 107.245 27.2273C107.211 26.4408 107.447 25.6663 107.913 25.0316Z" fill="white"/>
<path d="M136.857 19.1689C134.134 19.1689 132.026 19.9594 130.599 21.5184L130.867 20.5171L130.889 13.7586H124.908V34.728H131.095L130.599 32.8836C132.04 34.4426 134.134 35.2331 136.857 35.2331C140.177 35.2331 142.843 34.1308 144.366 32.159C145.407 30.7303 145.939 28.9939 145.877 27.2273C145.943 25.4548 145.411 23.7116 144.366 22.2781C142.843 20.2668 140.177 19.1689 136.857 19.1689ZM131.495 25.0316C132.18 24.1533 133.498 23.7141 135.298 23.7141C137.099 23.7141 138.447 24.1533 139.136 25.0316C139.599 25.6678 139.832 26.4416 139.799 27.2273C139.83 28.0053 139.594 28.7705 139.132 29.3967C138.434 30.275 137.107 30.7625 135.298 30.7625C133.489 30.7625 132.184 30.2794 131.495 29.3967C131.031 28.7713 130.795 28.0055 130.827 27.2273C130.794 26.4408 131.029 25.6663 131.495 25.0316Z" fill="white"/>
<path d="M186.398 25.5059C185.702 24.9179 184.889 24.4839 184.013 24.2323C184.895 23.9852 185.714 23.5525 186.415 22.9632C186.896 22.5258 187.277 21.9907 187.534 21.3939C187.791 20.7971 187.917 20.1523 187.904 19.5027C187.914 18.7562 187.762 18.0164 187.459 17.3341C187.155 16.6519 186.708 16.0433 186.147 15.5503C184.505 14.0396 181.686 13.2448 178.001 13.2448C172.073 13.2448 168.34 15.625 167.852 19.6652H161.401L157.256 29.467L152.385 19.674H145.715L152.996 33.4633H155.565L155.02 34.6929C154.896 35.0775 154.645 35.4087 154.309 35.6327C153.972 35.8567 153.57 35.9604 153.167 35.9269C152.816 35.9269 151.999 35.8654 151.999 35.3341V34.4558H146V35.4043C146 38.3247 148.727 40.1384 153.119 40.1384C156.948 40.1384 159.227 38.6804 160.738 35.2682L167.835 20.1131C167.835 20.2185 167.813 20.3195 167.808 20.4293V21.3076H173.904V20.4864C174 18.2906 176.205 17.8515 178.036 17.8515C179.538 17.8515 180.693 18.1501 181.295 18.6903C181.455 18.8309 181.582 19.0048 181.668 19.1997C181.753 19.3947 181.795 19.606 181.791 19.8189C181.806 20.0387 181.772 20.2591 181.692 20.4642C181.611 20.6693 181.486 20.8539 181.325 21.0046C181 21.2944 180.105 21.7863 177.755 21.7863H175.713V26.6784H177.755C179.995 26.6784 180.926 27.1176 181.325 27.4864C181.486 27.6371 181.611 27.8217 181.692 28.0268C181.772 28.2319 181.806 28.4524 181.791 28.6722C181.796 28.8851 181.754 29.0965 181.668 29.2915C181.582 29.4865 181.455 29.6603 181.295 29.8008C180.693 30.3409 179.538 30.6395 178.036 30.6395C174.018 30.6395 173.935 28.6502 173.904 28.0266V27.1878H167.808V28.0661C167.914 32.5499 171.726 35.2287 178.014 35.2287C181.699 35.2287 184.518 34.4294 186.156 32.9231C186.717 32.4299 187.164 31.8214 187.467 31.1392C187.77 30.457 187.922 29.7173 187.913 28.9708C187.925 28.3182 187.796 27.6706 187.534 27.0726C187.273 26.4745 186.885 25.9401 186.398 25.5059Z" fill="white"/>
</svg>
