<svg width="70" height="72" viewBox="0 0 70 72" fill="none" xmlns="http://www.w3.org/2000/svg">
<path d="M7.80192 53.538C3.98086 49.1817 1.47854 43.82 0.589435 38.0839C0.309031 36.2586 0.158849 34.4155 0.140036 32.5687C-0.303445 37.5383 0.309269 42.5457 1.93762 47.2597C3.56596 51.9736 6.1728 56.2864 9.58559 59.9128C12.9984 63.5391 17.1393 66.3962 21.7342 68.2949C26.3291 70.1937 31.2732 71.0907 36.2393 70.9268C25.9657 67.7013 13.5962 60.3737 7.80192 53.538Z" fill="url(#paint0_linear_2_443)"/>
<path d="M10.0526 52.0845C5.00611 43.6287 3.84209 32.8981 7.89774 23.8911C7.41321 22.4923 7.01221 21.0656 6.69688 19.6188C6.45745 18.5092 6.26959 17.3995 6.14434 16.2898C5.99332 16.545 5.84966 16.8003 5.70968 17.0592C0.287416 26.965 0.504749 39.9926 6.81476 49.4545C8.43474 51.8351 10.351 53.998 12.517 55.8907C11.6271 54.668 10.8045 53.3973 10.0526 52.0845Z" fill="url(#paint1_linear_2_443)"/>
<path d="M62.1865 18.0283C66.0075 22.3847 68.5098 27.7464 69.3989 33.4825C69.6795 35.3078 69.8297 37.1508 69.8483 38.9976C70.3562 33.5501 69.5839 28.0589 67.5936 22.9657C65.6033 17.8724 62.4504 13.3193 58.3887 9.6724C51.644 3.53955 42.4755 0.225295 33.8007 0.654373C44.2142 3.97233 56.3001 11.1631 62.1865 18.0283Z" fill="url(#paint2_linear_2_443)"/>
<path d="M60.0574 19.7153C63.2953 25.6891 64.3525 29.6396 64.5514 35.7798C64.5619 39.8787 63.7187 43.9344 62.076 47.6867C62.1755 47.9716 62.2675 48.2564 62.3596 48.5412C62.9495 50.3917 63.3905 52.2867 63.6784 54.208C63.7299 54.5779 63.7815 54.9478 63.822 55.2881C64.1904 54.6703 64.5256 54.0378 64.8424 53.3942C69.9994 42.9484 69.1117 29.4029 61.7518 20.2295C60.4506 18.5925 59.0071 17.0749 57.4384 15.6946C58.3869 16.9837 59.2613 18.3261 60.0574 19.7153Z" fill="url(#paint3_linear_2_443)"/>
<path d="M7.71351 13.4825C7.7117 13.5046 7.7117 13.5269 7.71351 13.5491C7.83467 16.9885 8.49348 20.3873 9.66582 23.6213C9.66582 23.6546 9.66582 23.6842 9.68792 23.7137C10.0231 24.6385 10.3878 25.5336 10.793 26.3844C13.6994 32.7503 21.2286 44.0247 39.0756 48.1046C46.0303 49.6988 50.3917 51.9219 52.1008 54.7627C52.2846 53.7878 52.3526 52.7945 52.3034 51.8035C52.3034 51.6334 52.2776 51.4558 52.2666 51.282C52.0779 49.4095 51.6444 47.5701 50.9773 45.8112C50.7379 45.1713 50.469 44.5166 50.1633 43.8434C49.8882 43.2442 49.5862 42.6462 49.2571 42.0494C48.7607 43.0398 47.9131 43.8078 46.8812 44.2022C43.8754 45.5116 38.652 45.0678 33.5797 43.0703C27.8075 40.7955 23.0999 36.9745 20.2783 32.2879C20.2193 32.1954 20.1604 32.103 20.1014 32.0031C17.3461 27.4904 15.88 23.1256 15.8653 19.4045C15.8552 18.2806 15.9977 17.1606 16.2889 16.0754C16.2905 16.0594 16.2905 16.0433 16.2889 16.0273C16.4956 15.2727 16.7847 14.5433 17.1509 13.8524C17.1838 13.7937 17.2234 13.7391 17.2688 13.6896C17.8334 12.7117 18.5582 11.8363 19.4126 11.1003C22.9341 8.14119 28.3011 6.38051 34.147 6.24364C38.5569 6.12092 42.9407 6.96145 46.9954 8.70713L46.7854 8.57027C46.3544 8.30025 45.9198 8.03393 45.4814 7.7787C44.962 7.47909 44.4353 7.18687 43.9085 6.90575L43.5954 6.7319C42.6929 6.25473 41.8383 5.82566 41.0169 5.42987C39.106 4.53078 37.1498 3.73197 35.1563 3.03665L34.6222 2.85541L34.1949 2.71485C25.1885 -0.244307 14.8597 -1.40947 10.7709 2.46332C8.48707 5.13026 7.59932 9.08442 7.68773 13.3086C7.70678 13.3722 7.7167 13.4382 7.7172 13.5047C7.7172 13.5047 7.70983 13.4677 7.71351 13.4825Z" fill="url(#paint4_linear_2_443)"/>
<path d="M62.1976 56.7932C62.1976 56.723 62.1976 56.6564 62.1792 56.5861C62.1534 56.2421 62.1239 55.8981 62.0834 55.5504C62.0834 55.4468 62.0576 55.3433 62.0429 55.2397C61.7342 52.7511 61.151 50.3046 60.3042 47.9454C57.7257 40.7176 50.4543 27.9304 30.9128 23.4732C23.9803 21.89 19.6263 19.6744 17.8987 16.8632C17.1177 20.2625 18.0792 24.6309 20.7682 29.5838C21.2464 28.6609 22.027 27.9319 22.9783 27.5198C28.6916 24.7863 42.2399 28.2596 49.2497 38.6166C49.3455 38.7609 49.4339 38.8904 49.515 39.0198C49.8809 39.5747 50.2259 40.1357 50.55 40.7028C50.83 41.1763 51.1026 41.6646 51.3862 42.2564L51.5078 42.5153C52.0437 43.617 52.5075 44.7525 52.8965 45.9147C53.1421 46.6397 53.3484 47.3412 53.5153 48.0194C53.7947 49.1699 53.9686 50.3436 54.0347 51.526C54.0347 51.6776 54.0347 51.8256 54.0568 51.9735C54.0568 52.0512 54.0568 52.1326 54.0568 52.214C54.0909 53.428 53.9482 54.6405 53.6332 55.813L53.6111 55.9018C53.4857 56.3729 53.3078 56.8283 53.0807 57.2593C52.9886 57.4443 52.8928 57.6292 52.786 57.8031C50.6569 61.7277 45.0504 64.0432 40.5343 64.905C34.5522 66.0432 28.3663 65.3098 22.8126 62.804L22.9083 62.8669C23.9324 63.5179 24.9982 64.1418 26.1057 64.7386C27.1003 65.2675 28.0396 65.741 28.9568 66.1775C30.8982 67.0915 32.8864 67.9014 34.9132 68.604L35.2042 68.7038C35.4841 68.8 35.7678 68.8925 36.0477 68.9813C37.488 69.4473 38.9541 69.8653 40.4238 70.2241L40.597 70.2685C48.1999 72.118 55.7771 72.3214 59.2249 69.1255C61.2398 66.9506 62.3707 62.8373 62.2528 58.1138V58.0583C62.2511 58.0374 62.2511 58.0163 62.2528 57.9954C62.2491 57.607 62.227 57.2038 62.1976 56.7932Z" fill="url(#paint5_linear_2_443)"/>
<defs>
<linearGradient id="paint0_linear_2_443" x1="27.3066" y1="80.0336" x2="8.07683" y2="31.6913" gradientUnits="userSpaceOnUse">
<stop offset="0.04" stop-color="#EDB5C6"/>
<stop offset="0.16" stop-color="#EEC1CF"/>
<stop offset="0.37" stop-color="#F0E2E7"/>
<stop offset="0.46" stop-color="#F1F2F2"/>
<stop offset="0.54" stop-color="#ECEFF0"/>
<stop offset="0.64" stop-color="#DCE5EC"/>
<stop offset="0.75" stop-color="#C3D4E4"/>
<stop offset="0.86" stop-color="#A0BDDA"/>
<stop offset="0.99" stop-color="#73A0CD"/>
<stop offset="1" stop-color="#6D9CCB"/>
</linearGradient>
<linearGradient id="paint1_linear_2_443" x1="7.20522" y1="70.1945" x2="7.20522" y2="8.68107" gradientUnits="userSpaceOnUse">
<stop stop-color="#FEC6C6"/>
<stop offset="0.46" stop-color="#F1F2F2"/>
<stop offset="0.51" stop-color="#E5EAEF"/>
<stop offset="0.6" stop-color="#C6D3E7"/>
<stop offset="0.73" stop-color="#94AFDA"/>
<stop offset="0.87" stop-color="#4F7EC9"/>
<stop offset="0.97" stop-color="#1C5ABC"/>
</linearGradient>
<linearGradient id="paint2_linear_2_443" x1="50.1079" y1="-2.54521" x2="54.5314" y2="46.2073" gradientUnits="userSpaceOnUse">
<stop offset="0.06" stop-color="#6D9CCB"/>
<stop offset="0.1" stop-color="#7EA7D0"/>
<stop offset="0.26" stop-color="#BCCFE2"/>
<stop offset="0.37" stop-color="#E2E8EE"/>
<stop offset="0.43" stop-color="#F1F2F2"/>
<stop offset="0.63" stop-color="#F4E7E7"/>
<stop offset="0.98" stop-color="#FDC8C8"/>
<stop offset="1" stop-color="#FEC6C6"/>
</linearGradient>
<linearGradient id="paint3_linear_2_443" x1="63.8773" y1="2.40058" x2="61.0061" y2="67.9966" gradientUnits="userSpaceOnUse">
<stop stop-color="#6D9CCB"/>
<stop offset="0.2" stop-color="#A6C1DC"/>
<stop offset="0.41" stop-color="#DCE4EC"/>
<stop offset="0.51" stop-color="#F1F2F2"/>
<stop offset="0.6" stop-color="#E6D5E1"/>
<stop offset="0.69" stop-color="#DEBED3"/>
<stop offset="0.74" stop-color="#DBB6CE"/>
</linearGradient>
<linearGradient id="paint4_linear_2_443" x1="29.9956" y1="-2.34161" x2="29.9956" y2="83.9769" gradientUnits="userSpaceOnUse">
<stop stop-color="#F1F2F2"/>
<stop offset="0.01" stop-color="#DCE4EC"/>
<stop offset="0.02" stop-color="#B4CAE0"/>
<stop offset="0.04" stop-color="#95B6D7"/>
<stop offset="0.05" stop-color="#7FA8D0"/>
<stop offset="0.07" stop-color="#729FCC"/>
<stop offset="0.08" stop-color="#6D9CCB"/>
<stop offset="0.26" stop-color="#CAD8E6"/>
<stop offset="0.35" stop-color="#F1F2F2"/>
<stop offset="0.45" stop-color="#E5D8E5"/>
<stop offset="0.66" stop-color="#C594C4"/>
<stop offset="0.97" stop-color="#92278F"/>
</linearGradient>
<linearGradient id="paint5_linear_2_443" x1="39.956" y1="89.4845" x2="39.956" y2="-3.25539" gradientUnits="userSpaceOnUse">
<stop offset="0.18" stop-color="#F1F2F2"/>
<stop offset="0.25" stop-color="#FECBC6"/>
<stop offset="0.33" stop-color="#FBD5D1"/>
<stop offset="0.46" stop-color="#F2F0EF"/>
<stop offset="0.47" stop-color="#F1F2F2"/>
<stop offset="0.52" stop-color="#E5EAEF"/>
<stop offset="0.6" stop-color="#C6D3E7"/>
<stop offset="0.7" stop-color="#94AFDA"/>
<stop offset="0.82" stop-color="#4F7EC9"/>
<stop offset="0.91" stop-color="#1C5ABC"/>
</linearGradient>
</defs>
</svg>
