<svg width="130" height="40" viewBox="0 0 130 40" fill="none" xmlns="http://www.w3.org/2000/svg">
<g clip-path="url(#clip0_239_4069)">
<path d="M39.2056 19.9947C39.2789 8.42872 28.9951 -0.794315 17.5085 0.504999C17.1042 0.549008 16.6851 0.609785 16.2891 0.678943C12.1697 -0.27249 7.99789 -0.396138 6.022 1.50044C4.63071 3.10153 4.13621 5.43192 4.21793 7.85032C1.47904 11.3088 -0.00771199 15.5933 4.60929e-05 20.0052C-0.0753855 31.5691 10.2105 40.7921 21.6929 39.4949C22.0973 39.453 22.5017 39.3985 22.8914 39.3293C26.992 40.285 31.1491 40.4086 33.1962 38.4911C34.3926 37.2127 35.0611 34.8949 34.9919 32.1433C37.7284 28.6862 39.2136 24.4041 39.2056 19.9947ZM22.5478 35.3874C19.0814 36.0509 15.4926 35.5259 12.3615 33.8972C9.23039 32.2684 6.73996 29.6311 5.29283 26.4116C5.19854 26.2021 5.10634 25.9778 5.01834 25.7557C4.31074 23.9182 3.94092 21.9679 3.92668 19.9989C3.92348 17.7692 4.39789 15.5647 5.31797 13.5338C5.51284 14.0786 5.72656 14.5942 5.94657 15.0741C8.30799 20.2315 13.2341 25.2255 21.7285 27.1598C27.1177 28.3899 28.8317 30.144 28.9176 31.7451C27.8322 33.7695 24.838 34.9557 22.5541 35.3874H22.5478ZM26.9983 21.82C28.3309 26.2775 16.8171 25.1459 12.2116 18.1799C10.9188 13.9089 22.024 14.481 27.0045 21.82H26.9983ZM17.4792 12.8296C12.1236 11.6079 10.3907 9.87054 10.2839 8.27364C10.573 7.74887 10.955 7.28094 11.4112 6.89259C15.1681 3.74909 22.7888 3.34463 27.9642 6.7438C30.8077 8.54559 32.9996 11.2108 34.2187 14.349C34.8977 16.1545 35.2524 18.0658 35.2664 19.9947C35.2695 22.2221 34.7959 24.4244 33.8772 26.4536C31.8489 20.7785 26.8223 14.9504 17.4855 12.8296H17.4792Z" fill="white"/>
<path d="M62.6732 11.0189C61.2065 9.66722 59.2641 8.98193 56.8901 8.98193C54.5161 8.98193 52.5381 9.66722 51.0756 11.0189C49.613 12.3706 48.8441 14.2001 48.8441 16.4341V23.5594C48.8441 25.7934 49.5921 27.6166 51.0651 28.9788C52.5381 30.341 54.4826 31.0179 56.8796 31.0179C59.2767 31.0179 61.2002 30.3305 62.6627 28.9788C64.1252 27.6271 64.8817 25.7934 64.8817 23.5594V16.4341C64.8817 14.2001 64.1399 12.3769 62.6732 11.0189ZM51.7105 16.497C51.7105 15.03 52.1693 13.8942 53.108 13.0245C54.0467 12.1548 55.3186 11.7189 56.8901 11.7189C58.4616 11.7189 59.7125 12.1569 60.6449 13.0245C61.5773 13.8921 62.0362 15.03 62.0362 16.497V23.4819C62.0362 24.9488 61.5815 26.0889 60.6449 26.9628C59.7083 27.8366 58.449 28.2747 56.8901 28.2747C55.3312 28.2747 54.0488 27.8325 53.1185 26.9628C52.1882 26.0931 51.7188 24.9509 51.7188 23.4819L51.7105 16.497Z" fill="white"/>
<path d="M78.5619 9.34253H70.6772V30.6387H73.5332V23.3039H78.5619C80.6133 23.3039 82.2853 22.6563 83.532 21.3821C84.7788 20.108 85.4178 18.4021 85.4178 16.3064C85.4178 14.2108 84.7892 12.5342 83.532 11.2601C82.2748 9.9859 80.6133 9.34253 78.5619 9.34253ZM73.5332 12.0795H78.4299C79.6871 12.0795 80.674 12.4525 81.4283 13.2216C82.1827 13.9907 82.5535 15.0197 82.5535 16.3085C82.5535 17.5974 82.1743 18.6703 81.4283 19.4353C80.6824 20.2002 79.6913 20.5837 78.4299 20.5837H73.5332V12.0795Z" fill="white"/>
<path d="M102.711 21.1641C102.343 20.7425 101.914 20.3787 101.439 20.0848C100.992 19.798 100.52 19.5518 100.029 19.3492C99.6095 19.1774 99.0982 19.0076 98.5388 18.8442L95.2491 17.8969C94.8276 17.7765 94.4146 17.628 94.0129 17.4526C93.6631 17.2911 93.3309 17.0938 93.0218 16.8638C92.7358 16.6533 92.5092 16.3725 92.3639 16.0485C92.2016 15.682 92.1221 15.2841 92.1313 14.8834C92.1186 14.4336 92.2214 13.9881 92.4297 13.5893C92.6381 13.1906 92.945 12.8518 93.3214 12.6054C94.1595 12.0081 95.3476 11.7063 96.8499 11.7063C98.7672 11.7063 100.456 12.1506 101.866 13.0287L102.587 13.4772V10.5998L102.377 10.4594C100.911 9.48072 99.0249 8.99243 96.7619 8.99243C94.4571 8.99243 92.6216 9.52893 91.3141 10.5872C90.0066 11.6455 89.2837 13.1272 89.2837 14.9504C89.2764 15.6052 89.3864 16.2561 89.6085 16.8721C89.7985 17.4035 90.0761 17.8994 90.4299 18.3391C90.7847 18.7552 91.2009 19.1149 91.664 19.4058C92.1014 19.6905 92.5627 19.9366 93.0427 20.1414C93.5222 20.3384 94.0118 20.5097 94.5095 20.6548L97.7446 21.6C98.1855 21.7379 98.6179 21.9017 99.0395 22.0904C99.4099 22.2624 99.7611 22.4731 100.087 22.7191C100.392 22.9425 100.636 23.2385 100.798 23.5804C100.967 23.9628 101.05 24.3778 101.041 24.7959C101.05 25.286 100.935 25.7706 100.707 26.2042C100.478 26.6378 100.143 27.0062 99.7331 27.275C98.8153 27.9352 97.5225 28.2684 95.8924 28.2684C93.8389 28.2837 91.8203 27.7373 90.0548 26.6882L89.3424 26.2691V29.2031L89.575 29.3393C91.4608 30.4563 93.6651 31.0158 96.0998 31.0158C98.5346 31.0158 100.418 30.4458 101.789 29.3204C103.159 28.195 103.897 26.6191 103.897 24.7099C103.905 24.0235 103.792 23.3411 103.563 22.6939C103.373 22.1371 103.084 21.619 102.711 21.1641Z" fill="white"/>
<path d="M116.297 8.97778C113.853 8.97778 111.875 9.6442 110.413 10.9603C108.95 12.2764 108.188 14.0786 108.188 16.2854V23.6998C108.188 25.9066 108.936 27.6984 110.413 29.027C111.89 30.3557 113.853 31.0095 116.297 31.0095C118.088 31.0037 119.859 30.6373 121.506 29.9324L121.793 29.8108V26.9712L121.133 27.2751C119.701 27.9329 118.144 28.2725 116.569 28.2705C114.828 28.2705 113.455 27.8325 112.487 26.967C111.519 26.1015 111.05 24.9614 111.05 23.4777V16.4928C111.05 15.0091 111.519 13.8712 112.485 13.0119C113.451 12.1527 114.828 11.7147 116.569 11.7147C118.144 11.7127 119.701 12.0523 121.133 12.7102L121.799 13.0161V10.1807L121.512 10.0591C119.864 9.35164 118.09 8.98386 116.297 8.97778Z" fill="white"/>
<path d="M130 9.34668H127.144V30.6366H130V9.34668Z" fill="white"/>
</g>
<defs>
<clipPath id="clip0_239_4069">
<rect width="130" height="40" fill="white"/>
</clipPath>
</defs>
</svg>
