<svg width="48" height="48" viewBox="0 0 48 48" fill="none" xmlns="http://www.w3.org/2000/svg">
<path d="M24 0C19.2531 8.07058e-08 14.6127 1.40769 10.6659 4.04504C6.71899 6.68238 3.64285 10.4309 1.82648 14.8166C0.0101055 19.2023 -0.464916 24.0281 0.461488 28.6838C1.38789 33.3395 3.67411 37.6158 7.03101 40.9721C10.3879 44.3284 14.6647 46.6138 19.3206 47.5394C23.9764 48.4649 28.8021 47.989 33.1875 46.1718C37.5728 44.3546 41.3208 41.2778 43.9574 37.3305C46.594 33.3831 48.0009 28.7425 48 23.9956C47.9988 17.6311 45.4697 11.5278 40.969 7.02787C36.4683 2.52796 30.3644 -1.08206e-07 24 0V0ZM16.2552 34.0771C14.2551 34.0911 12.296 33.5107 10.6263 32.4094C8.95666 31.3082 7.65177 29.7357 6.87724 27.8916C6.10271 26.0476 5.89345 24.015 6.276 22.0518C6.65855 20.0886 7.61568 18.2833 9.02593 16.8649C10.4362 15.4466 12.236 14.4791 14.197 14.0853C16.158 13.6916 18.1917 13.8892 20.0402 14.6532C21.8887 15.4171 23.4685 16.713 24.5793 18.3763C25.6901 20.0396 26.2818 21.9954 26.2792 23.9956C26.2851 26.6612 25.2327 29.2202 23.3532 31.1104C21.4737 33.0007 18.9208 34.0677 16.2552 34.0771ZM32.2626 33.484C29.4966 33.484 27.2528 29.231 27.2528 23.9823C27.2528 18.7335 29.4966 14.4805 32.2626 14.4805C35.0286 14.4805 37.2768 18.738 37.2768 23.9823C37.2768 29.2266 35.033 33.4973 32.2626 33.4973V33.484ZM40.0118 32.5104C39.0382 32.5104 38.2416 28.6956 38.2416 23.9956C38.2416 19.2956 39.0382 15.4896 40.0118 15.4896C40.9854 15.4896 41.782 19.3 41.782 24C41.782 28.7 40.9854 32.5104 40.0118 32.5104Z" fill="white"/>
</svg>
