<svg width="21" height="21" viewBox="0 0 21 21" fill="none" xmlns="http://www.w3.org/2000/svg">
<path d="M10.5 0C8.4233 0 6.39323 0.615814 4.66652 1.76957C2.9398 2.92332 1.59399 4.5632 0.799269 6.48182C0.00454953 8.40045 -0.203386 10.5116 0.201759 12.5484C0.606904 14.5852 1.60693 16.4562 3.07538 17.9246C4.54383 19.3931 6.41475 20.3931 8.45155 20.7982C10.4884 21.2034 12.5996 20.9955 14.5182 20.2007C16.4368 19.406 18.0767 18.0602 19.2304 16.3335C20.3842 14.6068 21 12.5767 21 10.5C21 7.71523 19.8938 5.04451 17.9246 3.07538C15.9555 1.10625 13.2848 0 10.5 0V0ZM15.2579 16.213H5.74207V8.75839C5.74258 7.49667 6.24403 6.28677 7.1362 5.39459C8.02838 4.50242 9.23828 4.00097 10.5 4.00046C11.1248 4.00046 11.7435 4.12353 12.3208 4.36264C12.898 4.60174 13.4226 4.95221 13.8644 5.39403C14.3062 5.83584 14.6566 6.36035 14.8958 6.93761C15.1349 7.51487 15.2579 8.13357 15.2579 8.75839V16.213Z" fill="white"/>
</svg>
