<svg width="209" height="64" viewBox="0 0 209 64" fill="none" xmlns="http://www.w3.org/2000/svg">
<path d="M87.2887 19.1265C85.6135 19.118 83.9535 19.4442 82.4061 20.0858C80.8586 20.7275 79.4549 21.6717 78.2773 22.8631C77.0997 24.0545 76.1719 25.4691 75.5483 27.024C74.9248 28.5788 74.618 30.2424 74.646 31.9174V32.013C74.6523 33.6676 74.9844 35.3048 75.6234 36.8311C76.2624 38.3573 77.1958 39.7427 78.3702 40.9083C79.5446 42.0738 80.9371 42.9966 82.4682 43.624C83.9992 44.2514 85.6389 44.5711 87.2935 44.5648C88.9481 44.5585 90.5852 44.2264 92.1115 43.5874C93.6377 42.9484 95.0232 42.0151 96.1887 40.8407C97.3543 39.6662 98.2771 38.2738 98.9045 36.7427C99.5319 35.2116 99.8515 33.572 99.8452 31.9174V31.8265C99.8726 30.1633 99.5676 28.5113 98.9481 26.9675C98.3286 25.4237 97.407 24.0191 96.2375 22.8362C95.0679 21.6533 93.6739 20.7158 92.1372 20.0788C90.6006 19.4418 88.9521 19.118 87.2887 19.1265ZM96.9141 31.9174V32.013C96.9141 37.6793 92.6871 42.1166 87.2887 42.1166C81.8902 42.1166 77.5772 37.6362 77.5772 31.9174V31.8265C77.5772 26.1555 81.8042 21.7182 87.1978 21.7182C92.5915 21.7182 96.9141 26.189 96.9141 31.9078V31.9174Z" fill="white"/>
<path d="M125.652 38.1575H125.35C123.012 40.7682 120.354 42.0927 117.451 42.0927C112.019 42.0927 107.764 37.6123 107.764 31.8935V31.8027C107.764 26.1316 111.933 21.6943 117.26 21.6943C120.817 21.6943 123.141 23.5639 125.126 25.5818H125.427L127.077 23.9082V23.6117C125.073 21.5174 122.147 19.1266 117.308 19.1266C110.456 19.1266 104.837 24.8645 104.837 31.9079V32.0035C104.837 39.0038 110.432 44.7035 117.308 44.7035C121.248 44.7035 124.322 43.2116 127.273 39.8693V39.5728L125.652 38.1575Z" fill="white"/>
<path d="M142.784 19.1266C136.277 19.1266 131.16 24.7115 131.16 31.86V31.9557C131.16 39.2238 136.32 44.7035 143.167 44.7035C147.255 44.7035 150.277 43.3312 153.27 40.1131V39.8071L151.664 38.3726H151.367C149.015 40.8925 146.442 42.0688 143.277 42.0688C138.304 42.0688 134.55 38.3631 134.072 33.022H153.777L153.988 32.8403C154.027 32.5231 154.043 32.2035 154.035 31.884C154.035 24.3864 149.412 19.1266 142.784 19.1266ZM134.058 30.5642C134.569 25.3905 138.189 21.6608 142.693 21.6608C148.345 21.6608 150.736 26.4042 151.095 30.5642H134.058Z" fill="white"/>
<path d="M169.27 19.1266C166.25 19.1612 163.278 19.8806 160.577 21.2305L160.472 21.5078L161.327 23.5543L161.619 23.6595C163.927 22.4172 166.505 21.7604 169.126 21.7469C174.133 21.7469 176.892 24.3051 176.892 28.9193V29.694C174.34 29.0062 171.707 28.6684 169.064 28.6898C162.399 28.6898 158.272 31.8074 158.272 36.8186V36.9094C158.272 42.0401 163.087 44.7226 167.835 44.7226C169.565 44.7683 171.281 44.4141 172.851 43.6876C174.421 42.961 175.802 41.8818 176.887 40.5339V43.9384L177.102 44.1536H179.383L179.593 43.9384V28.8237C179.593 25.8256 178.766 23.54 177.059 21.8377C175.247 20.0303 172.617 19.1266 169.27 19.1266ZM176.92 32.2713V34.8629C176.92 38.9799 173.095 42.0784 167.969 42.0784C164.584 42.0784 161.141 40.2566 161.141 36.7517V36.656C161.141 33.3089 164.12 31.2241 168.911 31.2241C171.614 31.2297 174.305 31.5784 176.92 32.2617V32.2713Z" fill="white"/>
<path d="M198.438 19.1266C194.77 19.1266 191.94 20.6471 190.017 23.6452V19.8964L189.802 19.686H187.497L187.287 19.8964V44.1058L187.497 44.3162H189.802L190.017 44.1058V30.1243C190.017 25.3427 193.498 21.6991 198.113 21.6991C202.727 21.6991 205.505 24.7832 205.505 29.7466V44.1058L205.715 44.3162H208.001L208.216 44.1058V29.2827C208.231 23.1144 204.386 19.1266 198.438 19.1266Z" fill="white"/>
<path fill-rule="evenodd" clip-rule="evenodd" d="M8.07141 30.7172C8.07236 31.3889 7.87405 32.0457 7.50158 32.6046C7.12911 33.1636 6.59923 33.5995 5.97896 33.8571C5.3587 34.1148 4.67594 34.1827 4.01706 34.0523C3.35819 33.9218 2.75282 33.5989 2.27755 33.1243C1.80228 32.6497 1.47846 32.0448 1.34708 31.3861C1.2157 30.7274 1.28265 30.0445 1.53946 29.4239C1.79628 28.8033 2.23142 28.2728 2.78982 27.8995C3.34822 27.5263 4.00479 27.327 4.67645 27.327C5.57602 27.327 6.43882 27.6841 7.07536 28.3197C7.7119 28.9553 8.07014 29.8176 8.07141 30.7172Z" fill="white"/>
<path fill-rule="evenodd" clip-rule="evenodd" d="M61.9843 30.7172C61.9852 31.3891 61.7868 32.0461 61.4141 32.6051C61.0414 33.1642 60.5112 33.6001 59.8907 33.8576C59.2702 34.1152 58.5871 34.1828 57.9281 34.0519C57.2691 33.9211 56.6638 33.5977 56.1887 33.1226C55.7136 32.6475 55.3902 32.0421 55.2593 31.3831C55.1285 30.7241 55.1961 30.0411 55.4537 29.4206C55.7112 28.8 56.1471 28.2699 56.7061 27.8972C57.2652 27.5245 57.9222 27.3261 58.5941 27.327C59.0393 27.327 59.4801 27.4147 59.8914 27.5851C60.3028 27.7555 60.6765 28.0052 60.9913 28.32C61.3061 28.6348 61.5558 29.0085 61.7262 29.4198C61.8966 29.8312 61.9843 30.272 61.9843 30.7172Z" fill="white"/>
<path fill-rule="evenodd" clip-rule="evenodd" d="M35.0255 44.1058C35.0255 44.7774 34.8263 45.434 34.453 45.9924C34.0798 46.5508 33.5493 46.986 32.9286 47.2428C32.308 47.4996 31.6252 47.5665 30.9665 47.4351C30.3078 47.3038 29.7029 46.98 29.2283 46.5047C28.7537 46.0294 28.4307 45.424 28.3002 44.7652C28.1698 44.1063 28.2377 43.4235 28.4954 42.8033C28.7531 42.183 29.189 41.6531 29.7479 41.2806C30.3068 40.9082 30.9637 40.7099 31.6353 40.7108C32.0809 40.7108 32.5222 40.7987 32.9338 40.9693C33.3454 41.14 33.7194 41.3902 34.0342 41.7055C34.3491 42.0208 34.5987 42.3951 34.7688 42.8069C34.9389 43.2188 35.0261 43.6602 35.0255 44.1058Z" fill="white"/>
<path fill-rule="evenodd" clip-rule="evenodd" d="M21.4552 37.5024C21.4561 38.1742 21.2577 38.8313 20.885 39.3903C20.5124 39.9493 19.9822 40.3852 19.3616 40.6428C18.7411 40.9003 18.0581 40.9679 17.3991 40.8371C16.7401 40.7063 16.1347 40.3828 15.6596 39.9077C15.1846 39.4327 14.8611 38.8273 14.7303 38.1683C14.5994 37.5093 14.6671 36.8263 14.9246 36.2057C15.1822 35.5852 15.6181 35.055 16.1771 34.6823C16.7361 34.3097 17.3932 34.1112 18.065 34.1122C18.9642 34.1122 19.8265 34.4694 20.4622 35.1051C21.098 35.7409 21.4552 36.6032 21.4552 37.5024Z" fill="white"/>
<path fill-rule="evenodd" clip-rule="evenodd" d="M48.4141 37.5024C48.415 38.1742 48.2166 38.8313 47.8439 39.3903C47.4712 39.9493 46.941 40.3852 46.3205 40.6428C45.7 40.9003 45.017 40.9679 44.358 40.8371C43.699 40.7063 43.0936 40.3828 42.6185 39.9077C42.1434 39.4327 41.82 38.8273 41.6891 38.1683C41.5583 37.5093 41.6259 36.8263 41.8835 36.2057C42.141 35.5852 42.5769 35.055 43.1359 34.6823C43.695 34.3097 44.352 34.1112 45.0239 34.1122C45.923 34.1122 46.7853 34.4694 47.4211 35.1051C48.0569 35.7409 48.4141 36.6032 48.4141 37.5024Z" fill="white"/>
<path fill-rule="evenodd" clip-rule="evenodd" d="M6.96679 40.9882C6.96679 41.4412 6.83246 41.884 6.58079 42.2606C6.32912 42.6373 5.9714 42.9309 5.55289 43.1042C5.13437 43.2776 4.67385 43.3229 4.22955 43.2345C3.78526 43.1462 3.37715 42.928 3.05683 42.6077C2.73651 42.2874 2.51837 41.8793 2.43 41.435C2.34162 40.9907 2.38698 40.5302 2.56033 40.1117C2.73369 39.6931 3.02726 39.3354 3.40391 39.0838C3.78056 38.8321 4.22339 38.6978 4.67639 38.6978C5.28384 38.6978 5.86641 38.9391 6.29595 39.3686C6.72548 39.7981 6.96679 40.3807 6.96679 40.9882Z" fill="white"/>
<path fill-rule="evenodd" clip-rule="evenodd" d="M60.8846 40.9882C60.8855 41.4425 60.7516 41.8869 60.4997 42.2651C60.2479 42.6433 59.8895 42.9382 59.4699 43.1125C59.0503 43.2868 58.5884 43.3327 58.1428 43.2443C57.6971 43.1558 57.2877 42.9372 56.9664 42.6159C56.6452 42.2946 56.4265 41.8852 56.3381 41.4395C56.2497 40.9939 56.2955 40.532 56.4698 40.1124C56.6441 39.6928 56.939 39.3344 57.3172 39.0826C57.6954 38.8307 58.1398 38.6968 58.5942 38.6978C59.2016 38.6978 59.7842 38.9391 60.2137 39.3686C60.6432 39.7981 60.8846 40.3807 60.8846 40.9882Z" fill="white"/>
<path fill-rule="evenodd" clip-rule="evenodd" d="M33.9496 54.5584C33.9496 55.0114 33.8152 55.4543 33.5636 55.8309C33.3119 56.2076 32.9542 56.5011 32.5357 56.6745C32.1172 56.8478 31.6566 56.8932 31.2123 56.8048C30.768 56.7165 30.3599 56.4983 30.0396 56.178C29.7193 55.8577 29.5012 55.4496 29.4128 55.0053C29.3244 54.561 29.3698 54.1005 29.5431 53.6819C29.7165 53.2634 30.01 52.9057 30.3867 52.654C30.7634 52.4024 31.2062 52.268 31.6592 52.268C32.2666 52.268 32.8492 52.5093 33.2787 52.9389C33.7083 53.3684 33.9496 53.951 33.9496 54.5584Z" fill="white"/>
<path fill-rule="evenodd" clip-rule="evenodd" d="M20.3554 47.7733C20.3563 48.2277 20.2224 48.6721 19.9706 49.0502C19.7187 49.4284 19.3603 49.7233 18.9407 49.8977C18.5211 50.072 18.0593 50.1178 17.6136 50.0294C17.1679 49.941 16.7585 49.7223 16.4373 49.401C16.116 49.0798 15.8973 48.6704 15.8089 48.2247C15.7205 47.779 15.7663 47.3171 15.9406 46.8976C16.115 46.478 16.4099 46.1196 16.788 45.8677C17.1662 45.6159 17.6106 45.482 18.065 45.4829C18.3659 45.4823 18.6641 45.5411 18.9422 45.656C19.2204 45.7709 19.4731 45.9395 19.6859 46.1524C19.8987 46.3652 20.0674 46.6179 20.1823 46.8961C20.2972 47.1742 20.356 47.4724 20.3554 47.7733Z" fill="white"/>
<path fill-rule="evenodd" clip-rule="evenodd" d="M47.3382 47.7733C47.3391 48.2277 47.2052 48.6721 46.9534 49.0502C46.7015 49.4284 46.3431 49.7233 45.9235 49.8977C45.5039 50.072 45.0421 50.1178 44.5964 50.0294C44.1507 49.941 43.7413 49.7223 43.42 49.401C43.0988 49.0798 42.8801 48.6704 42.7917 48.2247C42.7033 47.779 42.7491 47.3171 42.9234 46.8976C43.0977 46.478 43.3927 46.1196 43.7708 45.8677C44.149 45.6159 44.5934 45.482 45.0478 45.4829C45.6552 45.4829 46.2378 45.7242 46.6673 46.1538C47.0969 46.5833 47.3382 47.1659 47.3382 47.7733Z" fill="white"/>
<path fill-rule="evenodd" clip-rule="evenodd" d="M5.86701 49.0548C5.86701 49.3718 5.74106 49.6759 5.51688 49.9001C5.2927 50.1242 4.98864 50.2502 4.6716 50.2502C4.35456 50.2502 4.0505 50.1242 3.82632 49.9001C3.60214 49.6759 3.47619 49.3718 3.47619 49.0548C3.47209 48.8907 3.50306 48.7277 3.56704 48.5766C3.62634 48.4315 3.71414 48.2998 3.82525 48.1893C3.93619 48.0787 4.06779 47.9909 4.21256 47.9311C4.3565 47.8711 4.51089 47.8402 4.66682 47.8402C4.82275 47.8402 4.97714 47.8711 5.12107 47.9311C5.26585 47.9909 5.39745 48.0787 5.50838 48.1893C5.6195 48.2998 5.7073 48.4315 5.76659 48.5766C5.83057 48.7277 5.86155 48.8907 5.85744 49.0548H5.86701Z" fill="white"/>
<path fill-rule="evenodd" clip-rule="evenodd" d="M59.7704 49.0548C59.7704 49.3718 59.6445 49.6759 59.4203 49.9001C59.1961 50.1242 58.8921 50.2502 58.575 50.2502C58.258 50.2502 57.9539 50.1242 57.7298 49.9001C57.5056 49.6759 57.3796 49.3718 57.3796 49.0548C57.3755 48.8907 57.4065 48.7277 57.4705 48.5766C57.5279 48.4306 57.616 48.2985 57.7287 48.1893C57.8396 48.0787 57.9712 47.9909 58.116 47.9311C58.2677 47.8691 58.4303 47.8382 58.5942 47.8402C58.9096 47.8415 59.2117 47.9673 59.4347 48.1904C59.6577 48.4134 59.7835 48.7155 59.7848 49.0309L59.7704 49.0548Z" fill="white"/>
<path fill-rule="evenodd" clip-rule="evenodd" d="M32.8259 62.6394C32.8247 62.9548 32.6988 63.2569 32.4758 63.4799C32.2528 63.7029 31.9507 63.8288 31.6353 63.83C31.4789 63.83 31.3241 63.7992 31.1797 63.7394C31.0352 63.6796 30.904 63.5919 30.7934 63.4813C30.6828 63.3707 30.5951 63.2395 30.5353 63.095C30.4755 62.9506 30.4447 62.7958 30.4447 62.6394C30.4407 62.4754 30.4717 62.3124 30.5355 62.1612C30.5948 62.0162 30.6826 61.8845 30.7937 61.7739C30.9047 61.6633 31.0363 61.5756 31.181 61.5157C31.3327 61.4537 31.4953 61.4228 31.6592 61.4249C31.9746 61.4266 32.2767 61.5519 32.5008 61.7739C32.6119 61.885 32.7 62.0169 32.7599 62.1622C32.8198 62.3075 32.8504 62.4631 32.8498 62.6203L32.8259 62.6394Z" fill="white"/>
<path fill-rule="evenodd" clip-rule="evenodd" d="M19.2556 55.8447C19.2556 56.1617 19.1297 56.4658 18.9055 56.69C18.6813 56.9142 18.3773 57.0401 18.0602 57.0401C17.7432 57.0401 17.4391 56.9142 17.2149 56.69C16.9908 56.4658 16.8648 56.1617 16.8648 55.8447C16.8592 55.681 16.8885 55.518 16.9509 55.3665C17.0144 55.2254 17.1035 55.0973 17.2139 54.9888C17.3265 54.8802 17.4577 54.7928 17.6012 54.7306C17.7532 54.6697 17.9156 54.6388 18.0793 54.6397C18.395 54.6404 18.6975 54.7659 18.9209 54.9888C19.032 55.0993 19.1198 55.231 19.1791 55.3761C19.243 55.5272 19.2739 55.6902 19.27 55.8543L19.2556 55.8447Z" fill="white"/>
<path fill-rule="evenodd" clip-rule="evenodd" d="M46.2145 55.8447C46.2132 56.1601 46.0874 56.4622 45.8644 56.6852C45.6413 56.9082 45.3392 57.034 45.0239 57.0353C44.8601 57.0362 44.6977 57.0053 44.5457 56.9444C44.4022 56.8823 44.271 56.7948 44.1584 56.6862C43.935 56.4622 43.8096 56.1587 43.8096 55.8423C43.8096 55.5259 43.935 55.2224 44.1584 54.9983C44.271 54.8897 44.4022 54.8023 44.5457 54.7401C44.6977 54.6792 44.8601 54.6484 45.0239 54.6493C45.1877 54.6472 45.3503 54.6781 45.502 54.7401C45.6462 54.8011 45.7776 54.8887 45.8893 54.9983C46.0004 55.1089 46.0882 55.2406 46.1475 55.3856C46.2114 55.5368 46.2423 55.6998 46.2384 55.8638L46.2145 55.8447Z" fill="white"/>
<path fill-rule="evenodd" clip-rule="evenodd" d="M36.13 4.58558C36.13 5.49313 35.8607 6.38027 35.3562 7.13468C34.8517 7.88908 34.1347 8.47681 33.2959 8.82346C32.4572 9.17011 31.5345 9.26008 30.6446 9.08197C29.7546 8.90387 28.9376 8.46571 28.2969 7.82297C27.6561 7.18023 27.2205 6.36181 27.0452 5.47135C26.8699 4.5809 26.9628 3.65844 27.3121 2.82079C27.6613 1.98313 28.2513 1.26796 29.0073 0.765819C29.7633 0.263678 30.6512 -0.00284713 31.5588 -8.07014e-06C32.775 -8.07014e-06 33.9413 0.483115 34.8013 1.34308C35.6613 2.20304 36.1444 3.3694 36.1444 4.58558H36.13Z" fill="white"/>
<path fill-rule="evenodd" clip-rule="evenodd" d="M36.13 18.1702C36.1272 19.0771 35.8555 19.9629 35.3492 20.7154C34.843 21.4679 34.125 22.0534 33.286 22.3978C32.447 22.7423 31.5247 22.8302 30.6358 22.6505C29.7468 22.4708 28.9311 22.0315 28.2918 21.3882C27.6525 20.7449 27.2184 19.9264 27.0442 19.0364C26.87 18.1463 26.9637 17.2246 27.3134 16.3878C27.6631 15.551 28.2531 14.8366 29.0088 14.3351C29.7644 13.8336 30.6518 13.5674 31.5588 13.5703C32.161 13.5722 32.7569 13.6926 33.3125 13.9248C33.8681 14.157 34.3726 14.4964 34.7971 14.9235C35.2216 15.3506 35.5577 15.8572 35.7865 16.4143C36.0152 16.9714 36.1319 17.568 36.13 18.1702Z" fill="white"/>
<path fill-rule="evenodd" clip-rule="evenodd" d="M36.13 31.5588C36.1272 32.4657 35.8555 33.3514 35.3492 34.104C34.843 34.8565 34.125 35.442 33.286 35.7864C32.447 36.1309 31.5247 36.2188 30.6358 36.0391C29.7468 35.8594 28.9311 35.4201 28.2918 34.7768C27.6525 34.1334 27.2184 33.315 27.0442 32.425C26.87 31.5349 26.9637 30.6132 27.3134 29.7764C27.6631 28.9395 28.2531 28.2252 29.0088 27.7237C29.7644 27.2222 30.6518 26.956 31.5588 26.9589C32.7746 26.9639 33.9387 27.4511 34.7957 28.3135C35.6527 29.1759 36.1326 30.343 36.13 31.5588Z" fill="white"/>
<path fill-rule="evenodd" clip-rule="evenodd" d="M63.0889 18.1702C63.0889 19.0772 62.82 19.9637 62.3161 20.7178C61.8122 21.4719 61.096 22.0597 60.2581 22.4067C59.4202 22.7538 58.4982 22.8446 57.6087 22.6677C56.7192 22.4907 55.9021 22.054 55.2608 21.4127C54.6195 20.7714 54.1828 19.9543 54.0058 19.0648C53.8289 18.1753 53.9197 17.2533 54.2668 16.4154C54.6139 15.5775 55.2016 14.8613 55.9557 14.3574C56.7098 13.8536 57.5964 13.5846 58.5033 13.5846C59.7195 13.5846 60.8858 14.0677 61.7458 14.9277C62.6058 15.7877 63.0889 16.954 63.0889 18.1702Z" fill="white"/>
<path fill-rule="evenodd" clip-rule="evenodd" d="M9.17117 18.1702C9.17117 19.0772 8.90223 19.9637 8.39836 20.7178C7.89449 21.4719 7.17832 22.0597 6.34042 22.4067C5.50251 22.7538 4.5805 22.8446 3.69098 22.6677C2.80147 22.4907 1.98439 22.054 1.34309 21.4127C0.701783 20.7714 0.265049 19.9543 0.0881128 19.0648C-0.088823 18.1753 0.00198687 17.2533 0.349059 16.4154C0.696131 15.5775 1.28388 14.8613 2.03797 14.3574C2.79207 13.8536 3.67864 13.5846 4.58559 13.5846C5.80176 13.5846 6.96812 14.0677 7.82809 14.9277C8.68805 15.7877 9.17117 16.954 9.17117 18.1702Z" fill="white"/>
<path d="M18.1559 15.9563C20.6884 15.9563 22.7415 13.9033 22.7415 11.3707C22.7415 8.83819 20.6884 6.78516 18.1559 6.78516C15.6233 6.78516 13.5703 8.83819 13.5703 11.3707C13.5703 13.9033 15.6233 15.9563 18.1559 15.9563Z" fill="white"/>
<path fill-rule="evenodd" clip-rule="evenodd" d="M22.7415 24.7593C22.7415 25.6669 22.4722 26.554 21.9677 27.3084C21.4632 28.0628 20.7461 28.6506 19.9074 28.9972C19.0687 29.3438 18.1459 29.4338 17.256 29.2557C16.3661 29.0776 15.5491 28.6394 14.9083 27.9967C14.2676 27.354 13.832 26.5356 13.6567 25.6451C13.4814 24.7546 13.5742 23.8322 13.9235 22.9945C14.2728 22.1569 14.8628 21.4417 15.6187 20.9396C16.3747 20.4374 17.2627 20.1709 18.1702 20.1737C19.3843 20.1763 20.5477 20.6607 21.4049 21.5205C22.262 22.3803 22.7428 23.5452 22.7415 24.7593Z" fill="white"/>
<path fill-rule="evenodd" clip-rule="evenodd" d="M49.7003 11.3707C49.7003 12.2777 49.4314 13.1643 48.9275 13.9184C48.4237 14.6725 47.7075 15.2602 46.8696 15.6073C46.0317 15.9543 45.1097 16.0452 44.2202 15.8682C43.3306 15.6913 42.5136 15.2545 41.8723 14.6132C41.231 13.9719 40.7942 13.1549 40.6173 12.2653C40.4404 11.3758 40.5312 10.4538 40.8782 9.61591C41.2253 8.77801 41.8131 8.06184 42.5671 7.55797C43.3212 7.0541 44.2078 6.78516 45.1148 6.78516C46.3305 6.78642 47.4962 7.26995 48.3559 8.12964C49.2156 8.98933 49.6991 10.155 49.7003 11.3707Z" fill="white"/>
<path fill-rule="evenodd" clip-rule="evenodd" d="M49.7003 24.7593C49.7003 25.6663 49.4314 26.5528 48.9275 27.3069C48.4237 28.061 47.7075 28.6488 46.8696 28.9958C46.0317 29.3429 45.1097 29.4337 44.2202 29.2568C43.3306 29.0799 42.5136 28.6431 41.8723 28.0018C41.231 27.3605 40.7942 26.5434 40.6173 25.6539C40.4404 24.7644 40.5312 23.8424 40.8782 23.0045C41.2253 22.1666 41.8131 21.4504 42.5671 20.9465C43.3212 20.4427 44.2078 20.1737 45.1148 20.1737C46.3309 20.1737 47.4973 20.6569 48.3573 21.5168C49.2172 22.3768 49.7003 23.5431 49.7003 24.7593Z" fill="white"/>
</svg>
