<svg width="130" height="40" viewBox="0 0 130 40" fill="none" xmlns="http://www.w3.org/2000/svg">
<path d="M39.206 19.9893C39.2793 8.42334 28.9955 -0.799686 17.5089 0.499627C17.1045 0.543637 16.6855 0.604414 16.2894 0.673571C12.17 -0.277862 7.99825 -0.40151 6.02237 1.49507C4.63107 3.09616 4.13658 5.42655 4.21829 7.84495C1.47941 11.3034 -0.00734578 15.5879 0.000412304 19.9998C-0.0750193 31.5637 10.2109 40.7867 21.6933 39.4895C22.0977 39.4476 22.5021 39.3931 22.8918 39.324C26.9923 40.2796 31.1495 40.4032 33.1966 38.4857C34.393 37.2073 35.0614 34.8895 34.9923 32.1379C37.7288 28.6808 39.214 24.3987 39.206 19.9893ZM22.5482 35.382C19.0818 36.0456 15.493 35.5205 12.3619 33.8918C9.23075 32.263 6.74033 29.6258 5.29319 26.4063C5.1989 26.1967 5.10671 25.9725 5.01871 25.7503C4.31111 23.9128 3.94128 21.9626 3.92705 19.9935C3.92385 17.7638 4.39826 15.5593 5.31834 13.5284C5.5132 14.0733 5.72693 14.5888 5.94693 15.0687C8.30836 20.2261 13.2345 25.2201 21.7289 27.1544C27.1181 28.3846 28.832 30.1387 28.9179 31.7397C27.8326 33.7642 24.8383 34.9503 22.5544 35.382H22.5482ZM26.9986 21.8147C28.3312 26.2721 16.8175 25.1405 12.2119 18.1745C10.9191 13.9035 22.0243 14.4756 27.0049 21.8147H26.9986ZM17.4796 12.8243C12.1239 11.6025 10.3911 9.86517 10.2842 8.26827C10.5734 7.7435 10.9553 7.27557 11.4115 6.88722C15.1684 3.74372 22.7891 3.33926 27.9646 6.73843C30.8081 8.54022 33 11.2054 34.2191 14.3436C34.8981 16.1491 35.2528 18.0604 35.2668 19.9893C35.2699 22.2168 34.7962 24.4191 33.8776 26.4482C31.8493 20.7731 26.8226 14.9451 17.4859 12.8243H17.4796Z" fill="#FEC6C6"/>
<path d="M62.6739 11.0136C61.2071 9.66185 59.2648 8.97656 56.8908 8.97656C54.5168 8.97656 52.5388 9.66185 51.0762 11.0136C49.6137 12.3653 48.8447 14.1948 48.8447 16.4288V23.554C48.8447 25.788 49.5928 27.6112 51.0658 28.9734C52.5388 30.3356 54.4832 31.0125 56.8803 31.0125C59.2773 31.0125 61.2008 30.3251 62.6634 28.9734C64.1259 27.6217 64.8823 25.788 64.8823 23.554V16.4288C64.8823 14.1948 64.1406 12.3715 62.6739 11.0136ZM51.7111 16.4916C51.7111 15.0247 52.17 13.8888 53.1087 13.0191C54.0474 12.1494 55.3193 11.7135 56.8908 11.7135C58.4623 11.7135 59.7132 12.1515 60.6456 13.0191C61.578 13.8867 62.0369 15.0247 62.0369 16.4916V23.4765C62.0369 24.9435 61.5822 26.0835 60.6456 26.9574C59.709 27.8313 58.4497 28.2693 56.8908 28.2693C55.3318 28.2693 54.0495 27.8271 53.1192 26.9574C52.1889 26.0877 51.7195 24.9455 51.7195 23.4765L51.7111 16.4916Z" fill="#FEC6C6"/>
<path d="M78.5624 9.33691H70.6777V30.6331H73.5337V23.2982H78.5624C80.6137 23.2982 82.2858 22.6507 83.5325 21.3765C84.7792 20.1024 85.4183 18.3965 85.4183 16.3008C85.4183 14.2052 84.7897 12.5286 83.5325 11.2544C82.2753 9.98028 80.6137 9.33691 78.5624 9.33691ZM73.5337 12.0739H78.4304C79.6876 12.0739 80.6745 12.4469 81.4288 13.216C82.1831 13.9851 82.554 15.0141 82.554 16.3029C82.554 17.5917 82.1748 18.6647 81.4288 19.4296C80.6829 20.1946 79.6918 20.5781 78.4304 20.5781H73.5337V12.0739Z" fill="#FEC6C6"/>
<path d="M102.711 21.1589C102.343 20.7374 101.915 20.3736 101.439 20.0797C100.992 19.7928 100.52 19.5466 100.029 19.3441C99.6098 19.1722 99.0985 19.0025 98.5391 18.839L95.2494 17.8918C94.8279 17.7713 94.4149 17.6229 94.0132 17.4475C93.6634 17.286 93.3312 17.0887 93.0221 16.8586C92.7361 16.6482 92.5095 16.3674 92.3642 16.0434C92.2019 15.6769 92.1224 15.279 92.1316 14.8782C92.1189 14.4285 92.2217 13.983 92.43 13.5842C92.6384 13.1854 92.9453 12.8467 93.3217 12.6002C94.1599 12.003 95.3479 11.7012 96.8502 11.7012C98.7675 11.7012 100.456 12.1455 101.866 13.0236L102.587 13.472V10.5947L102.378 10.4543C100.911 9.4756 99.0252 8.9873 96.7622 8.9873C94.4574 8.9873 92.6219 9.5238 91.3144 10.5821C90.0069 11.6404 89.284 13.1221 89.284 14.9453C89.2768 15.6001 89.3867 16.251 89.6088 16.867C89.7988 17.3984 90.0764 17.8943 90.4302 18.334C90.7851 18.7501 91.2012 19.1098 91.6643 19.4007C92.1017 19.6853 92.563 19.9315 93.043 20.1363C93.5225 20.3332 94.0121 20.5046 94.5098 20.6497L97.7449 21.5948C98.1858 21.7328 98.6182 21.8966 99.0399 22.0852C99.4103 22.2573 99.7614 22.468 100.088 22.7139C100.392 22.9373 100.637 23.2334 100.798 23.5752C100.967 23.9576 101.05 24.3726 101.041 24.7907C101.051 25.2809 100.936 25.7654 100.707 26.1991C100.478 26.6327 100.143 27.0011 99.7334 27.2699C98.8157 27.93 97.5228 28.2633 95.8927 28.2633C93.8392 28.2786 91.8206 27.7322 90.0551 26.6831L89.3427 26.264V29.1979L89.5753 29.3341C91.4611 30.4511 93.6654 31.0107 96.1001 31.0107C98.5349 31.0107 100.419 30.4407 101.789 29.3153C103.159 28.1899 103.897 26.614 103.897 24.7048C103.905 24.0184 103.793 23.3359 103.564 22.6888C103.373 22.132 103.084 21.6139 102.711 21.1589Z" fill="#FEC6C6"/>
<path d="M116.297 8.97266C113.854 8.97266 111.876 9.63908 110.413 10.9552C108.951 12.2712 108.188 14.0735 108.188 16.2802V23.6947C108.188 25.9015 108.936 27.6932 110.413 29.0219C111.89 30.3506 113.854 31.0044 116.297 31.0044C118.088 30.9985 119.859 30.6322 121.506 29.9272L121.793 29.8057V26.9661L121.133 27.2699C119.702 27.9278 118.145 28.2674 116.569 28.2654C114.828 28.2654 113.456 27.8274 112.488 26.9619C111.52 26.0964 111.05 24.9563 111.05 23.4726V16.4877C111.05 15.004 111.52 13.866 112.485 13.0068C113.451 12.1476 114.828 11.7096 116.569 11.7096C118.145 11.7076 119.702 12.0472 121.133 12.705L121.799 13.011V10.1756L121.512 10.054C119.864 9.34652 118.09 8.97873 116.297 8.97266Z" fill="#FEC6C6"/>
<path d="M130 9.34131H127.145V30.6312H130V9.34131Z" fill="#FEC6C6"/>
</svg>
