<svg width="24" height="24" viewBox="0 0 24 24" fill="none" xmlns="http://www.w3.org/2000/svg">
<path fill-rule="evenodd" clip-rule="evenodd" d="M0.666748 12.0001C0.666748 5.74085 5.74094 0.666748 12.0001 0.666748C18.2592 0.666748 23.3334 5.74085 23.3334 12.0001C23.3334 18.2593 18.2592 23.3334 12.0001 23.3334C5.74094 23.3334 0.666748 18.2593 0.666748 12.0001ZM10.2505 16.1425L15.9172 12.6008C16.1242 12.4712 16.2501 12.2442 16.2501 12.0001C16.2501 11.7559 16.1242 11.529 15.9172 11.3993L10.2505 7.85766C10.0321 7.72104 9.75679 7.71342 9.53163 7.83898C9.30647 7.96382 9.16675 8.20076 9.16675 8.45841V15.5417C9.16675 15.7994 9.30647 16.0363 9.53163 16.1612C9.63867 16.2207 9.75697 16.2501 9.87508 16.2501C10.0055 16.2501 10.1358 16.2141 10.2505 16.1425Z" fill="#486073"/>
</svg>
