<svg xmlns="http://www.w3.org/2000/svg" viewBox="0 0 523.26 110.03">
  <g id="Layer_2" data-name="Layer 2">
    <g id="Layer_1-2" data-name="Layer 1">
      <g id="logo-icon">
        <g>
          <path d="M83.88,26.55a4.85,4.85,0,0,0,4.33,0l20.51-11.78a1.31,1.31,0,0,0,0-2.48L88.21.51a4.85,4.85,0,0,0-4.33,0L63.37,12.29a1.31,1.31,0,0,0,0,2.48Zm4.47,36.53a4.77,4.77,0,0,1-2.17,3.73L61.07,81.22a4.78,4.78,0,0,0-2.16,3.72V108.5c0,1.36,1,1.92,2.19,1.22L111,81.1a4.84,4.84,0,0,0,2.2-3.79V20c0-1.38-1-2-2.16-1.28L90.51,30.52a4.8,4.8,0,0,0-2.16,3.73Zm-63.53-.33c0-1.36,1-1.93,2.16-1.24L52.1,75.93c1.19.68,2.17.13,2.17-1.24V51.13a4.8,4.8,0,0,0-2.19-3.74L2.19,18.77C1,18.07,0,18.63,0,20V77.31a4.79,4.79,0,0,0,2.16,3.76l20.5,11.76c1.18.68,2.16.13,2.16-1.24ZM29.34.53A4.85,4.85,0,0,0,25,.52L4.46,12.3c-1.19.68-1.18,1.8,0,2.5L54.39,43.44a4.85,4.85,0,0,0,4.36,0L79.27,31.67c1.18-.67,1.17-1.8,0-2.49Zm54.4,36.36c0-1.36-1-1.92-2.16-1.24L61.07,47.42a4.74,4.74,0,0,0-2.16,3.72V74.69c0,1.37,1,1.93,2.16,1.24L81.58,64.16a4.77,4.77,0,0,0,2.16-3.72ZM31.61,69.46c-1.18-.69-2.16-.13-2.16,1.24V94.26A4.77,4.77,0,0,0,31.61,98l20.5,11.76c1.19.68,2.16.13,2.16-1.24V84.94a4.77,4.77,0,0,0-2.16-3.72Z" fill-rule="evenodd"/>
          <g>
            <path d="M163.38,35.74a12.43,12.43,0,0,1,8,3.77,12.15,12.15,0,0,1,3.06,8.7,11.87,11.87,0,0,1-3.15,8.65,12.91,12.91,0,0,1-7.9,3.83,51.51,51.51,0,0,1-5.94.3h-6V76.43h-8.2v-41h14.2A50.54,50.54,0,0,1,163.38,35.74Zm-2.44,18.59q4.88-.7,4.87-6.12t-4.87-6.11a28.09,28.09,0,0,0-3.62-.18h-5.88V54.51h5.88A29,29,0,0,0,160.94,54.33Z"/>
            <path d="M194.81,44.06a10.17,10.17,0,0,1,2.31.23v6.6c-3.48-.24-6.06.5-7.72,2.23s-2.5,4.66-2.5,8.82V76.43h-8.19V44.83h8.19v5.76l2.5-4.39A7.7,7.7,0,0,1,194.81,44.06Z"/>
            <path d="M203.18,48.6q4.33-4.6,12.06-4.6t12.06,4.6q4.33,4.6,4.34,12t-4.34,12q-4.34,4.64-12.06,4.64t-12.06-4.64q-4.34-4.63-4.34-12T203.18,48.6Zm6.27,20a7.26,7.26,0,0,0,11.58,0q2.11-2.88,2.11-8c0-3.4-.7-6.07-2.11-8a7.26,7.26,0,0,0-11.58,0c-1.41,1.92-2.11,4.59-2.11,8S208,66.7,209.45,68.62Z"/>
            <path d="M246.78,50.47V65.09q0,1.95.06,2.79c.12,1.54.58,2.54,1.37,3s2.32.6,4.57.44v5.35a33.22,33.22,0,0,1-5.4.42q-4.51,0-6.45-1.52a6.69,6.69,0,0,1-2.22-5c-.08-1-.12-2.47-.12-4.57V50.47H234v-5.4h4.64V37.29h8.19v7.78h6.54v5.4Z"/>
            <path d="M260.09,48.6q4.34-4.6,12.06-4.6t12.06,4.6q4.34,4.6,4.34,12t-4.34,12q-4.33,4.64-12.06,4.64t-12.06-4.64q-4.33-4.63-4.33-12T260.09,48.6Zm6.27,20a7.26,7.26,0,0,0,11.58,0q2.12-2.88,2.11-8c0-3.4-.7-6.07-2.11-8a7.26,7.26,0,0,0-11.58,0c-1.41,1.92-2.11,4.59-2.11,8S265,66.7,266.36,68.62Z"/>
            <path d="M307.56,44a14.68,14.68,0,0,1,10.09,3.41A12.83,12.83,0,0,1,322,56.23h-8.08q-1.07-6.46-6.53-6.47a6.08,6.08,0,0,0-5.2,2.67c-1.29,1.78-1.93,4.42-1.93,7.9q0,5.65,1.9,8.41a6.26,6.26,0,0,0,9.3,1.22,8,8,0,0,0,2.28-4.46h8.2a13.33,13.33,0,0,1-5,8.73,16.17,16.17,0,0,1-10.07,3A14.64,14.64,0,0,1,295.94,73q-4.19-4.24-4.19-12.15t4.52-12.36A15.31,15.31,0,0,1,307.56,44Z"/>
            <path d="M329.42,48.6q4.33-4.6,12.06-4.6t12.06,4.6q4.33,4.6,4.33,12t-4.33,12q-4.34,4.64-12.06,4.64t-12.06-4.64q-4.34-4.63-4.34-12T329.42,48.6Zm6.26,20a7.27,7.27,0,0,0,11.59,0q2.12-2.88,2.11-8c0-3.4-.7-6.07-2.11-8a7.27,7.27,0,0,0-11.59,0c-1.4,1.92-2.1,4.59-2.1,8S334.28,66.7,335.68,68.62Z"/>
            <path d="M371.18,32.77V66.1q0,2.07.06,2.91a1.93,1.93,0,0,0,.89,1.66,5.73,5.73,0,0,0,2.79.3v5.64a46,46,0,0,1-5.05.24q-6.53,0-6.77-5.58c-.08-1-.12-2.62-.12-5V32.77Z"/>
            <path d="M422.45,69.6v6.83H392.86v-41h8.2V69.6Z"/>
            <path d="M445.55,76.43,445,71.8l-1.54,3.39a13.83,13.83,0,0,1-7.85,2.08,10.91,10.91,0,0,1-7.24-2.44,8.34,8.34,0,0,1-2.91-6.77A9,9,0,0,1,429.84,60q4.43-2.82,13-2.82h2v-.66a28.31,28.31,0,0,0-.12-3c-.27-2.53-1.9-3.8-4.87-3.8q-4.94,0-5.29,5.35l-8,.06a10.35,10.35,0,0,1,3.95-8.2,15.07,15.07,0,0,1,9.6-3Q452,44,452.8,53.32c.12,1.47.18,3.09.18,4.88V68.41a61.23,61.23,0,0,0,.59,8Zm-6.83-4.93a5.88,5.88,0,0,0,4.37-1.78,6.72,6.72,0,0,0,1.75-4.93V62.23q-10.93-.76-10.93,5.17C433.91,70.14,435.52,71.5,438.72,71.5Z"/>
            <path d="M479.36,44a12.78,12.78,0,0,1,10.3,4.45q3.78,4.45,3.78,11.59,0,8.19-4.34,12.71a14.39,14.39,0,0,1-10.81,4.52q-4.87,0-7.43-1.79l-2.08-3.27v4.22h-8.2V32.77h8.2V49.64l2.38-3.44Q473.89,44,479.36,44Zm-2.68,27.5a7.31,7.31,0,0,0,6-2.82q2.3-2.82,2.29-8.11a13,13,0,0,0-2.17-7.84,6.8,6.8,0,0,0-5.79-3A7.58,7.58,0,0,0,471,52.28c-1.51,1.69-2.26,4.35-2.26,8v1.48c0,3.33.77,5.78,2.32,7.37A7.52,7.52,0,0,0,476.68,71.5Z"/>
            <path d="M510.07,44a13.18,13.18,0,0,1,8.73,2.73A10.73,10.73,0,0,1,522.61,54h-8.2q-.84-4.57-4.87-4.58a3.88,3.88,0,0,0-2.77.93,3.22,3.22,0,0,0-1,2.46,3.28,3.28,0,0,0,1.61,2.85A19.49,19.49,0,0,0,513,57.72a18,18,0,0,1,7.72,3.62,8.3,8.3,0,0,1,2.56,6.48,7.91,7.91,0,0,1-3.66,7,16.55,16.55,0,0,1-9.35,2.44,16.27,16.27,0,0,1-9.62-2.62,10.67,10.67,0,0,1-4.34-7.84h8.2a6.09,6.09,0,0,0,2.05,3.77,5.86,5.86,0,0,0,3.83,1.28,5.77,5.77,0,0,0,3.35-.89A3,3,0,0,0,515,68.41a3.49,3.49,0,0,0-1.72-3,19.72,19.72,0,0,0-5.82-2.17,17.51,17.51,0,0,1-7.37-3.41,7.67,7.67,0,0,1-2.55-6.09A8.48,8.48,0,0,1,501,46.61Q504.37,44,510.07,44Z"/>
          </g>
        </g>
      </g>
    </g>
  </g>
</svg>
