<svg width="95" height="95" viewBox="0 0 132 86" fill="none" xmlns="http://www.w3.org/2000/svg">
<path d="M124.588 12.4961C120.625 8.52435 115.328 6.16649 109.725 5.88017C104.121 5.59385 98.6114 7.3995 94.2644 10.9467C86.1931 3.71597 75.6844 -0.19226 64.8499 0.00728102C54.0153 0.206822 43.6576 4.49934 35.8581 12.0223C35.7321 12.1261 35.6123 12.2373 35.4996 12.3553L6.69982 41.1678C2.48597 45.3991 0.103141 51.1165 0.0648158 57.0881C0.0264909 63.0596 2.33574 68.8071 6.49493 73.0921C10.4569 77.1243 15.7812 79.5325 21.4255 79.8451C27.0698 80.1578 32.6276 78.3524 37.0106 74.7825C45.2113 82.0132 55.8465 85.8693 66.7758 85.5746C77.705 85.28 88.117 80.8566 95.9163 73.1946L124.601 44.5613C128.83 40.3073 131.203 34.5527 131.203 28.5543C131.203 22.556 128.83 16.8013 124.601 12.5474L124.588 12.4961ZM40.9291 64.1026L37.0875 67.9443C28.4181 58.3913 25.3703 42.8454 29.5962 31.013C30.4157 39.4519 34.5904 48.8 41.3261 57.1236C42.131 58.1316 42.5355 59.4012 42.4623 60.689C42.389 61.9769 41.8431 63.1924 40.9291 64.1026ZM86.914 18.105C85.9975 19.0423 84.7655 19.6058 83.457 19.6863C82.1486 19.7667 80.8569 19.3584 79.8325 18.5404C71.5345 11.8175 62.2248 7.68125 53.7987 6.84889C54.7335 6.55436 55.694 6.28544 56.6928 6.04214C62.6089 4.61396 68.7808 4.62199 74.6931 6.06554C80.6054 7.5091 86.0866 10.3463 90.6788 14.3401L86.914 18.105ZM77.3738 25.0712C77.427 25.8284 77.3174 26.5882 77.0523 27.2994C76.7872 28.0107 76.3729 28.6569 75.8371 29.1946C74.8787 30.1584 73.5839 30.713 72.2249 30.7416C70.866 30.7703 69.549 30.2708 68.5508 29.3483C63.2366 24.3752 57.4946 19.8802 51.3913 15.9152C49.3295 14.5913 47.1623 13.4392 44.9117 12.4705C53.1456 10.0119 64.8371 13.3413 75.3249 21.268C75.9173 21.7197 76.4064 22.2927 76.7597 22.9485C77.1131 23.6044 77.3224 24.328 77.3738 25.0712ZM53.8756 60.6579C53.7828 59.5912 54.016 58.5215 54.5443 57.5903C55.0725 56.659 55.8711 55.9099 56.8342 55.4423C57.7973 54.9746 58.8798 54.8102 59.9383 54.9709C60.9969 55.1317 61.9817 55.6099 62.7626 56.3424C67.2062 60.389 77.95 69.7243 86.3249 73.233C78.0909 75.666 66.425 72.3366 55.9629 64.4228C55.3669 63.9801 54.8723 63.4152 54.5124 62.7659C54.1524 62.1166 53.9353 61.3979 53.8756 60.6579ZM64.8371 40.169L62.8779 42.1283C62.3717 42.6276 61.7716 43.0217 61.1122 43.2877C60.4528 43.5536 59.7472 43.6862 59.0362 43.6777C58.3223 43.6602 57.6194 43.498 56.9701 43.2008C56.3207 42.9037 55.7385 42.4778 55.2586 41.949C47.8569 33.9327 38.0991 20.8582 38.8546 16.1329C43.8104 15.3646 57.2306 25.6091 64.7091 32.5113C65.244 32.9931 65.6746 33.5793 65.9744 34.2338C66.2743 34.8883 66.437 35.5972 66.4526 36.317C66.4682 37.0367 66.3363 37.752 66.0651 38.4189C65.7939 39.0858 65.3891 39.6901 64.8755 40.1946L64.8371 40.169ZM66.361 45.6114L68.3331 43.6521C68.8187 43.1618 69.3973 42.7733 70.035 42.5094C70.6726 42.2456 71.3566 42.1116 72.0467 42.1154H72.1747C72.9001 42.1204 73.6165 42.2767 74.278 42.5744C74.9395 42.8721 75.5316 43.3046 76.0164 43.8442C88.0921 57.0467 92.5868 66.3948 92.5868 69.148C92.5868 69.545 92.4075 69.6474 92.2667 69.7115C90.1282 70.595 79.9989 65.3704 66.5915 53.2563C66.0579 52.7666 65.6295 52.1736 65.3323 51.5131C65.0351 50.8527 64.8753 50.1387 64.8627 49.4146C64.8448 48.7054 64.9719 48 65.2361 47.3417C65.5003 46.6833 65.8962 46.0858 66.3994 45.5858L66.361 45.6114ZM51.9675 53.0642C51.4289 53.5986 50.7825 54.0121 50.0715 54.277C49.3605 54.542 48.6012 54.6524 47.8441 54.6009C47.0929 54.555 46.3605 54.3469 45.6974 53.991C45.0342 53.6351 44.456 53.1398 44.0025 52.5392C36.0886 42.0642 32.7592 30.3855 35.205 22.1515C36.1819 24.3942 37.3336 26.5565 38.6497 28.6184C42.6153 34.7246 47.1149 40.4669 52.0956 45.7778C53.0185 46.7742 53.5205 48.0888 53.4966 49.4468C53.4728 50.8047 52.9249 52.1009 51.9675 53.0642ZM44.361 67.6241C45.2792 66.6887 46.512 66.1275 47.8204 66.0494C49.1288 65.9714 50.4196 66.3819 51.4425 67.2016C59.7533 73.9117 69.063 78.1119 77.489 78.8802C76.5585 79.1705 75.5981 79.4394 74.6078 79.687C68.6901 81.1227 62.5145 81.1184 56.5988 79.6746C50.6831 78.2308 45.1999 75.3895 40.609 71.389L44.361 67.6241ZM79.3074 32.6905C79.8411 32.1563 80.483 31.7426 81.1899 31.4772C81.8969 31.2117 82.6524 31.1008 83.4058 31.1517C84.1592 31.2027 84.893 31.4144 85.5577 31.7726C86.2225 32.1308 86.8028 32.6272 87.2597 33.2284C93.3552 41.2959 96.8383 50.247 96.8383 57.8023C96.8592 59.7475 96.5917 61.6852 96.0443 63.552C92.5356 55.1771 83.2388 44.4333 79.1538 39.9897C78.2334 38.9879 77.7356 37.6693 77.7642 36.3093C77.7928 34.9492 78.3457 33.6527 79.3074 32.6905ZM103.536 42.935C103.542 46.9584 102.907 50.957 101.653 54.7802C100.846 46.3541 96.6974 37.0316 89.9745 28.7208C89.1565 27.6964 88.7481 26.4047 88.8286 25.0962C88.909 23.7878 89.4725 22.5558 90.4099 21.6393L94.1619 17.8873C100.216 24.8058 103.548 33.6902 103.536 42.8838V42.935ZM97.7603 14.5066C100.852 12.1002 104.664 10.8055 108.581 10.8314C110.909 10.8123 113.217 11.2654 115.365 12.1634C117.513 13.0614 119.457 14.3857 121.079 16.0561C122.729 17.7003 124.039 19.6541 124.932 21.8054C125.826 23.9567 126.285 26.2633 126.285 28.5928C126.285 30.9222 125.826 33.2288 124.932 35.3801C124.039 37.5314 122.729 39.4852 121.079 41.1294L106.545 55.6509C108.702 48.6037 109.028 41.1228 107.491 33.9148C105.954 26.7067 102.605 20.0094 97.7603 14.4554V14.5066ZM33.5275 71.2865C31.2448 73.0579 28.5573 74.2335 25.7071 74.7075C22.8568 75.1814 19.9335 74.9387 17.2004 74.0013C14.3282 73.1041 11.7377 71.4774 9.68186 69.2802C7.626 67.0829 6.17499 64.3901 5.47048 61.4647C4.75612 58.4939 4.81289 55.3898 5.63541 52.4471C6.45792 49.5044 8.01889 46.8208 10.1701 44.6509L24.7429 30.0782C23.4656 34.2266 22.8181 38.5432 22.822 42.8838C22.8076 53.3401 26.6148 63.4412 33.5275 71.2865Z" fill="#FEC6C6"/>
</svg>
