<svg width="95" height="95" viewBox="0 0 120 92" fill="none" xmlns="http://www.w3.org/2000/svg">
<path d="M119.598 40.595C119.598 32.666 112.048 25.7112 98.3277 20.8266C94.3852 14.8045 89.0949 9.78282 82.8756 6.15928C79.5165 4.20697 75.9191 2.69706 72.1728 1.66708C62.79 -0.930006 52.8251 -0.48349 43.7122 2.94238C34.5992 6.36825 26.808 12.5968 21.4597 20.7319C7.61779 25.5623 0 32.5848 0 40.595C0.0119066 42.4717 0.44664 44.3216 1.27189 46.0072C0.44664 47.6929 0.0119066 49.5428 0 51.4195C0 59.4026 7.61779 66.4251 21.4597 71.2691C26.8109 79.3966 34.6015 85.6179 43.7114 89.0387C52.8212 92.4594 62.7812 92.9034 72.1593 90.3068C75.9056 89.2768 79.503 87.7669 82.8621 85.8146C89.0787 82.1992 94.3688 77.187 98.3142 71.1744C112.034 66.3033 119.598 59.3485 119.598 51.4195C119.579 49.5436 119.145 47.6952 118.326 46.0072C119.145 44.3193 119.579 42.4709 119.598 40.595ZM105.54 51.4872C105.621 50.8377 105.661 50.2018 105.715 49.5523C105.715 49.2817 105.715 49.0111 105.715 48.7404C105.77 47.8384 105.797 46.9364 105.797 46.0343C105.797 45.1142 105.797 44.1941 105.715 43.3282C105.715 42.9222 105.715 42.5163 105.607 42.1104C105.499 41.7045 105.607 41.0956 105.472 40.595V40.5138C108.072 41.9039 110.389 43.7669 112.305 46.0072L112.21 46.1155L112.116 46.2373C111.818 46.6026 111.507 46.9544 111.155 47.3197L110.668 47.7798C110.37 48.0639 110.045 48.3616 109.707 48.6457L109.112 49.1328L108.002 49.9447L107.326 50.4183C106.893 50.7024 106.419 51.0001 105.973 51.2842L105.526 51.5684L105.54 51.4872ZM114.483 40.595C114.483 40.595 114.483 40.7032 114.483 40.7709C111.484 37.9626 108.035 35.6759 104.281 34.0055C104.078 33.2478 103.862 32.5036 103.632 31.7594V31.5564C103.28 30.4604 102.874 29.3915 102.428 28.3361L102.306 28.0249L102.225 27.822C109.978 31.5294 114.483 36.0892 114.483 40.595ZM94.512 24.3581C98.5722 30.8504 100.733 38.3499 100.75 46.0072C100.75 46.765 100.75 47.5227 100.75 48.2804C100.75 48.5375 100.75 48.7946 100.75 49.0381C100.75 49.5433 100.709 50.0439 100.628 50.54L100.506 51.4331C100.452 51.8931 100.384 52.3441 100.303 52.7861C100.303 53.1109 100.195 53.4221 100.141 53.7333L100.019 54.3286L99.8296 54.4098C98.8148 54.8293 97.7594 55.2352 96.677 55.614L96.0681 55.7494C94.9721 56.1282 93.849 56.4935 92.6854 56.8318L92.1848 56.9807C90.9941 57.3189 89.7763 57.6437 88.5179 57.9413L88.1661 58.0225C86.8131 58.3337 85.46 58.6314 84.1069 58.902C82.7539 59.1726 81.4008 59.4027 79.9259 59.6191H79.493C78.1399 59.8221 76.7868 59.998 75.4337 60.1604L74.7707 60.2416C73.4177 60.3904 72.0646 60.5257 70.6439 60.6339H69.8861C68.5331 60.7287 67.0853 60.8098 65.6646 60.864H65.3669C65.3669 60.864 65.3669 60.7287 65.2722 60.6475C65.1775 60.5663 65.0963 60.1739 65.0016 59.9303C64.9068 59.6868 64.7174 59.132 64.5821 58.7261L64.3386 57.9684C64.2168 57.576 64.095 57.1701 63.9868 56.7777C63.8785 56.3853 63.8379 56.25 63.7703 55.9794L63.4861 54.8022L63.3237 53.9904C63.2426 53.5844 63.1614 53.1921 63.0937 52.7861C63.0261 52.3802 62.999 52.2449 62.9584 51.9743L62.7961 50.7295C62.7961 50.4724 62.7284 50.2153 62.7149 49.9582C62.7149 49.4982 62.6337 49.0246 62.6066 48.6051C62.6066 48.3886 62.6066 48.1722 62.6066 47.9421C62.6066 47.2656 62.6066 46.5891 62.6066 45.8855C62.5894 36.192 66.0346 26.811 72.3217 19.4329C73.0523 18.5805 73.8101 17.7551 74.6084 16.9703C74.8519 16.7132 75.1361 16.4832 75.3932 16.2397C75.9344 15.712 76.4891 15.1978 77.0574 14.7107L78.0587 13.9124C78.5999 13.4929 79.1276 13.0735 79.6824 12.6676L80.819 11.8963L81.8067 11.2739C86.954 14.612 91.294 19.0537 94.512 24.2769V24.3581ZM74.013 10.5297C73.8236 10.6785 73.6477 10.8544 73.4583 11.0168C72.7411 11.6257 72.024 12.2752 71.3475 12.9382C71.1039 13.1547 70.8739 13.3847 70.6439 13.6147C69.8185 14.4536 69.0067 15.306 68.2354 16.2126C65.3955 19.5625 63.0448 23.298 61.2536 27.3078C58.6417 33.195 57.3 39.5667 57.3161 46.0072C57.3161 46.7514 57.3161 47.4956 57.3161 48.2263V48.9163C57.3161 49.444 57.3161 49.9582 57.4379 50.4724L57.5191 51.2301C57.5191 51.7443 57.6409 52.2449 57.7085 52.7591C57.7085 52.9891 57.7762 53.2056 57.8167 53.4356C57.925 54.1392 58.0603 54.8563 58.2091 55.5464C58.358 56.2635 58.5339 56.9807 58.7233 57.6842C58.7233 57.9007 58.8451 58.1037 58.8992 58.3202C59.048 58.8208 59.1833 59.3215 59.3457 59.8086C59.3457 60.0521 59.4946 60.2957 59.5757 60.5392C59.6569 60.7828 59.6975 60.9181 59.7652 61.094C58.4121 61.094 57.059 61.094 55.706 61.0263H54.3529C53.4734 61.0263 52.5804 61.0263 51.6467 60.9046L50.0907 60.7963L47.7228 60.6204L46.0856 60.4716L44.7325 60.3092L44.6514 60.0251C44.5566 59.7815 44.4755 59.5244 44.3807 59.2809C44.286 59.0373 44.1372 58.5637 44.0289 58.1984C43.9207 57.8331 43.8666 57.6842 43.7989 57.4136C43.7313 57.143 43.596 56.71 43.5013 56.3582C43.4065 56.0064 43.3524 55.817 43.2983 55.5464C43.2442 55.2758 43.1224 54.8293 43.0547 54.4775C42.9871 54.1257 42.933 53.9362 42.8924 53.6656C42.8518 53.395 42.7571 52.935 42.6894 52.5696L42.5676 51.7713C42.5676 51.3789 42.4729 51.0001 42.4323 50.6077C42.3917 50.2153 42.4323 50.107 42.3376 49.85C42.2429 49.5929 42.3376 48.9975 42.2429 48.4969V47.8609C42.2429 47.2115 42.2429 46.562 42.2429 45.9125C42.2168 36.194 45.6784 26.7887 51.9985 19.4059C52.6615 18.6346 53.3516 17.8904 54.0417 17.1733L54.7317 16.5373C55.2189 16.0502 55.7195 15.5992 56.2337 15.1843C56.5178 14.9407 56.829 14.7107 57.1267 14.4671C57.4244 14.2236 58.0603 13.6688 58.5609 13.3035C59.0616 12.9382 59.2375 12.8299 59.5893 12.5864C59.9411 12.3428 60.5229 11.9098 60.9423 11.5986L62.0789 10.9221C62.5525 10.6379 63.0125 10.3538 63.4996 10.0832C63.9868 9.81258 64.3115 9.67727 64.7174 9.47431L66.1652 8.75718L67.5183 8.21595C68.0054 8.02652 68.4925 7.81003 68.9931 7.63413L70.3462 7.17409L71.5098 6.76817C73.2032 7.26789 74.862 7.87808 76.4756 8.59481C75.6367 9.23075 74.8113 9.8667 74.013 10.5297ZM59.8599 5.11742C60.5364 5.11742 61.213 5.11742 61.8895 5.11742L61.5106 5.41509L60.8882 5.68571C60.117 6.10516 59.3593 6.55167 58.6015 7.03878L58.2091 7.28233C57.3702 7.82356 56.5584 8.39185 55.7601 8.97367L55.2053 9.39312C54.4611 9.96141 53.744 10.5297 53.0404 11.1386L52.8104 11.328C52.0527 11.9865 51.322 12.6766 50.6184 13.3982C50.4425 13.5606 50.2801 13.7365 50.1042 13.9124C49.4006 14.643 48.7512 15.3872 48.034 16.172C40.9512 24.4739 37.0562 35.0268 37.0471 45.9396C37.0471 46.9679 37.0471 47.9963 37.1553 49.0111C37.1553 49.2681 37.1553 49.5117 37.1553 49.7688C37.2501 50.7836 37.3448 51.7849 37.4936 52.7861C37.5001 52.8401 37.5001 52.8946 37.4936 52.9485C37.6424 53.9092 37.8319 54.8563 38.0348 55.8035L38.1972 56.5071C38.4272 57.4948 38.6843 58.469 38.982 59.4432L36.2758 58.9832H36.0188C35.0987 58.8073 34.1786 58.6314 33.3126 58.4284L32.4737 58.1849L30.4847 57.7248L29.4834 57.4678L27.4944 56.9265L26.7096 56.6965C25.8031 56.4259 24.9236 56.1553 24.0711 55.8711L23.6923 55.7358L21.5544 54.9646L20.7967 54.6669L19.8766 54.288C19.8766 54.0715 19.7819 53.8551 19.7413 53.6386L19.5654 52.7726C19.4842 52.2945 19.4166 51.8209 19.3625 51.3519C19.3625 51.0542 19.2813 50.7701 19.2542 50.4859C19.1866 49.9717 19.146 49.4576 19.1054 48.9434C19.1054 48.6999 19.1054 48.4563 19.1054 48.2127C19.1054 47.455 19.0377 46.6973 19.0377 45.9396C19.0452 42.6998 19.4266 39.4716 20.1743 36.3192C20.472 35.115 20.8373 33.9243 21.2297 32.7471C22.2396 29.7418 23.6022 26.8668 25.2889 24.1822C28.9594 18.3313 34.0589 13.5111 40.1071 10.1758C46.1553 6.8404 52.953 5.09961 59.8599 5.11742ZM14.2073 40.4326C14.1396 41.055 14.099 41.6774 14.0449 42.2863C14.0449 42.5975 13.9772 42.8952 13.9637 43.2064C13.9637 44.1265 13.869 45.0601 13.869 45.9125C13.869 46.765 13.869 47.7662 13.9637 48.6863C13.9637 48.9975 13.9637 49.3087 14.0449 49.6335C14.0449 50.2424 14.1396 50.8512 14.2073 51.4601C14.2147 51.4912 14.2147 51.5237 14.2073 51.5548L13.8013 51.4195C13.2872 51.1219 12.7865 50.8106 12.2994 50.4994L11.6364 50.0394L10.4998 49.2005L9.89095 48.7134C9.53915 48.4292 9.21442 48.1316 8.90321 47.8339C8.592 47.5362 8.56494 47.5362 8.41611 47.3738C8.06431 47.004 7.73957 46.6387 7.44189 46.2779L7.36071 46.1831L7.23893 46.0072C9.19148 43.7086 11.5602 41.7989 14.2208 40.3785C14.2185 40.397 14.2139 40.4152 14.2073 40.4326ZM17.5899 27.7678C17.5503 27.841 17.5186 27.9181 17.4952 27.9979C17.4952 28.1061 17.4005 28.2279 17.3464 28.3497C16.9134 29.3915 16.5075 30.4604 16.1557 31.5294C16.1557 31.597 16.1557 31.6782 16.088 31.7459C15.8445 32.4765 15.628 33.2207 15.425 33.9649C11.6233 35.6228 8.1285 37.91 5.08755 40.7303C5.08755 40.6626 5.08755 40.6085 5.08755 40.5544C5.11461 36.0486 9.68799 31.4482 17.5899 27.7678ZM29.7676 73.7723L30.4441 73.9211C31.5536 74.1782 32.6902 74.4217 33.8403 74.6518L34.801 74.8412C36.2353 75.1253 37.6966 75.3689 39.185 75.5989L40.1727 75.7342C41.3905 75.9101 42.6082 76.0725 43.8395 76.2078L45.1926 76.3566C46.4013 76.4739 47.6191 76.5821 48.8459 76.6814C52.5467 80.8408 56.9763 84.2891 61.9166 86.8565C61.24 86.8565 60.5635 86.8565 59.8734 86.8565C54.2168 86.8767 48.6181 85.7176 43.4345 83.4531C38.2509 81.1887 33.5963 77.8686 29.7676 73.7046V73.7723ZM75.772 83.6226L74.879 83.9744L73.4447 84.5292L72.457 84.8539L71.4016 85.1787C65.8919 83.5595 60.7873 80.7928 56.4231 77.0602H63.1884H64.0003H65.3534H65.6781H66.4899H67.2747H67.8836H68.5872H69.1149C71.315 79.5144 73.7738 81.7237 76.4485 83.6497L75.772 83.6226ZM87.8685 75.7748L87.1784 76.3837C86.6778 76.8302 86.1771 77.2767 85.663 77.7368L84.7835 78.4133C84.3144 78.7922 83.8273 79.1575 83.3222 79.5093L82.3615 80.1588L81.5496 80.6729C79.4966 79.3366 77.5634 77.8245 75.772 76.1537L76.7462 76.0319L78.6135 75.7748L80.0612 75.5719L80.819 75.4636L82.172 75.2336L83.8904 74.9494L85.1353 74.7194L85.8389 74.5706L87.3408 74.2594L89.0998 73.867L89.9793 73.664C89.3027 74.4217 88.5856 75.0712 87.8685 75.7748ZM95.8381 66.6686C87.4656 69.3731 78.7887 71.0231 70.0079 71.5803C66.9094 71.8239 63.5673 71.9456 60.2117 71.9592C58.5339 71.9592 56.8425 71.9592 55.1647 71.9592C53.4869 71.9592 51.8362 71.8103 50.226 71.7021C41.2913 71.1744 32.4584 69.5242 23.9358 66.7904C12.1776 62.7177 5.11461 56.9942 5.11461 51.4195V51.2707C5.26345 51.4331 5.43935 51.5819 5.60172 51.7307L5.96705 52.0555C6.44062 52.4885 6.94126 52.9079 7.48249 53.3138L7.73957 53.5033C8.21314 53.8686 8.71378 54.2204 9.22795 54.5722L9.70152 54.8834C10.3104 55.2758 10.9463 55.6682 11.6094 56.047L11.7988 56.1553C12.4212 56.5071 13.0707 56.8453 13.7337 57.1836L14.3155 57.4813C15.0326 57.8331 15.7633 58.1849 16.5345 58.5232H16.6157C24.9431 61.9659 33.7176 64.2073 42.6759 65.1803C48.359 65.878 54.08 66.2215 59.8058 66.2086C61.1588 66.2086 62.4037 66.2086 63.6755 66.2086C78.7758 65.8162 92.7801 63.083 103.118 58.5096C103.916 58.1578 104.66 57.7925 105.404 57.4272L105.675 57.2919C105.774 57.2504 105.869 57.2006 105.959 57.143C106.622 56.8048 107.312 56.4665 107.894 56.1147L108.056 56.02C108.719 55.6411 109.342 55.2487 109.937 54.8563L110.424 54.5316C110.925 54.1933 111.425 53.8415 111.885 53.4897L112.143 53.3003C112.67 52.8944 113.157 52.4749 113.631 52.0555C113.764 51.9453 113.89 51.8278 114.01 51.7037L114.47 51.2842V51.4195C114.483 56.9807 107.515 62.6771 95.8381 66.6416V66.6686Z" fill="#FEC6C6"/>
</svg>
