<svg width="48" height="48" viewBox="0 0 48 48" fill="none" xmlns="http://www.w3.org/2000/svg">
<path d="M24 0C19.2531 8.07058e-08 14.6127 1.40769 10.6659 4.04504C6.71899 6.68238 3.64285 10.4309 1.82648 14.8166C0.0101055 19.2023 -0.464916 24.0281 0.461488 28.6838C1.38789 33.3395 3.67411 37.6158 7.03101 40.9721C10.3879 44.3284 14.6647 46.6138 19.3206 47.5394C23.9764 48.4649 28.8021 47.989 33.1875 46.1718C37.5728 44.3546 41.3208 41.2778 43.9574 37.3305C46.594 33.3831 48.0009 28.7425 48 23.9956C47.9988 17.6311 45.4697 11.5278 40.969 7.02787C36.4683 2.52796 30.3644 -1.08206e-07 24 0V0ZM39.5383 16.0207C39.545 16.196 39.4937 16.3687 39.3922 16.5119C38.6939 17.4903 37.8559 18.3611 36.905 19.0964C36.7634 19.2027 36.5289 19.3133 36.5289 19.5124C36.5289 24.6461 35.2012 29.771 31.4793 33.484C26.6996 38.215 19.5523 39.5029 13.2104 37.7503C11.9816 37.4122 10.7942 36.9387 9.66993 36.3386C9.29376 36.135 8.92643 35.927 8.56796 35.688C8.47502 35.6172 8.40864 35.5464 8.4883 35.4977C8.56796 35.449 8.62549 35.4579 8.90873 35.4977C10.6966 35.6567 12.4976 35.4272 14.1885 34.825C15.109 34.5019 17.0917 33.8514 17.6626 32.9795C17.6626 32.9795 17.6891 32.9795 17.7068 32.9397C17.4723 32.8866 17.2421 32.8866 17.012 32.8468C15.2904 32.3511 12.9891 31.4881 11.9226 28.5849C11.8562 28.4123 11.9226 28.3238 12.0996 28.3592C12.905 28.4699 13.7234 28.4445 14.5204 28.284C14.2462 28.2299 13.979 28.1453 13.7238 28.0317C12.6464 27.5966 11.704 26.8829 10.9932 25.9637C10.2825 25.0445 9.82882 23.9529 9.67878 22.8007C9.64047 22.5578 9.62565 22.3117 9.63453 22.066C9.63453 21.8978 9.72304 21.8447 9.87351 21.9377C10.6428 22.3291 11.4822 22.5638 12.343 22.6281C12.0642 22.4112 11.8075 22.1855 11.5552 21.9377C9.67436 20.1674 8.94414 16.5252 10.4488 14.2681C10.5728 14.0867 10.6524 14.0867 10.8029 14.2681C14.246 18.1936 18.4901 20.0214 23.6061 20.7826C23.7389 20.7826 23.7522 20.7826 23.7345 20.6321C23.584 19.7511 23.6065 18.8492 23.8009 17.9768C24.0308 17.0499 24.463 16.1854 25.0666 15.4453C25.6468 14.7296 26.3665 14.1393 27.182 13.7105C27.9979 13.2853 28.8929 13.0337 29.8108 12.9714C30.7545 12.9069 31.7004 13.0583 32.5768 13.414C33.2348 13.6823 33.8446 14.056 34.3825 14.5204C34.5003 14.6221 34.6098 14.7331 34.7099 14.8523C34.7424 14.8861 34.7835 14.9102 34.8289 14.9219C34.8742 14.9337 34.9219 14.9325 34.9666 14.9187C36.2618 14.6006 37.5121 14.1218 38.6886 13.4936C38.7146 13.4804 38.7434 13.4735 38.7726 13.4735C38.8019 13.4735 38.8307 13.4804 38.8567 13.4936C38.9098 13.5335 38.8921 13.6043 38.8567 13.6574C38.6333 14.3512 38.2787 14.9958 37.8123 15.556C37.5158 15.9277 36.7723 16.8438 36.2678 16.9279C37.3483 16.7667 38.4041 16.4693 39.4099 16.0428C39.5338 15.9852 39.5383 15.9587 39.5383 16.0428V16.0207Z" fill="white"/>
</svg>
