<svg width="32" height="32" viewBox="0 0 32 32" fill="none" xmlns="http://www.w3.org/2000/svg">
<path d="M31.3654 15.9918C31.424 6.7388 23.1968 -0.639761 14.0074 0.39971C13.6839 0.434918 13.3486 0.483541 13.0318 0.538867C9.73622 -0.222293 6.39873 -0.321214 4.81799 1.19608C3.70493 2.47697 3.30932 4.34132 3.3747 6.27608C1.18355 9.04292 -0.00587674 12.4705 0.000329849 16.0002C-0.0600166 25.2514 8.16889 32.63 17.3549 31.5922C17.6785 31.5587 18.002 31.5151 18.3138 31.4598C21.5943 32.2243 24.92 32.3232 26.5578 30.7891C27.5149 29.7664 28.0497 27.9122 27.9944 25.7108C30.1836 22.9451 31.3718 19.5193 31.3654 15.9918ZM18.0389 28.3062C15.2657 28.837 12.3946 28.417 9.88968 27.1139C7.38474 25.8109 5.39237 23.7011 4.23463 21.1254C4.1592 20.9578 4.08545 20.7784 4.01504 20.6007C3.44895 19.1306 3.15309 17.5704 3.1417 15.9951C3.13914 14.2113 3.51867 12.4477 4.25475 10.8229C4.41065 11.2588 4.58163 11.6713 4.75764 12.0552C6.64682 16.1812 10.5878 20.1765 17.3834 21.724C21.6949 22.7081 23.0661 24.1114 23.1348 25.3923C22.2665 27.0118 19.8711 27.9608 18.0439 28.3062H18.0389ZM21.5993 17.4521C22.6654 21.0181 13.4542 20.1128 9.76974 14.5399C8.73547 11.123 17.6198 11.5807 21.6043 17.4521H21.5993ZM13.9839 10.2596C9.69934 9.28216 8.31305 7.89228 8.22756 6.61474C8.45887 6.19492 8.76443 5.82057 9.1294 5.50988C12.135 2.99504 18.2316 2.67146 22.3721 5.39085C24.647 6.8323 26.4005 8.96452 27.3758 11.4751C27.919 12.9195 28.2028 14.4486 28.2139 15.9918C28.2165 17.7738 27.8375 19.5356 27.1026 21.1589C25.4799 16.6188 21.4585 11.9563 13.989 10.2596H13.9839Z" fill="#9DAFBD"/>
</svg>
