<svg width="33" height="25" viewBox="0 0 33 25" fill="none" xmlns="http://www.w3.org/2000/svg">
<path d="M21.0544 0.79517C19.6293 0.794058 18.2158 1.05074 16.882 1.5528C15.0898 0.884456 13.1624 0.65992 11.2646 0.898383C9.3667 1.13684 7.55477 1.83122 5.9836 2.92217C4.41243 4.01312 3.12871 5.46822 2.24215 7.16314C1.35558 8.85806 0.892517 10.7424 0.892517 12.6552C0.892517 14.568 1.35558 16.4523 2.24215 18.1473C3.12871 19.8422 4.41243 21.2973 5.9836 22.3882C7.55477 23.4792 9.3667 24.1736 11.2646 24.412C13.1624 24.6505 15.0898 24.4259 16.882 23.7576C18.5049 24.3579 20.2395 24.5955 21.9639 24.4537C23.6884 24.3119 25.3609 23.7941 26.8639 22.9368C28.3668 22.0795 29.6638 20.9034 30.6636 19.4912C31.6635 18.0791 32.3419 16.4651 32.6512 14.7626C32.9606 13.0602 32.8933 11.3107 32.4542 9.63709C32.0151 7.96345 31.2147 6.40629 30.1094 5.07504C29.0041 3.74379 27.6207 2.67077 26.0563 1.93137C24.492 1.19198 22.7847 0.804158 21.0544 0.79517ZM12.6953 22.8599C9.98883 22.8599 7.39322 21.7848 5.47947 19.871C3.56571 17.9573 2.49057 15.3617 2.49057 12.6552C2.49057 9.94874 3.56571 7.35313 5.47947 5.43937C7.39322 3.52561 9.98883 2.45048 12.6953 2.45048C13.3633 2.4502 14.0296 2.51635 14.6845 2.64796C12.9982 3.71716 11.6095 5.19515 10.6472 6.94467C9.68493 8.69419 9.18036 10.6585 9.18036 12.6552C9.18036 14.6519 9.68493 16.6162 10.6472 18.3657C11.6095 20.1153 12.9982 21.5932 14.6845 22.6624C14.0296 22.7941 13.3633 22.8602 12.6953 22.8599ZM16.882 3.34815C18.6779 4.15233 20.2028 5.45892 21.2728 7.11034C22.3427 8.76176 22.912 10.6875 22.912 12.6552C22.912 14.6229 22.3427 16.5486 21.2728 18.2001C20.2028 19.8515 18.6779 21.1581 16.882 21.9623C15.0861 21.1581 13.5613 19.8515 12.4913 18.2001C11.4214 16.5486 10.8521 14.6229 10.8521 12.6552C10.8521 10.6875 11.4214 8.76176 12.4913 7.11034C13.5613 5.45892 15.0861 4.15233 16.882 3.34815ZM21.0544 22.8599C20.3864 22.86 19.7201 22.7939 19.0652 22.6624C20.7515 21.5932 22.1402 20.1153 23.1025 18.3657C24.0648 16.6162 24.5693 14.6519 24.5693 12.6552C24.5693 10.6585 24.0648 8.69419 23.1025 6.94467C22.1402 5.19515 20.7515 3.71716 19.0652 2.64796C19.7201 2.51652 20.3864 2.45037 21.0544 2.45048C23.7609 2.45048 26.3565 3.52561 28.2702 5.43937C30.184 7.35313 31.2591 9.94874 31.2591 12.6552C31.2591 15.3617 30.184 17.9573 28.2702 19.871C26.3565 21.7848 23.7609 22.8599 21.0544 22.8599Z" fill="#FEC6C6"/>
</svg>
