<svg width="38" height="25" viewBox="0 0 38 25" fill="none" xmlns="http://www.w3.org/2000/svg">
<path d="M35.3667 4.29909C34.2556 3.1854 32.7702 2.52425 31.1991 2.44397C29.6279 2.36368 28.0829 2.86999 26.864 3.86461C24.6008 1.83712 21.6542 0.741256 18.6162 0.797208C15.5782 0.853159 12.6739 2.05678 10.4869 4.16623C10.4516 4.19532 10.418 4.2265 10.3864 4.25959L2.3109 12.3386C1.12934 13.5251 0.461195 15.1283 0.450449 16.8027C0.439703 18.4771 1.08722 20.0887 2.25345 21.2902C3.36439 22.4208 4.85734 23.0961 6.43999 23.1837C8.02265 23.2714 9.58104 22.7652 10.8101 21.7642C13.1095 23.7917 16.0916 24.8729 19.1562 24.7903C22.2208 24.7077 25.1403 23.4674 27.3272 21.3189L35.3703 13.2902C36.5561 12.0973 37.2217 10.4837 37.2217 8.8018C37.2217 7.11986 36.5561 5.50626 35.3703 4.31345L35.3667 4.29909ZM11.9088 18.7695L10.8316 19.8468C8.40071 17.1681 7.54612 12.809 8.73105 9.49122C8.96085 11.8575 10.1314 14.4787 12.0201 16.8126C12.2458 17.0953 12.3592 17.4513 12.3387 17.8124C12.3182 18.1735 12.1651 18.5143 11.9088 18.7695ZM24.803 5.87181C24.546 6.13463 24.2005 6.29265 23.8336 6.31521C23.4667 6.33776 23.1046 6.22325 22.8173 5.99389C20.4905 4.10878 17.8801 2.94899 15.5174 2.71559C15.7796 2.63301 16.0489 2.5576 16.3289 2.48938C17.9878 2.08892 19.7184 2.09117 21.3762 2.49595C23.034 2.90072 24.571 3.69626 25.8586 4.81615L24.803 5.87181ZM22.1279 7.82514C22.1428 8.03745 22.1121 8.2505 22.0377 8.44993C21.9634 8.64937 21.8472 8.83057 21.697 8.98134C21.4283 9.25159 21.0652 9.40708 20.6842 9.41512C20.3031 9.42316 19.9338 9.28311 19.6539 9.02443C18.1638 7.62998 16.5538 6.36956 14.8424 5.2578C14.2643 4.88657 13.6566 4.56352 13.0255 4.29191C15.3343 3.60249 18.6126 4.53607 21.5534 6.75871C21.7195 6.88538 21.8566 7.04603 21.9557 7.22993C22.0548 7.41383 22.1135 7.61675 22.1279 7.82514ZM15.539 17.8036C15.513 17.5046 15.5784 17.2046 15.7265 16.9435C15.8746 16.6823 16.0985 16.4723 16.3686 16.3412C16.6387 16.21 16.9422 16.164 17.239 16.209C17.5358 16.2541 17.812 16.3882 18.0309 16.5936C19.2769 17.7282 22.2895 20.3459 24.6378 21.3297C22.329 22.0119 19.0579 21.0784 16.1243 18.8593C15.9572 18.7352 15.8185 18.5768 15.7175 18.3947C15.6166 18.2127 15.5557 18.0111 15.539 17.8036ZM18.6126 12.0586L18.0632 12.6079C17.9213 12.748 17.753 12.8585 17.5681 12.933C17.3832 13.0076 17.1854 13.0448 16.986 13.0424C16.7859 13.0375 16.5888 12.992 16.4067 12.9087C16.2246 12.8254 16.0613 12.7059 15.9268 12.5577C13.8514 10.3099 11.1153 6.6438 11.3271 5.31884C12.7167 5.1034 16.4797 7.97595 18.5767 9.91133C18.7267 10.0464 18.8474 10.2108 18.9315 10.3943C19.0156 10.5778 19.0612 10.7766 19.0656 10.9784C19.07 11.1803 19.033 11.3808 18.9569 11.5678C18.8809 11.7548 18.7674 11.9243 18.6234 12.0657L18.6126 12.0586ZM19.0399 13.5846L19.5929 13.0352C19.729 12.8977 19.8913 12.7888 20.0701 12.7148C20.2489 12.6408 20.4407 12.6033 20.6342 12.6043H20.6701C20.8735 12.6057 21.0743 12.6496 21.2598 12.733C21.4453 12.8165 21.6113 12.9378 21.7473 13.0891C25.1333 16.7911 26.3936 19.4123 26.3936 20.1843C26.3936 20.2956 26.3434 20.3243 26.3039 20.3423C25.7042 20.59 22.864 19.125 19.1045 15.7282C18.9549 15.5909 18.8348 15.4246 18.7515 15.2395C18.6681 15.0543 18.6233 14.8541 18.6198 14.651C18.6148 14.4522 18.6504 14.2544 18.7245 14.0698C18.7986 13.8852 18.9096 13.7176 19.0507 13.5774L19.0399 13.5846ZM15.004 15.6744C14.8529 15.8242 14.6717 15.9402 14.4723 16.0144C14.273 16.0887 14.06 16.1197 13.8478 16.1053C13.6371 16.0924 13.4318 16.0341 13.2458 15.9343C13.0599 15.8345 12.8977 15.6956 12.7706 15.5272C10.5515 12.59 9.61795 9.31527 10.3038 7.00646C10.5777 7.6353 10.9006 8.2416 11.2697 8.81976C12.3816 10.532 13.6433 12.1421 15.0399 13.6313C15.2987 13.9107 15.4394 14.2793 15.4327 14.66C15.426 15.0408 15.2724 15.4043 15.004 15.6744ZM12.8711 19.757C13.1286 19.4947 13.4742 19.3373 13.8411 19.3154C14.208 19.2935 14.5699 19.4087 14.8568 19.6385C17.1871 21.52 19.7975 22.6978 22.1602 22.9132C21.8993 22.9946 21.63 23.07 21.3523 23.1394C19.693 23.542 17.9613 23.5408 16.3026 23.1359C14.6438 22.7311 13.1063 21.9344 11.819 20.8126L12.8711 19.757ZM22.6701 9.9616C22.8197 9.8118 22.9997 9.69579 23.1979 9.62137C23.3962 9.54694 23.608 9.51583 23.8193 9.53011C24.0305 9.5444 24.2363 9.60376 24.4227 9.7042C24.6091 9.80464 24.7718 9.94383 24.8999 10.1124C26.6091 12.3745 27.5857 14.8844 27.5857 17.0029C27.5916 17.5484 27.5166 18.0917 27.3631 18.6151C26.3793 16.2668 23.7724 13.2543 22.627 12.0083C22.3689 11.7274 22.2293 11.3577 22.2374 10.9763C22.2454 10.5949 22.4004 10.2314 22.6701 9.9616ZM29.4637 12.8341C29.4655 13.9623 29.2873 15.0835 28.9358 16.1555C28.7096 13.7929 27.5462 11.1788 25.6611 8.84848C25.4318 8.56124 25.3173 8.19904 25.3398 7.83215C25.3624 7.46526 25.5204 7.11982 25.7832 6.86283L26.8353 5.81077C28.533 7.75072 29.4671 10.2419 29.4637 12.8198V12.8341ZM27.8443 4.86282C28.7111 4.18807 29.7799 3.82504 30.8784 3.8323C31.5312 3.82694 32.1784 3.954 32.7807 4.2058C33.3831 4.4576 33.9281 4.82891 34.3829 5.2973C34.8456 5.75833 35.2128 6.30617 35.4633 6.9094C35.7138 7.51264 35.8427 8.15939 35.8427 8.81258C35.8427 9.46576 35.7138 10.1125 35.4633 10.7158C35.2128 11.319 34.8456 11.8668 34.3829 12.3279L30.3075 16.3997C30.9125 14.4237 31.0038 12.326 30.5728 10.3049C30.1418 8.28374 29.2027 6.40582 27.8443 4.84846V4.86282ZM9.83339 20.7839C9.19333 21.2806 8.43974 21.6103 7.64054 21.7431C6.84133 21.876 6.02162 21.808 5.25527 21.5451C4.4499 21.2936 3.72354 20.8374 3.14707 20.2213C2.57061 19.6052 2.16374 18.8502 1.9662 18.0299C1.76589 17.1969 1.78181 16.3265 2.01244 15.5013C2.24308 14.6762 2.68077 13.9237 3.28398 13.3153L7.37018 9.2291C7.01204 10.3923 6.83048 11.6027 6.83158 12.8198C6.82752 15.7517 7.89508 18.5841 9.83339 20.7839Z" fill="#FEC6C6"/>
</svg>
