<svg width="34" height="26" viewBox="0 0 34 26" fill="none" xmlns="http://www.w3.org/2000/svg">
<path d="M33.7758 11.4644C33.7758 9.22521 31.6435 7.26111 27.7688 5.88165C26.6554 4.18093 25.1614 2.76277 23.405 1.73945C22.4563 1.18809 21.4404 0.761678 20.3824 0.470803C17.7326 -0.262644 14.9184 -0.136543 12.3448 0.83096C9.77118 1.79846 7.57087 3.55748 6.06045 5.8549C2.15135 7.21907 0 9.20229 0 11.4644C0.00336254 11.9945 0.126136 12.5169 0.359195 12.9929C0.126136 13.469 0.00336254 13.9914 0 14.5214C0 16.7759 2.15135 18.7592 6.06045 20.1272C7.57169 22.4224 9.77183 24.1794 12.3446 25.1455C14.9173 26.1115 17.7301 26.2369 20.3786 25.5036C21.4365 25.2127 22.4525 24.7863 23.4011 24.235C25.1568 23.2139 26.6508 21.7984 27.765 20.1004C31.6397 18.7248 33.7758 16.7607 33.7758 14.5214C33.7705 13.9916 33.6478 13.4696 33.4166 12.9929C33.6478 12.5162 33.7705 11.9942 33.7758 11.4644ZM29.8055 14.5405C29.8284 14.3571 29.8399 14.1775 29.8552 13.9941C29.8552 13.9177 29.8552 13.8412 29.8552 13.7648C29.8705 13.5101 29.8781 13.2553 29.8781 13.0006C29.8781 12.7407 29.8781 12.4809 29.8552 12.2363C29.8552 12.1217 29.8552 12.0071 29.8246 11.8924C29.794 11.7778 29.8246 11.6058 29.7864 11.4644V11.4415C30.5206 11.8341 31.175 12.3602 31.7161 12.9929L31.6894 13.0235L31.6626 13.0579C31.5786 13.1611 31.4907 13.2604 31.3913 13.3636L31.2537 13.4935C31.1697 13.5738 31.078 13.6578 30.9824 13.7381L30.8143 13.8756L30.501 14.1049L30.3099 14.2387C30.1876 14.3189 30.0539 14.403 29.9278 14.4832L29.8017 14.5635L29.8055 14.5405ZM32.3313 11.4644C32.3313 11.4644 32.3313 11.495 32.3313 11.5141C31.4842 10.721 30.5104 10.0753 29.4501 9.60351C29.3928 9.38953 29.3317 9.17936 29.2667 8.96919V8.91187C29.1674 8.60236 29.0527 8.30048 28.9266 8.00243L28.8922 7.91454L28.8693 7.85722C31.0589 8.90423 32.3313 10.192 32.3313 11.4644ZM26.6912 6.87899C27.8378 8.71247 28.4481 10.8304 28.4528 12.9929C28.4528 13.2069 28.4528 13.4209 28.4528 13.6349C28.4528 13.7075 28.4528 13.7801 28.4528 13.8489C28.4528 13.9915 28.4413 14.1329 28.4184 14.273L28.384 14.5252C28.3687 14.6552 28.3496 14.7825 28.3267 14.9074C28.3267 14.9991 28.2961 15.087 28.2808 15.1749L28.2464 15.343L28.193 15.3659C27.9064 15.4844 27.6083 15.599 27.3026 15.706L27.1307 15.7442C26.8211 15.8512 26.504 15.9544 26.1754 16.0499L26.034 16.0919C25.6977 16.1875 25.3538 16.2792 24.9984 16.3633L24.8991 16.3862C24.5169 16.4741 24.1348 16.5581 23.7527 16.6346C23.3706 16.711 22.9885 16.7759 22.5719 16.8371H22.4497C22.0675 16.8944 21.6854 16.9441 21.3033 16.9899L21.1161 17.0129C20.7339 17.0549 20.3518 17.0931 19.9506 17.1237H19.7366C19.3545 17.1504 18.9456 17.1733 18.5444 17.1886H18.4603C18.4603 17.1886 18.4603 17.1504 18.4336 17.1275C18.4068 17.1046 18.3839 16.9938 18.3571 16.925C18.3304 16.8562 18.2769 16.6995 18.2387 16.5849L18.1699 16.3709C18.1355 16.2601 18.1011 16.1454 18.0705 16.0346C18.04 15.9238 18.0285 15.8856 18.0094 15.8092L17.9292 15.4767L17.8833 15.2475C17.8604 15.1328 17.8375 15.022 17.8183 14.9074C17.7992 14.7927 17.7916 14.7545 17.7801 14.6781L17.7343 14.3265C17.7343 14.2539 17.7152 14.1813 17.7113 14.1087C17.7113 13.9788 17.6884 13.8451 17.6808 13.7266C17.6808 13.6655 17.6808 13.6043 17.6808 13.5394C17.6808 13.3483 17.6808 13.1572 17.6808 12.9585C17.6759 10.221 18.6489 7.57172 20.4244 5.48806C20.6308 5.24733 20.8447 5.01423 21.0702 4.7926C21.139 4.72 21.2192 4.65504 21.2918 4.58626C21.4447 4.43723 21.6014 4.29202 21.7618 4.15446L22.0446 3.92901C22.1975 3.81055 22.3465 3.69209 22.5032 3.57745L22.8241 3.35964L23.1031 3.18387C24.5567 4.1266 25.7824 5.38097 26.6912 6.85606V6.87899ZM20.9021 2.9737C20.8486 3.01573 20.7989 3.06541 20.7454 3.11126C20.5429 3.28322 20.3403 3.46664 20.1493 3.65388C20.0805 3.71502 20.0155 3.77998 19.9506 3.84494C19.7175 4.08185 19.4882 4.32259 19.2704 4.57861C18.4684 5.52465 17.8045 6.57961 17.2987 7.71201C16.561 9.37463 16.1821 11.174 16.1867 12.9929C16.1867 13.2031 16.1867 13.4133 16.1867 13.6196V13.8145C16.1867 13.9635 16.1867 14.1087 16.2211 14.2539L16.244 14.4679C16.244 14.6131 16.2784 14.7545 16.2975 14.8997C16.2975 14.9647 16.3166 15.0258 16.3281 15.0908C16.3586 15.2895 16.3969 15.492 16.4389 15.6869C16.4809 15.8894 16.5306 16.0919 16.5841 16.2906C16.5841 16.3518 16.6185 16.4091 16.6338 16.4702C16.6758 16.6116 16.714 16.753 16.7599 16.8906C16.7599 16.9594 16.8019 17.0281 16.8248 17.0969C16.8478 17.1657 16.8592 17.2039 16.8783 17.2536C16.4962 17.2536 16.1141 17.2536 15.732 17.2345H15.3498C15.1015 17.2345 14.8493 17.2345 14.5856 17.2001L14.1462 17.1695L13.4774 17.1199L13.0151 17.0778L12.6329 17.032L12.61 16.9517C12.5833 16.8829 12.5603 16.8103 12.5336 16.7416C12.5068 16.6728 12.4648 16.539 12.4342 16.4359C12.4037 16.3327 12.3884 16.2906 12.3693 16.2142C12.3502 16.1378 12.312 16.0155 12.2852 15.9162C12.2585 15.8168 12.2432 15.7633 12.2279 15.6869C12.2126 15.6105 12.1782 15.4844 12.1591 15.385C12.14 15.2857 12.1247 15.2322 12.1133 15.1557C12.1018 15.0793 12.0751 14.9494 12.0559 14.8462L12.0216 14.6208C12.0216 14.51 11.9948 14.403 11.9833 14.2922C11.9719 14.1813 11.9833 14.1508 11.9566 14.0782C11.9298 14.0056 11.9566 13.8374 11.9298 13.696V13.5164C11.9298 13.333 11.9298 13.1496 11.9298 12.9662C11.9225 10.2216 12.9001 7.56541 14.6849 5.48042C14.8722 5.26261 15.0671 5.05244 15.2619 4.84992L15.4568 4.67032C15.5944 4.53276 15.7358 4.40538 15.881 4.2882C15.9612 4.21942 16.0491 4.15446 16.1332 4.08568C16.2173 4.01689 16.3969 3.86022 16.5382 3.75705C16.6796 3.65388 16.7293 3.62331 16.8286 3.55453C16.928 3.48574 17.0923 3.36346 17.2108 3.27558L17.5318 3.08452C17.6655 3.00427 17.7954 2.92403 17.933 2.8476C18.0705 2.77118 18.1623 2.73296 18.2769 2.67565L18.6858 2.47312L19.0679 2.32027C19.2054 2.26678 19.343 2.20564 19.4844 2.15596L19.8665 2.02604L20.1951 1.9114C20.6734 2.05253 21.1418 2.22485 21.5975 2.42727C21.3606 2.60686 21.1275 2.78646 20.9021 2.9737ZM16.9051 1.44521C17.0961 1.44521 17.2872 1.44521 17.4783 1.44521L17.3713 1.52928L17.1955 1.6057C16.9777 1.72416 16.7637 1.85026 16.5497 1.98783L16.4389 2.05661C16.202 2.20946 15.9727 2.36995 15.7472 2.53426L15.5906 2.65272C15.3804 2.81321 15.1779 2.9737 14.9792 3.14566L14.9142 3.19915C14.7002 3.38512 14.4939 3.58 14.2952 3.7838C14.2455 3.82965 14.1996 3.87933 14.15 3.92901C13.9513 4.13535 13.7679 4.34552 13.5653 4.56715C11.5651 6.9117 10.4651 9.89195 10.4625 12.9738C10.4625 13.2642 10.4625 13.5547 10.4931 13.8412C10.4931 13.9139 10.4931 13.9826 10.4931 14.0552C10.5198 14.3418 10.5466 14.6246 10.5886 14.9074C10.5904 14.9226 10.5904 14.938 10.5886 14.9532C10.6306 15.2245 10.6841 15.492 10.7414 15.7595L10.7873 15.9582C10.8523 16.2372 10.9249 16.5123 11.0089 16.7874L10.2447 16.6575H10.1721C9.91224 16.6078 9.6524 16.5581 9.40784 16.5008L9.17093 16.432L8.60921 16.3021L8.32644 16.2295L7.76472 16.0767L7.54309 16.0117C7.28706 15.9353 7.03869 15.8589 6.79795 15.7786L6.69095 15.7404L6.0872 15.5226L5.87321 15.4385L5.61337 15.3315C5.61337 15.2704 5.58662 15.2092 5.57516 15.1481L5.52548 14.9035C5.50256 14.7685 5.48345 14.6348 5.46816 14.5023C5.46816 14.4183 5.44524 14.338 5.43759 14.2578C5.41849 14.1126 5.40702 13.9673 5.39556 13.8221C5.39556 13.7534 5.39556 13.6846 5.39556 13.6158C5.39556 13.4018 5.37645 13.1878 5.37645 12.9738C5.37857 12.0589 5.48628 11.1472 5.69744 10.2569C5.7815 9.91685 5.88468 9.58059 5.99549 9.24814C6.28069 8.3994 6.6655 7.58746 7.14186 6.82931C8.17844 5.17696 9.61861 3.81569 11.3267 2.87375C13.0347 1.9318 14.9545 1.44019 16.9051 1.44521ZM4.01228 11.4186C3.99317 11.5944 3.98171 11.7701 3.96643 11.9421C3.96643 12.03 3.94732 12.1141 3.9435 12.2019C3.9435 12.4618 3.91675 12.7255 3.91675 12.9662C3.91675 13.2069 3.91675 13.4897 3.9435 13.7495C3.9435 13.8374 3.9435 13.9253 3.96643 14.017C3.96643 14.189 3.99317 14.3609 4.01228 14.5329C4.01439 14.5417 4.01439 14.5508 4.01228 14.5596L3.89764 14.5214C3.75244 14.4374 3.61105 14.3495 3.47349 14.2616L3.28625 14.1317L2.96527 13.8947L2.79331 13.7572C2.69396 13.6769 2.60225 13.5929 2.51436 13.5088C2.42647 13.4247 2.41883 13.4247 2.3768 13.3789C2.27745 13.2744 2.18574 13.1713 2.10167 13.0694L2.07874 13.0426L2.04435 12.9929C2.59577 12.3438 3.26472 11.8045 4.0161 11.4033C4.01545 11.4085 4.01417 11.4137 4.01228 11.4186ZM4.96758 7.84193C4.9564 7.86258 4.94743 7.88436 4.94084 7.90689C4.94084 7.93746 4.91409 7.97186 4.8988 8.00625C4.77652 8.30048 4.66189 8.60236 4.56254 8.90423C4.56254 8.92334 4.56254 8.94627 4.54343 8.96537C4.47465 9.17172 4.41351 9.38188 4.35619 9.59205C3.28256 10.0603 2.29558 10.7062 1.43678 11.5027C1.43678 11.4836 1.43678 11.4683 1.43678 11.453C1.44442 10.1805 2.73599 8.8813 4.96758 7.84193ZM8.40668 20.8341L8.59774 20.8761C8.91108 20.9487 9.23207 21.0175 9.55687 21.0825L9.82817 21.136C10.2332 21.2162 10.6459 21.285 11.0662 21.3499L11.3452 21.3882C11.6891 21.4378 12.033 21.4837 12.3807 21.5219L12.7629 21.5639C13.1042 21.597 13.4481 21.6276 13.7946 21.6556C14.8398 22.8303 16.0907 23.8042 17.4859 24.5292C17.2948 24.5292 17.1038 24.5292 16.9089 24.5292C15.3114 24.5349 13.7303 24.2076 12.2664 23.5681C10.8025 22.9285 9.48795 21.9909 8.40668 20.815V20.8341ZM21.3988 23.6159L21.1466 23.7153L20.7416 23.8719L20.4626 23.9637L20.1646 24.0554C18.6086 23.5981 17.167 22.8167 15.9345 21.7626H17.8451H18.0744H18.4565H18.5482H18.7775H18.9991H19.1711H19.3698H19.5188C20.1401 22.4557 20.8345 23.0797 21.5899 23.6236L21.3988 23.6159ZM24.815 21.3996L24.6201 21.5716C24.4787 21.6977 24.3373 21.8238 24.1921 21.9537L23.9438 22.1448C23.8113 22.2517 23.6737 22.3549 23.5311 22.4543L23.2598 22.6377L23.0305 22.7829C22.4507 22.4055 21.9047 21.9785 21.3988 21.5066L21.674 21.4722L22.2013 21.3996L22.6102 21.3423L22.8241 21.3117L23.2063 21.2468L23.6916 21.1665L24.0431 21.1016L24.2418 21.0595L24.666 20.9716L25.1627 20.8608L25.4111 20.8035C25.22 21.0175 25.0175 21.2009 24.815 21.3996ZM27.0657 18.8279C24.7012 19.5917 22.2508 20.0577 19.771 20.215C18.8959 20.2838 17.9521 20.3182 17.0044 20.322C16.5306 20.322 16.0529 20.322 15.5791 20.322C15.1053 20.322 14.6391 20.28 14.1844 20.2494C11.6611 20.1004 9.16661 19.6344 6.75974 18.8623C3.4391 17.7121 1.44442 16.0958 1.44442 14.5214V14.4794C1.48645 14.5252 1.53613 14.5673 1.58198 14.6093L1.68516 14.701C1.8189 14.8233 1.96029 14.9418 2.11313 15.0564L2.18574 15.1099C2.31948 15.2131 2.46087 15.3124 2.60607 15.4118L2.73981 15.4997C2.91177 15.6105 3.09137 15.7213 3.27861 15.8283L3.3321 15.8589C3.50788 15.9582 3.6913 16.0537 3.87854 16.1493L4.04285 16.2333C4.24537 16.3327 4.45172 16.432 4.66953 16.5276H4.69246C7.0442 17.4998 9.52221 18.1328 12.0521 18.4076C13.6571 18.6047 15.2728 18.7017 16.8898 18.698C17.2719 18.698 17.6235 18.698 17.9827 18.698C22.2471 18.5872 26.2021 17.8153 29.1215 16.5237C29.347 16.4244 29.5571 16.3212 29.7673 16.218L29.8437 16.1798C29.8716 16.1681 29.8985 16.1541 29.924 16.1378C30.1112 16.0423 30.3061 15.9467 30.4704 15.8474L30.5163 15.8206C30.7035 15.7136 30.8793 15.6028 31.0474 15.492L31.185 15.4003C31.3264 15.3048 31.4677 15.2054 31.5977 15.1061L31.6703 15.0526C31.8193 14.9379 31.9569 14.8195 32.0906 14.701C32.1281 14.6699 32.1638 14.6367 32.1976 14.6017L32.3275 14.4832V14.5214C32.3313 16.0919 30.3634 17.7007 27.0657 18.8203V18.8279Z" fill="#FEC6C6"/>
</svg>
