<svg width="48" height="48" viewBox="0 0 48 48" fill="none" xmlns="http://www.w3.org/2000/svg">
<path d="M29.2132 23.7921L21.3445 19.5082C21.0214 19.3223 19.915 19.5568 19.915 19.9507V28.2797C19.915 28.647 21.0126 28.8816 21.3357 28.7222L29.5584 24.6551C29.8903 24.456 29.5451 23.978 29.2132 23.7921Z" fill="white"/>
<path d="M24 0C19.2531 8.07058e-08 14.6127 1.40769 10.6659 4.04504C6.71899 6.68238 3.64285 10.4309 1.82648 14.8166C0.0101055 19.2023 -0.464916 24.0281 0.461488 28.6838C1.38789 33.3395 3.67411 37.6158 7.03101 40.9721C10.3879 44.3284 14.6647 46.6138 19.3206 47.5394C23.9764 48.4649 28.8021 47.989 33.1875 46.1718C37.5728 44.3546 41.3208 41.2778 43.9574 37.3305C46.594 33.3831 48.0009 28.7425 48 23.9956C47.9988 17.6311 45.4697 11.5278 40.969 7.02787C36.4683 2.52796 30.3644 -1.08206e-07 24 0V0ZM40.3437 28.2663C40.3437 29.2081 40.1581 30.1408 39.7976 31.0109C39.437 31.8811 38.9085 32.6716 38.2423 33.3374C37.5761 34.0032 36.7852 34.5312 35.9148 34.8913C35.0445 35.2513 34.1117 35.4363 33.1698 35.4357H14.8302C12.9287 35.4357 11.1051 34.6804 9.7606 33.3358C8.41607 31.9913 7.66071 30.1677 7.66071 28.2663V19.7293C7.66071 17.8278 8.41607 16.0043 9.7606 14.6597C11.1051 13.3152 12.9287 12.5598 14.8302 12.5598H33.1698C34.1117 12.5593 35.0445 12.7443 35.9148 13.1043C36.7852 13.4643 37.5761 13.9924 38.2423 14.6582C38.9085 15.324 39.437 16.1145 39.7976 16.9846C40.1581 17.8548 40.3437 18.7874 40.3437 19.7293V28.2663Z" fill="white"/>
</svg>
