<svg width="27" height="10" viewBox="0 0 27 10" fill="none" xmlns="http://www.w3.org/2000/svg">
<path d="M9.72634 0.0432895L8.43141 9.24964C8.39304 9.50938 8.31151 9.70178 8.18681 9.82684C8.06212 9.94228 7.87028 10 7.61129 10H6.5178C6.27799 10 6.10054 9.93747 5.98544 9.81241C5.87992 9.68735 5.784 9.51419 5.69768 9.29293L3.61141 4.06926C3.51549 3.85762 3.42916 3.62193 3.35242 3.36219C3.28528 3.10245 3.22293 2.84752 3.16538 2.5974H2.99272C2.99272 2.85714 2.98313 3.12169 2.96394 3.39105C2.95435 3.65079 2.93037 3.91534 2.892 4.1847L2.07188 10H0L1.28054 0.793651C1.31891 0.533911 1.40523 0.34632 1.53952 0.23088C1.67381 0.10582 1.87045 0.0432895 2.12943 0.0432895H3.19415C3.43395 0.0432895 3.60661 0.11063 3.71212 0.24531C3.81763 0.37037 3.91835 0.53872 4.01427 0.75036L6.04299 5.80087C6.13891 6.02213 6.23003 6.26744 6.31636 6.5368C6.41228 6.79654 6.49861 7.07552 6.57535 7.37374H6.77678C6.76719 7.08514 6.76719 6.81578 6.77678 6.56566C6.79597 6.31554 6.82474 6.06061 6.86311 5.80087L7.65445 0.0432895H9.72634Z" fill="#8C8A8A"/>
<path d="M13.7089 0C14.4955 0 15.2868 0.00961989 16.0829 0.0288597C16.8791 0.0384795 17.6033 0.0865795 18.2555 0.17316L17.9966 1.74603H14.4859C14.1789 1.74603 13.9535 1.80375 13.8096 1.91919C13.6657 2.02501 13.5746 2.22703 13.5363 2.52525L12.4859 10H10.2845L11.3924 1.99134C11.4883 1.36604 11.7425 0.880231 12.155 0.533911C12.5675 0.17797 13.0854 0 13.7089 0ZM11.3349 4.24242H17.1045L16.9031 5.77201H11.1191L11.3349 4.24242Z" fill="#8C8A8A"/>
<path d="M24.0361 0.0432895L22.6404 10H20.439L21.8347 0.0432895H24.0361ZM27 0.0432895L26.7698 1.77489H18.6261L18.8707 0.0432895H27Z" fill="#8C8A8A"/>
</svg>
